<svg id="Group_44" data-name="Group 44" xmlns="http://www.w3.org/2000/svg" xmlns:xlink="http://www.w3.org/1999/xlink" width="850.229" height="687.401" viewBox="0 0 850.229 687.401">
  <defs>
    <clipPath id="clip-path">
      <rect id="Rectangle_67" data-name="Rectangle 67" width="850.229" height="687.401" fill="none"/>
    </clipPath>
    <clipPath id="clip-path-3">
      <rect id="Rectangle_61" data-name="Rectangle 61" width="289.218" height="13.741" fill="none"/>
    </clipPath>
  </defs>
  <g id="Group_56" data-name="Group 56" clip-path="url(#clip-path)">
    <g id="Group_55" data-name="Group 55">
      <g id="Group_54" data-name="Group 54" clip-path="url(#clip-path)">
        <path id="Path_442" data-name="Path 442" d="M187.038,1C84.525.769,1.232,83.679,1,186.19s82.678,185.8,185.192,186.037a185.633,185.633,0,0,0,130.192-52.9l-18.431-13.772a162.917,162.917,0,1,1,0-237.94l18.431-13.774A184.015,184.015,0,0,0,187.038,1" transform="translate(-0.069 -0.069)" fill="#d19e2c"/>
        <path id="Path_443" data-name="Path 443" d="M375.106,106.4l-18.495,13.906a162.3,162.3,0,0,1,0,147l18.495,13.9a185.647,185.647,0,0,0,0-174.617Z" transform="translate(-24.451 -7.295)" fill="#d19e2c"/>
        <path id="Path_444" data-name="Path 444" d="M268.659,98.185a120.687,120.687,0,1,0,34.09,45.4,120.805,120.805,0,0,0-34.09-45.4m15.268,126.759a97.911,97.911,0,1,1,0-67.257,97.906,97.906,0,0,1,0,67.257" transform="translate(-4.864 -4.836)" fill="#d19e2c"/>
        <path id="Path_445" data-name="Path 445" d="M843.839,378.735c0,154-124.844,278.848-278.848,278.848S286.144,532.738,286.144,378.735,410.988,99.887,564.991,99.887,843.839,224.732,843.839,378.735" transform="translate(-19.619 -6.849)" fill="#322780"/>
        <path id="Path_446" data-name="Path 446" d="M187.038,1C84.525.769,1.232,83.679,1,186.19s82.678,185.8,185.192,186.037a185.633,185.633,0,0,0,130.192-52.9l-18.431-13.772a162.917,162.917,0,1,1,0-237.94l18.431-13.774A184.015,184.015,0,0,0,187.038,1Z" transform="translate(-0.069 -0.069)" fill="none" stroke="#d19e2c" stroke-width="2"/>
        <path id="Path_447" data-name="Path 447" d="M375.026,106.465,356.61,120.312a162.3,162.3,0,0,1,0,147l18.5,13.9a185.652,185.652,0,0,0,0-174.617Z" transform="translate(-24.451 -7.3)" fill="none" stroke="#d19e2c" stroke-width="2"/>
        <path id="Path_448" data-name="Path 448" d="M268.659,98.185a120.687,120.687,0,1,0,34.09,45.4A120.805,120.805,0,0,0,268.659,98.185Zm15.268,126.759a97.911,97.911,0,1,1,0-67.257A97.906,97.906,0,0,1,283.928,224.944Z" transform="translate(-4.864 -4.836)" fill="none" stroke="#d19e2c" stroke-width="2"/>
        <path id="Path_449" data-name="Path 449" d="M564.263,277.832c7.588-23.2,27.2-62.963,15.762-69.9-14.908-9.048-57.819-14.65-57.819-14.65l0,.737s-43.293,3.558-58.228,12.562c-11.457,6.907,8.4,48.644,15.918,71.865,1.8,5.572,1.569,30.543.842,52.685-.179,5.462-4.651,30.572-3.911,40.956.221,3.1,35.255,22.335,45.079,22.841v-.736c9.826-.477,44.917-19.609,45.147-22.707.771-10.383-4.028-31.539-4.19-37-.659-22.144-.418-51.081,1.4-56.647" transform="translate(-31.573 -13.252)" fill="#ffbd95"/>
        <path id="Path_450" data-name="Path 450" d="M473.81,222.159c-7.049,5.232-18.74,1.279-28.273-12.006s-14.577-23.388-16.967-26.9c-2.468-3.63-18.331-23.587-21.7-29.592s-3.315-13.534,2.348-17.6c4.737-3.4,16.567.915,25.217,9.05s58.311,62.995,39.378,77.05" transform="translate(-27.74 -9.249)" fill="#ffa47c"/>
        <path id="Path_451" data-name="Path 451" d="M468.436,256.5s-6.161-17.274-12.448-29.145c-4.319-8.155-35.029-48.812-35.029-48.812s21.2-23.816,22.552-24.589S482.6,195.769,482.6,195.769s-3.369,51.909-14.166,60.727" transform="translate(-28.863 -10.555)" fill="#cee0ff"/>
        <path id="Path_452" data-name="Path 452" d="M542.417,183.987c-.975-4.422-3.4-26.286-3.4-26.286l-14.491-.021v.737l-14.491-.021s-2.489,21.856-3.478,26.275-12.926,11.074-12.926,11.074l30.839.047v-.738l30.839.047s-11.917-6.69-12.893-11.112" transform="translate(-33.845 -10.811)" fill="#ffbd95"/>
        <path id="Path_453" data-name="Path 453" d="M541.447,177.818c-.909-6.7-1.994-16.23-2.328-19.194l-.931-.923-13.663-.02v.737l-14.491-.021s-2.488,21.856-3.477,26.275-12.926,11.074-12.926,11.074l1.457,0c13.768-3.648,27.458-7.286,29.3-7.812,3.851-1.1,17.058-10.116,17.058-10.116Z" transform="translate(-33.845 -10.811)" fill="#ffa47c"/>
        <path id="Path_454" data-name="Path 454" d="M499.933,359.1c-17.684-.081-24.58,12.244-24.145,50.068s6.013,78.85,8.461,84.748,27.507,6.06,29.969,2.625,8.719-81.9,8.737-94.179S519.2,359.19,499.933,359.1" transform="translate(-32.621 -24.621)" fill="#ffbd95"/>
        <path id="Path_455" data-name="Path 455" d="M501.619,533.313l-4.666-.118A12.811,12.811,0,0,1,484.513,520.1l.4-15.713a12.811,12.811,0,0,1,13.093-12.443l4.666.12a12.808,12.808,0,0,1,12.441,13.094l-.4,15.712a12.808,12.808,0,0,1-13.093,12.442" transform="translate(-33.22 -33.729)" fill="#ffbd95"/>
        <path id="Path_456" data-name="Path 456" d="M498.84,511.5c-5.4-.007-18.67,1.76-17.985,37.025s14.991,86.958,14.991,86.958l12.773.02s6.933-68.652,6.981-81.177c.111-28.491.31-42.8-16.76-42.826" transform="translate(-32.967 -35.07)" fill="#ffbd95"/>
        <path id="Path_457" data-name="Path 457" d="M550.411,359.427c17.582-1.9,25.709,9.649,29.171,47.317s2.135,79.049.308,85.169-26.739,8.859-29.541,5.7-17.1-80.566-18.386-92.779-.7-43.332,18.447-45.4" transform="translate(-36.445 -24.63)" fill="#ffbd95"/>
        <path id="Path_458" data-name="Path 458" d="M565.1,530.612l4.666,0a12.808,12.808,0,0,0,12.763-12.779l-.01-15.72a12.808,12.808,0,0,0-12.779-12.763l-4.667,0a12.811,12.811,0,0,0-12.764,12.78l.01,15.72a12.811,12.811,0,0,0,12.78,12.763" transform="translate(-37.868 -33.551)" fill="#ffbd95"/>
        <path id="Path_459" data-name="Path 459" d="M574.665,225.064c7.048,5.233,18.74,1.279,28.272-12.005s14.578-23.39,16.967-26.9c2.468-3.63,18.331-23.587,21.7-29.592s3.316-13.534-2.348-17.6c-4.737-3.4-16.567.916-25.216,9.051s-58.312,62.995-39.378,77.049" transform="translate(-39.108 -9.448)" fill="#ffa47c"/>
        <path id="Path_460" data-name="Path 460" d="M567.685,506.458c-5.374-.564-18.751-.17-21.7,34.976s5.866,87.335,5.866,87.335l13.743-1.259s13.017-64.277,14.353-76.728c3.045-28.329,4.715-42.542-12.262-44.324" transform="translate(-37.393 -34.717)" fill="#ffbd95"/>
        <path id="Path_461" data-name="Path 461" d="M522.766,405.734l.08-53.42-42.273-1.379s-6.4,31.148-7.411,48.094c-.8,13.51,4.224,63.253,6.308,87.036H519.3c1.139-31.014,3.468-80.331,3.468-80.331" transform="translate(-32.436 -24.061)" fill="#00233f"/>
        <path id="Path_462" data-name="Path 462" d="M583.76,208.4c-1.642-3.4-12.38-5.911-22-8.905-8.478-2.64-16.066-5.982-16.066-5.982a26.878,26.878,0,0,1-23.562,13.447c-12.667,0-23.526-13.521-23.526-13.521s-7.6,3.321-16.084,5.934c-9.627,2.966-20.373,5.447-22.025,8.839-1.678,3.444,15.478,69.572,17.406,75.2s-3.09,44.96,1.8,56.729l42.18,1.377v0l.082,0h.01l41.831-2.251c3.875-13.485.328-50.841,2.273-56.462s19.349-70.956,17.681-74.4" transform="translate(-31.566 -13.263)" fill="#cee0ff"/>
        <path id="Path_463" data-name="Path 463" d="M580.649,397.072C577.9,380.32,568.326,350,568.326,350L526.5,352.25l-.206,56.1s10.144,46.7,16.133,77.648h40.937c-.4-23.131-.469-75.257-2.71-88.929" transform="translate(-36.084 -23.997)" fill="#00233f"/>
        <path id="Path_464" data-name="Path 464" d="M515.135,320.16c-2.674-34.362,39.038-30.35,42.089-35.668s-3.912-18.184-7.275-19.317c-7.428-2.5-26.356-6.63-29.9-6.129s-30.425,3.25-34.73-.052-26.747-26.239-26.747-26.239c12.194,22.381,17.985,49.769,19.212,53.347,1.926,5.626-3.09,44.96,1.8,56.73l42.18,1.376v0l.082,0h.01l41.831-2.251s-46.782.874-48.546-21.8" transform="translate(-31.441 -15.959)" fill="#b8d1ff"/>
        <path id="Path_465" data-name="Path 465" d="M416.605,147.95c-6.688,2.5-13.507,1.052-21.488-17.293S374.156,67.4,374.156,67.4l10.819-4.045s24.324,32.671,29.1,42.439,20.04,35.607,2.534,42.153" transform="translate(-25.654 -4.344)" fill="#ffa47c"/>
        <path id="Path_466" data-name="Path 466" d="M551.327,136.52c-.028,18.639-14.139,37.182-26.1,37.164-11.427-.018-26.014-18.6-25.987-37.243s11.711-33.73,26.092-33.709,26.02,15.149,25.992,33.787" transform="translate(-34.23 -7.044)" fill="#ffbd95"/>
        <path id="Path_467" data-name="Path 467" d="M498.921,140.05c-1.151-2.03-5.027-10.658-4.175-14.545s1.807-12.133,6.954-14.867c1.094-.581,4.35-.076,4.647-3.644.456-5.467,11.263-5.7,12.442-5.8a52.749,52.749,0,0,1,11.665.017c4.225.684,12.563,2.82,20.583,16.938,1.5,2.635,3.722,9.641,3.383,10.656s-2.212,9.463-2.383,10.14a16.667,16.667,0,0,1-1.389,2.6s-7-17.811-7.167-19.5-35.668-2.251-37.868-1.072-6.692,19.08-6.692,19.08" transform="translate(-33.913 -6.916)" fill="#8d3b26"/>
        <path id="Path_468" data-name="Path 468" d="M370.3,39.379l.012,0a2.437,2.437,0,0,1,2.975,1.7l2.755,10.008a2.432,2.432,0,0,1-1.7,2.987l-.012,0a2.437,2.437,0,0,1-2.975-1.7L368.6,42.366a2.432,2.432,0,0,1,1.7-2.987" transform="translate(-25.266 -2.694)" fill="#ffa47c"/>
        <path id="Path_469" data-name="Path 469" d="M374.884,37.641l.012,0a2.437,2.437,0,0,1,2.975,1.7l2.756,10.009a2.432,2.432,0,0,1-1.7,2.986l-.012,0a2.437,2.437,0,0,1-2.975-1.7L373.18,40.628a2.433,2.433,0,0,1,1.7-2.987" transform="translate(-25.581 -2.575)" fill="#ffa47c"/>
        <path id="Path_470" data-name="Path 470" d="M379.443,36.219l.012,0a2.436,2.436,0,0,1,2.975,1.7l2.756,10.008a2.433,2.433,0,0,1-1.7,2.987l-.012,0a2.437,2.437,0,0,1-2.975-1.7L377.739,39.2a2.431,2.431,0,0,1,1.7-2.986" transform="translate(-25.893 -2.477)" fill="#ffa47c"/>
        <path id="Path_471" data-name="Path 471" d="M383.971,35.265l.012,0a2.436,2.436,0,0,1,2.975,1.7l2.756,10.008a2.433,2.433,0,0,1-1.7,2.987l-.012,0a2.437,2.437,0,0,1-2.975-1.7l-2.756-10.008a2.432,2.432,0,0,1,1.7-2.987" transform="translate(-26.204 -2.412)" fill="#ffa47c"/>
        <path id="Path_472" data-name="Path 472" d="M389.726,71.451s2.551-16.988,2.067-20.305S385.5,36.078,385.5,36.078s-3.159,4.989-6.139,5.375-10.761.677-10.761.677.092,11.385,1.809,16.4a52.944,52.944,0,0,0,4.559,9.555Z" transform="translate(-25.273 -2.474)" fill="#ffa47c"/>
        <path id="Path_473" data-name="Path 473" d="M580.582,253.79s6.912-16.079,12.734-23.533c5.68-7.273,35.029-48.813,35.029-48.813s-21.2-23.816-22.553-24.589-39.651,40.88-39.651,40.88,3.646,47.237,14.442,56.055" transform="translate(-38.817 -10.754)" fill="#cee0ff"/>
        <path id="Path_474" data-name="Path 474" d="M633.114,152.826c6.529,2.89,13.422,1.847,22.471-15.995s24.657-61.907,24.657-61.907l-10.561-4.677s-26.209,31.179-31.55,40.649-22.106,34.362-5.017,41.93" transform="translate(-42.895 -4.816)" fill="#ffa47c"/>
        <path id="Path_475" data-name="Path 475" d="M691.885,47.157l-.011,0a2.436,2.436,0,0,0-3.162,1.317l-3.974,9.59a2.434,2.434,0,0,0,1.322,3.175l.012,0a2.436,2.436,0,0,0,3.162-1.317l3.974-9.59a2.433,2.433,0,0,0-1.323-3.175" transform="translate(-46.936 -3.221)" fill="#ffa47c"/>
        <path id="Path_476" data-name="Path 476" d="M687.555,44.865l-.011,0a2.436,2.436,0,0,0-3.162,1.316l-3.973,9.592a2.432,2.432,0,0,0,1.322,3.174l.011,0a2.437,2.437,0,0,0,3.162-1.317l3.974-9.591a2.433,2.433,0,0,0-1.323-3.174" transform="translate(-46.639 -3.063)" fill="#ffa47c"/>
        <path id="Path_477" data-name="Path 477" d="M683.207,42.89l-.012,0a2.435,2.435,0,0,0-3.161,1.316l-3.974,9.591a2.431,2.431,0,0,0,1.321,3.174l.012,0a2.437,2.437,0,0,0,3.162-1.316l3.974-9.591a2.434,2.434,0,0,0-1.323-3.175" transform="translate(-46.341 -2.928)" fill="#ffa47c"/>
        <path id="Path_478" data-name="Path 478" d="M678.832,41.383l-.012,0a2.435,2.435,0,0,0-3.161,1.317l-3.974,9.59a2.431,2.431,0,0,0,1.321,3.175l.012,0a2.437,2.437,0,0,0,3.162-1.317l3.974-9.59a2.433,2.433,0,0,0-1.322-3.175" transform="translate(-46.041 -2.825)" fill="#ffa47c"/>
        <path id="Path_479" data-name="Path 479" d="M667.441,76.45s-.429-17.175.462-20.406,8.109-14.172,8.109-14.172,2.518,5.342,5.427,6.093,10.594,2,10.594,2-1.5,11.286-3.824,16.048a52.93,52.93,0,0,1-5.707,8.917Z" transform="translate(-45.755 -2.871)" fill="#ffa47c"/>
        <path id="Path_480" data-name="Path 480" d="M551.1,634.974s-2.7,13.781-.6,19.737c.563,1.594,39.679,6.2,45.432,4.036s10.5-4.355,10.5-4.355-1.1-5.913-3.637-6.192-26.456-7.186-28.929-10.685-4.481-9.088-5.916-7.071-9.845,5.854-16.852,4.531" transform="translate(-37.69 -43.196)" fill="#375987"/>
        <path id="Path_481" data-name="Path 481" d="M595.939,659.112c3.213-1.211,6.076-2.413,8.008-3.252-3.88.874-7.462,1.467-9.11,1.164-4.521-.834-20.037-5.862-30.307-9.325a16.944,16.944,0,0,1-11.513-12.17,15.856,15.856,0,0,1-1.914-.191s-2.7,13.781-.6,19.736c.563,1.595,39.679,6.2,45.432,4.037" transform="translate(-37.69 -43.561)" fill="#00233f"/>
        <path id="Path_482" data-name="Path 482" d="M606.417,655.945s-9.818,4.6-12.1,4.742c-1.6.1-24.1-5.346-36.454-6.678-3.62-.391-6.7-1.159-8.155-1.318-.669-.074.154,3.756.154,3.756l1.033,2.731s41.931,3.919,43.4,3.817,13.727-5.143,13.727-5.143Z" transform="translate(-37.672 -44.751)" fill="#22272c"/>
        <path id="Path_483" data-name="Path 483" d="M509.183,645.451l-16.583-.834s-.361,3.845-4.464,10.259c-2.842,4.441-7.2,9.025-7.049,12.543.095,2.276,1.2,4.657,3.328,4.924,5.511.692,16,1.437,18.9-.554,2.655-1.821,4.54-5.621,6.177-8.075,1.738-2.605,1.021-6.911.911-9.077-.129-2.5-1.224-9.187-1.224-9.187" transform="translate(-32.985 -44.197)" fill="#22272c"/>
        <path id="Path_484" data-name="Path 484" d="M509.183,643.467l-16.583-.833s-.361,3.844-4.464,10.258c-2.842,4.442-7.2,9.025-7.049,12.544.095,2.276,1.052,4.13,3.18,4.4,5.511.692,16,1.4,18.9-.594,2.656-1.821,4.218-4.909,5.855-7.362,1.738-2.606,1.492-7.057,1.382-9.222-.129-2.5-1.224-9.188-1.224-9.188" transform="translate(-32.985 -44.061)" fill="#375987"/>
        <path id="Path_485" data-name="Path 485" d="M497.393,639.923c-1.916,1.148-2.864,12-2.864,12.646s3.413.947,4.651.732c5.136-.891,7.111-9.609,5.954-12.191-.826-1.845-6.065-2.19-7.74-1.188" transform="translate(-33.907 -43.838)" fill="#375987"/>
        <path id="Path_486" data-name="Path 486" d="M510.407,652.793c-.1-1.892-.747-6.169-1.057-8.145.148,1.154.268,2.23.306,2.95.111,2.166.357,6.616-1.382,9.221-1.637,2.454-3.2,5.541-5.854,7.362-2.9,1.991-13.393,1.287-18.9.594a3.127,3.127,0,0,1-2.078-1.173,5.735,5.735,0,0,0-.349,1.971c.1,2.276,1.051,4.13,3.179,4.4,5.511.692,16,1.4,18.9-.6,2.655-1.82,4.218-4.908,5.854-7.361,1.739-2.606,1.493-7.057,1.382-9.222" transform="translate(-32.985 -44.199)" fill="#00233f"/>
        <path id="Path_487" data-name="Path 487" d="M519.7,501.342H479.724a1.9,1.9,0,0,1-1.9-1.9v-8.5a1.9,1.9,0,0,1,1.9-1.9H519.7a1.9,1.9,0,0,1,1.9,1.9v8.5a1.9,1.9,0,0,1-1.9,1.9" transform="translate(-32.762 -33.531)" fill="#002d56"/>
        <path id="Path_488" data-name="Path 488" d="M584.294,501.709H544.375a1.941,1.941,0,0,1-1.941-1.942l-2.017-8.416a1.942,1.942,0,0,1,1.942-1.941h41.935a1.942,1.942,0,0,1,1.942,1.941v8.416a1.942,1.942,0,0,1-1.942,1.942" transform="translate(-37.053 -33.556)" fill="#002d56"/>
        <path id="Path_489" data-name="Path 489" d="M522.143,96.391c7.577-1.19,27.384,1.286,27.33,16.735-.018,5.221-3.857,6.462-3.857,6.462s-.982-4.738-8.728-6.352-12.677,7.538-19.533,6.922-10.685.566-11.782-4.012,7.826-18.383,16.569-19.756" transform="translate(-34.658 -6.591)" fill="#8d3b26"/>
        <path id="Path_490" data-name="Path 490" d="M544.705,116.657s6.69.026,8.588,3.212a6.681,6.681,0,0,1,.659,5.9,11.343,11.343,0,0,0,3.422-6.149c1.437-8.522-6.26-11.3-6.26-11.3Z" transform="translate(-37.347 -7.427)" fill="#8d3b26"/>
        <path id="Path_491" data-name="Path 491" d="M283.488,436.971s23.82-11.646,46.219-12.893S296.387,281.8,296.387,281.8Z" transform="translate(-19.437 -19.321)" fill="#5b0000"/>
        <path id="Path_492" data-name="Path 492" d="M418.514,542.131c-4.653-2.776-19.757-5.051-37.241,25.691s-31.436,81.946-31.436,81.946l13.036,4.641s38.911-53.012,45.371-63.78c14.7-24.5,24.968-39.728,10.269-48.5" transform="translate(-23.986 -37.068)" fill="#ffa47c"/>
        <path id="Path_493" data-name="Path 493" d="M348.962,657.845s-6.633,12.42-6.367,18.747c.071,1.694,36.22,17.6,42.371,17.214s11.343-1.094,11.343-1.094.681-5.992-1.668-7-23.255-14.661-24.6-18.741-1.628-10.03-3.594-8.517-11.158,2.722-17.487-.605" transform="translate(-23.489 -45.104)" fill="#cee0ff"/>
        <path id="Path_494" data-name="Path 494" d="M384.965,693.8c3.436-.217,6.533-.53,8.634-.766-3.977-.3-7.586-.784-9.077-1.56-4.09-2.126-17.49-11.5-26.318-17.84a16.993,16.993,0,0,1-7.465-15.05,15.643,15.643,0,0,1-1.778-.745s-6.634,12.42-6.368,18.748c.071,1.693,36.22,17.6,42.372,17.213" transform="translate(-23.489 -45.104)" fill="#b7a994"/>
        <path id="Path_495" data-name="Path 495" d="M396.26,693.822s-10.765,1.527-13,.991c-1.565-.375-21.537-12.2-32.988-17.11-3.356-1.437-6.079-3.077-7.431-3.659-.62-.266-.957,3.647-.957,3.647l.189,2.921s39.05,16.072,40.492,16.408,14.672-.9,14.672-.9Z" transform="translate(-23.441 -46.214)" fill="#22272c"/>
        <path id="Path_496" data-name="Path 496" d="M390.627,326.959c4.223-24.107,18.017-66.37,5.676-71.628-16.084-6.855-59.474-6.3-59.474-6.3l.1.731s-42.462,9.7-56,20.771c-10.386,8.488,15.274,47.081,26.047,69.057,2.585,5.274,10.57,29.542,13.006,51.621.6,5.448,1.7,30.7,3.913,40.9.661,3.044,35.314,15.091,47.893,15.512,9.859.33,41.785-25.866,41.573-28.973-.715-10.414-10.616-34.418-11.557-39.817-3.811-21.885-12.191-46.1-11.177-51.881" transform="translate(-19.095 -17.074)" fill="#ffbd95"/>
        <path id="Path_497" data-name="Path 497" d="M296.732,291.779c6.747-5.653,5.62-17.976-5.11-30.372s-19.407-19.673-22.278-22.825c-2.963-3.254-18.725-23.378-23.794-28.069s-12.424-6.392-17.709-1.816c-4.421,3.826-2.972,16.369,2.942,26.7s47.826,71.564,65.949,56.381" transform="translate(-15.445 -14.125)" fill="#ffbd95"/>
        <path id="Path_498" data-name="Path 498" d="M355.748,237.105c-1.6-4.251-7.121-25.605-7.121-25.605l-14.386,2.045.1.731-14.386,2.044s.647,22.048.3,26.575S309,255.729,309,255.729l63.578-7.964s-15.235-6.41-16.834-10.66" transform="translate(-21.186 -14.501)" fill="#ffbd95"/>
        <path id="Path_499" data-name="Path 499" d="M353.908,231.127c-1.856-6.516-4.293-15.824-5.047-18.719l-1.056-.783-13.563,1.928.1.731-14.386,2.045s.647,22.048.3,26.575-11.25,12.834-11.25,12.834l1.446-.206c13.145-5.583,26.214-11.146,27.968-11.931,3.665-1.64,15.489-12.473,15.489-12.473Z" transform="translate(-21.187 -14.51)" fill="#ffa47c"/>
        <path id="Path_500" data-name="Path 500" d="M350.874,408.86c-17.727-.395-24.86,11.838-25.1,49.767s6.758,87.814,9.108,93.771,23.887,3.7,26.416.3,11.649-87.748,11.885-100.06-3-43.351-22.312-43.781" transform="translate(-22.336 -28.032)" fill="#ffbd95"/>
        <path id="Path_501" data-name="Path 501" d="M346.844,553.24c-5.418-.007-18.1,7.264-17.417,42.623s15.032,87.194,15.032,87.194l12.807.02s6.95-68.839,7-81.4c.113-28.568-.306-48.415-17.423-48.44" transform="translate(-22.585 -37.932)" fill="#ffbd95"/>
        <path id="Path_502" data-name="Path 502" d="M396.18,412.894c17.595-2.2,25.937,9.245,30.035,46.953s2.769,82.9,1.039,89.066-22.718,6.029-25.581,2.9-21.741-80.872-23.23-93.1-1.43-43.432,17.736-45.828" transform="translate(-25.908 -28.292)" fill="#ffa47c"/>
        <path id="Path_503" data-name="Path 503" d="M389.5,279.437c-7.352-4.841-7.645-17.212,1.592-30.758s17.021-21.77,19.511-25.23c2.571-3.572,15.918-25.373,20.415-30.614s11.608-7.776,17.383-3.838c4.83,3.294,4.832,15.92.143,26.864s-39.3,76.579-59.044,63.575" transform="translate(-26.333 -12.827)" fill="#ffbd95"/>
        <path id="Path_504" data-name="Path 504" d="M234.061,223.055c-6.546,2.9-13.456,1.856-22.539-16.028s-24.75-62.064-24.75-62.064l10.587-4.694s26.294,31.252,31.654,40.746,22.181,34.445,5.048,42.041" transform="translate(-12.806 -9.617)" fill="#ffbd95"/>
        <path id="Path_505" data-name="Path 505" d="M359.086,189.466c3.493,18.36-6.9,39.285-18.682,41.526-11.255,2.14-29.132-13.408-32.623-31.768s5.161-35.429,19.329-38.123,28.483,10,31.975,28.364" transform="translate(-21.05 -11.021)" fill="#ffbd95"/>
        <path id="Path_506" data-name="Path 506" d="M308.085,202.753c-1.517-1.781-6.962-9.546-6.858-13.535s-.51-12.29,4.041-15.955c.968-.778,4.27-.9,3.889-4.465-.584-5.469,10.014-7.742,11.157-8.06a52.958,52.958,0,0,1,11.491-2.185c4.29-.126,12.906.4,23.468,12.792,1.973,2.313,5.485,8.792,5.343,9.855s-.391,9.737-.431,10.436a16.629,16.629,0,0,1-.877,2.819S349.05,178.238,348.567,176.6s-35.551,4.519-37.495,6.1-2.987,20.053-2.987,20.053" transform="translate(-20.653 -10.87)" fill="#8d3b26"/>
        <path id="Path_507" data-name="Path 507" d="M182.668,115.908l.012,0a2.443,2.443,0,0,1,2.984,1.7l2.774,10.033a2.439,2.439,0,0,1-1.706,3l-.012,0a2.441,2.441,0,0,1-2.984-1.7L180.962,118.9a2.439,2.439,0,0,1,1.706-3" transform="translate(-12.401 -7.941)" fill="#ffbd95"/>
        <path id="Path_508" data-name="Path 508" d="M187.259,114.16l.011,0a2.444,2.444,0,0,1,2.985,1.7l2.774,10.033a2.439,2.439,0,0,1-1.706,3l-.012,0a2.442,2.442,0,0,1-2.984-1.7l-2.775-10.032a2.44,2.44,0,0,1,1.707-3" transform="translate(-12.716 -7.821)" fill="#ffbd95"/>
        <path id="Path_509" data-name="Path 509" d="M191.83,112.73l.011,0a2.443,2.443,0,0,1,2.985,1.7l2.774,10.033a2.438,2.438,0,0,1-1.706,3l-.012,0a2.441,2.441,0,0,1-2.984-1.7l-2.775-10.032a2.44,2.44,0,0,1,1.707-3" transform="translate(-13.03 -7.723)" fill="#ffbd95"/>
        <path id="Path_510" data-name="Path 510" d="M196.369,111.769l.012,0a2.441,2.441,0,0,1,2.983,1.7l2.775,10.032a2.439,2.439,0,0,1-1.706,3l-.012,0a2.444,2.444,0,0,1-2.985-1.7l-2.772-10.033a2.437,2.437,0,0,1,1.705-3" transform="translate(-13.341 -7.657)" fill="#ffbd95"/>
        <path id="Path_511" data-name="Path 511" d="M202.177,148.047s2.54-17.038,2.052-20.363-6.325-15.1-6.325-15.1-3.162,5-6.15,5.395-10.789.689-10.789.689.1,11.417,1.829,16.441a53.051,53.051,0,0,0,4.582,9.575Z" transform="translate(-12.408 -7.719)" fill="#ffbd95"/>
        <path id="Path_512" data-name="Path 512" d="M442.525,204.077c6.543,2.906,13.456,1.867,22.549-16.013s24.793-62.048,24.793-62.048l-10.585-4.7S452.968,152.55,447.6,162.039s-22.2,34.43-5.076,42.038" transform="translate(-29.827 -8.318)" fill="#ffbd95"/>
        <path id="Path_513" data-name="Path 513" d="M502.433,102.479l-.011-.006a2.442,2.442,0,0,0-3.28,1.019l-4.864,9.2a2.439,2.439,0,0,0,1.022,3.294l.011,0a2.442,2.442,0,0,0,3.28-1.018l4.865-9.2a2.438,2.438,0,0,0-1.023-3.294" transform="translate(-33.87 -7.007)" fill="#ffbd95"/>
        <path id="Path_514" data-name="Path 514" d="M498.325,99.785l-.011-.007a2.443,2.443,0,0,0-3.28,1.019l-4.865,9.2a2.439,2.439,0,0,0,1.024,3.294l.01.006a2.443,2.443,0,0,0,3.281-1.019l4.865-9.2a2.439,2.439,0,0,0-1.024-3.294" transform="translate(-33.589 -6.822)" fill="#ffbd95"/>
        <path id="Path_515" data-name="Path 515" d="M494.169,97.406l-.011,0a2.442,2.442,0,0,0-3.28,1.018l-4.865,9.2a2.439,2.439,0,0,0,1.023,3.294l.011.006a2.443,2.443,0,0,0,3.28-1.018l4.865-9.2a2.44,2.44,0,0,0-1.023-3.294" transform="translate(-33.304 -6.659)" fill="#ffbd95"/>
        <path id="Path_516" data-name="Path 516" d="M489.942,95.492l-.011-.006a2.441,2.441,0,0,0-3.28,1.019l-4.865,9.2A2.439,2.439,0,0,0,482.809,109l.011,0a2.442,2.442,0,0,0,3.28-1.018l4.864-9.2a2.438,2.438,0,0,0-1.022-3.294" transform="translate(-33.014 -6.528)" fill="#ffbd95"/>
        <path id="Path_517" data-name="Path 517" d="M475.141,129.451s1.179-17.186,2.371-20.328,9.422-13.389,9.422-13.389,2.013,5.567,4.847,6.59,10.389,2.992,10.389,2.992-2.554,11.128-5.319,15.664a53.079,53.079,0,0,1-6.532,8.367Z" transform="translate(-32.577 -6.564)" fill="#ffbd95"/>
        <path id="Path_518" data-name="Path 518" d="M357.832,693.459l-16.628-.836s-.362,3.855-4.476,10.287c-2.85,4.453-7.216,9.049-7.069,12.576.1,2.284,1.2,4.67,3.336,4.938,5.527.695,16.044,1.442,18.956-.555,2.661-1.826,4.552-5.635,6.194-8.1,1.744-2.612,1.025-6.929.913-9.1-.129-2.507-1.227-9.213-1.227-9.213" transform="translate(-22.602 -47.489)" fill="#22272c"/>
        <path id="Path_519" data-name="Path 519" d="M357.832,691.469l-16.628-.836s-.362,3.855-4.476,10.286c-2.85,4.454-7.216,9.05-7.069,12.577.1,2.283,1.053,4.142,3.187,4.409,5.527.694,16.044,1.4,18.956-.6,2.661-1.826,4.229-4.922,5.871-7.382,1.744-2.613,1.5-7.075,1.385-9.247-.129-2.507-1.227-9.212-1.227-9.212" transform="translate(-22.602 -47.352)" fill="#cee0ff"/>
        <path id="Path_520" data-name="Path 520" d="M346.011,687.916c-1.922,1.15-2.872,12.037-2.872,12.68s3.421.95,4.663.735c5.15-.894,7.129-9.635,5.97-12.223-.828-1.851-6.082-2.2-7.761-1.191" transform="translate(-23.527 -47.128)" fill="#cee0ff"/>
        <path id="Path_521" data-name="Path 521" d="M359.059,700.821c-.1-1.9-.748-6.187-1.06-8.167.149,1.157.269,2.236.306,2.958.112,2.171.359,6.634-1.385,9.246-1.641,2.461-3.209,5.556-5.871,7.382-2.912,2-13.428,1.29-18.956.6a3.135,3.135,0,0,1-2.084-1.175,5.738,5.738,0,0,0-.35,1.976c.094,2.282,1.053,4.14,3.187,4.408,5.527.695,16.044,1.4,18.956-.6,2.662-1.827,4.23-4.922,5.871-7.382,1.743-2.614,1.5-7.076,1.385-9.247" transform="translate(-22.603 -47.491)" fill="#b7a994"/>
        <path id="Path_522" data-name="Path 522" d="M325.915,164.084c7.157-1.353,25.994.21,26.292,14.318.1,4.768-8.715,10.043-8.715,10.043s4.165-8.3-3.216-9.5-11.85,7.329-18.364,7.01-10.119.893-11.262-3.247,7.006-17.063,15.265-18.625" transform="translate(-21.292 -11.223)" fill="#8d3b26"/>
        <path id="Path_523" data-name="Path 523" d="M348.821,179.022s4.268,4.065,4.272,7.727-1.82,5.058-1.82,5.058a7.2,7.2,0,0,0,4.523-2.786c2.649-3.473,1.358-10.2,1.358-10.2Z" transform="translate(-23.916 -12.26)" fill="#8d3b26"/>
        <path id="Path_524" data-name="Path 524" d="M323.582,408.693s-.22,27.943,0,45.554S329,533.4,329,533.4h36.941l8.779-75.091-5.453-51.76Z" transform="translate(-22.179 -27.874)" fill="#002d56"/>
        <path id="Path_525" data-name="Path 525" d="M409.959,394.655l-37.327,11.074,5.453,51.759L391.3,529.253l39.826-1.386s-1.082-51.536-4.207-71.8a287.21,287.21,0,0,0-16.956-61.416" transform="translate(-25.549 -27.059)" fill="#00233f"/>
        <path id="Path_526" data-name="Path 526" d="M320.659,397.732s-6.875-32.836-13.584-49.565-16.492-46.619-24.315-51.194,10.9-34.79,10.9-34.79l17.15-7.15s16.583,10.291,29.889,8.629,22.6-16.98,22.6-16.98,20.72,7.63,20.72,6.083,17.558,25.622,15.895,30.675-5.577,32.806-4.329,46.223,8.081,54.845,8.081,54.845-11.685,7.858-37.327,11.074a285.614,285.614,0,0,1-45.68,2.149" transform="translate(-19.256 -16.914)" fill="#cee0ff"/>
        <path id="Path_527" data-name="Path 527" d="M349.881,352.652c2.9-11.826,45.748-24.764,41.174-30.131s-37.839,7.446-58.062,6.2-31.768-16.633-31.768-16.633l2.58,28.434c1.661,4.388,3.236,8.565,4.666,12.131,6.71,16.729,13.585,49.565,13.585,49.565a285.551,285.551,0,0,0,45.681-2.148s-20.758-35.59-17.856-47.417" transform="translate(-20.653 -21.398)" fill="#b8d1ff"/>
        <path id="Path_528" data-name="Path 528" d="M254.17,219.108s33.036,35.666,34.7,35.423,4.539-1.993,4.99,1.086S309.923,251,309.923,251s8.945,36.141,7.459,64-18.773,81.082-20.732,100.21-1.959,22.87-1.959,22.87l-14.554-3.61s-.57-131.113-4.651-136.934-40.982-51.389-40.982-51.389,10.362-4.682,16.148-10.951,3.517-16.083,3.517-16.083" transform="translate(-16.079 -15.023)" fill="#7e0000"/>
        <path id="Path_529" data-name="Path 529" d="M369.369,244.119s14.821,20.944,17.732,71.354,9.149,113.613,9.149,113.613l27.859-7.484S409.085,290.914,409.736,284.53,431.176,249.412,437,242.989a34.9,34.9,0,0,0,7.564-13.966s-10.89-14.618-19.623-17.676-10.811-1.809-10.811-1.809-19.959,29.357-20.79,28.192-4.159-1.746-4.159,0-2.079,6.985-2.911,4.366-4.99-.168-6.237.893-10.663,1.13-10.663,1.13" transform="translate(-25.325 -14.349)" fill="#7e0000"/>
        <path id="Path_530" data-name="Path 530" d="M366.506,549.747H329.36a2.12,2.12,0,0,1-2.113-2.113V537.7a2.12,2.12,0,0,1,2.113-2.113h37.146a2.12,2.12,0,0,1,2.113,2.113v9.93a2.12,2.12,0,0,1-2.113,2.113" transform="translate(-22.437 -36.722)" fill="#375987"/>
        <path id="Path_531" data-name="Path 531" d="M431.842,549.747H391.933a2.193,2.193,0,0,1-2.187-2.186v-9.785a2.193,2.193,0,0,1,2.187-2.186h39.909a2.193,2.193,0,0,1,2.187,2.186v9.785a2.193,2.193,0,0,1-2.187,2.186" transform="translate(-26.722 -36.722)" fill="#375987"/>
        <path id="Path_532" data-name="Path 532" d="M706.991,152.094s9.341-12.916,19.162-4.992,8.932,24.611,3.96,29.759-13.591,27.994-11.994,28.37-.555,4.247-4.183,3.546-13.7-5.284-9.883-16.627a36.371,36.371,0,0,0,1.113-20.335Z" transform="translate(-48.214 -9.91)" fill="#8d3b26"/>
        <path id="Path_533" data-name="Path 533" d="M663.182,683.161s-3.634,6.313-3.428,10.84,3.488,15.155,6.976,15.549,10.472-7.029,11.421-8.267c5.916-7.716,6.258-23.714,6.258-23.714Z" transform="translate(-45.235 -46.457)" fill="#8d3b26"/>
        <path id="Path_534" data-name="Path 534" d="M671.968,514.509c10.569-.006,14.544,6.331,15.337,35.967s-2.551,110.186-5.456,110.693-14.458,1.449-13.613-8.294c.573-6.6-2.969-14.341-5.516-29.308-4.386-25.763-9.381-58.71-9.549-64.8-.264-9.625,1.89-44.251,18.8-44.259" transform="translate(-44.782 -35.277)" fill="#ffbd95"/>
        <path id="Path_535" data-name="Path 535" d="M732.044,516.719c-10.055,3.26-11.879,10.515-3.478,38.946s36.459,104.01,39.377,103.6,14.068-1.3,10.477-10.393c-2.406-6.092-2.211-20.145-4.892-37.99-3.685-24.53-8.362-52.522-9.937-57.868-2.722-9.236-15.465-41.5-31.548-36.291" transform="translate(-49.588 -35.389)" fill="#ffbd95"/>
        <path id="Path_536" data-name="Path 536" d="M658.157,242.7c5.223-5.169-6.949-25.116-24.361-41.968-30.264-29.291-35.805-43.248-45.887-34.947-9.146,7.533,2.66,20,25.057,48.421,17.51,22.217,34.375,39.2,45.191,28.494" transform="translate(-40.096 -11.204)" fill="#ffa47c"/>
        <path id="Path_537" data-name="Path 537" d="M641.194,392.852c-5.11,9.317-4.874,26.1-2.333,47.922,3.463,29.753,16.981,73.225,18.19,77.45,5.514,19.275,24.625,18.467,27.53,3.152.8-4.223,4.248-88.919,3.192-98.424s-2.113-26.932-8.977-37.494c-5.11-7.861-29.983-6.5-37.6,7.394" transform="translate(-43.682 -26.1)" fill="#ffbd95"/>
        <path id="Path_538" data-name="Path 538" d="M743.322,231.372c-2.727-6.147-20.3-9.377-26.77-11.3-6.6-1.967-26.139-2.64-26.139-2.64s-19.536.672-26.14,2.64c-6.466,1.928-24.042,5.158-26.769,11.3-4.123,9.291,24.186,68.9,20.492,103.165-1.226,11.373-21.53,44.231-18.672,55.308,3.494,13.538,48.45,21.915,48.45,21.915h5.28s44.956-8.376,48.45-21.915c2.859-11.077-18.089-43.459-18.056-54.9.174-60.153,24-94.284,19.876-103.575" transform="translate(-43.681 -14.908)" fill="#ffa47c"/>
        <path id="Path_539" data-name="Path 539" d="M740.225,385.939c6.771,8.191,9.693,24.717,11.3,46.63,2.189,29.874-2.919,75.111-3.313,79.489-1.794,19.967-20.716,22.765-26.447,8.268-1.58-4-20.882-86.536-21.631-96.07s-2.986-26.85,1.773-38.512c3.541-8.682,28.226-12.018,38.32.2" transform="translate(-47.923 -25.914)" fill="#ffbd95"/>
        <path id="Path_540" data-name="Path 540" d="M706.539,204.847c-1.979-5.149-1.782-24.555-1.782-24.555H680.069s.2,19.406-1.782,24.555-12.015,12.674-12.015,12.674h52.28S708.519,210,706.539,204.847" transform="translate(-45.682 -12.362)" fill="#ffa47c"/>
        <path id="Path_541" data-name="Path 541" d="M596.451,176.321c5.865-3.3,4.014-17.328-4.259-37.17-9.816-23.548-22.689-54.12-28.172-51.73-2.567,1.12-3.224,4.962-1.139,9.938,4.374,10.44,6.461,30.043,9.95,45.83,5.38,24.343,12.336,39.486,23.62,33.131" transform="translate(-38.508 -5.985)" fill="#ffa47c"/>
        <path id="Path_542" data-name="Path 542" d="M725.224,250.2c-4.684-4.938,8.386-24.2,26.294-40.526,31.129-28.368,37.406-41.829,46.559-33.909,8.307,7.188-3.907,19.259-27.4,46.737-18.364,21.482-35.755,37.924-45.457,27.7" transform="translate(-49.658 -11.898)" fill="#ffa47c"/>
        <path id="Path_543" data-name="Path 543" d="M789.624,181.791c-5.671-3.349-1.161-21.43,13.042-40.4,16.369-21.859,39.362-53.5,44.223-50.255,6.636,4.432-11.427,32.766-22.727,57.213-11.445,24.765-22.794,40.373-34.538,33.438" transform="translate(-53.976 -6.233)" fill="#ffa47c"/>
        <path id="Path_544" data-name="Path 544" d="M706.539,204.847s-1.505-11.339-1.505-11.36c-.188-3.626-.253-7.264-.273-9.806l0-.035L693.5,180.292H680.069s.2,19.406-1.782,24.555-12.015,12.674-12.015,12.674,16.953-4.207,20.134-5.335,20.132-7.339,20.132-7.339" transform="translate(-45.682 -12.362)" fill="#ffa47c"/>
        <path id="Path_545" data-name="Path 545" d="M714.994,166.24c-3.966,18.985-23.463,30.974-33.155,28.95-9.435-1.971-18.972-20.163-16.773-39.708,2.168-19.273,16.193-29.2,30.539-26.2s23.354,17.973,19.39,36.958" transform="translate(-45.577 -8.828)" fill="#ffbd95"/>
        <path id="Path_546" data-name="Path 546" d="M681.454,141.7c1.841,5.457,6.988,8.96,18.584,10.462,8.3,1.075,13.13,12.888,12.815,17.465-.12,1.749-2.528,10.084-2.528,10.084s18.725-16.383,3.73-39.194-35.213-11.249-35.455-9.545,1.966,8.1,2.854,10.728" transform="translate(-46.526 -8.676)" fill="#8d3b26"/>
        <path id="Path_547" data-name="Path 547" d="M685.461,137.735s-.373,8.021-7.283,9.3-13.766,6.658-13.766,6.658-.417-19.078,13.216-22.448,7.832,6.491,7.832,6.491" transform="translate(-45.554 -8.95)" fill="#8d3b26"/>
        <path id="Path_548" data-name="Path 548" d="M668.895,663.059s-6.13,19.909-6.13,22.272,2.554,11.416,5.882,11.416c9.3,0,16.485-16.313,16.037-21.947s-.834-11.741-.834-11.741Z" transform="translate(-45.442 -45.462)" fill="#ffbd95"/>
        <path id="Path_549" data-name="Path 549" d="M792.22,674.662s5.405,4.883,6.608,9.251,1.364,15.493-1.832,16.944-12.13-3.45-13.416-4.335C775.569,691.011,770.3,675.9,770.3,675.9Z" transform="translate(-52.815 -46.257)" fill="#8d3b26"/>
        <path id="Path_550" data-name="Path 550" d="M780.827,656.978s11.979,17.042,12.708,19.288,1.1,11.648-2.068,12.675c-8.846,2.874-20.718-10.424-22.032-15.92S766.6,661.6,766.6,661.6Z" transform="translate(-52.561 -45.045)" fill="#ffbd95"/>
        <path id="Path_551" data-name="Path 551" d="M557.207,73.947l.008,0a1.948,1.948,0,0,1,2.417,1.283l2.44,7.923a1.942,1.942,0,0,1-1.288,2.425l-.009,0a1.946,1.946,0,0,1-2.416-1.284l-2.441-7.923a1.942,1.942,0,0,1,1.289-2.425" transform="translate(-38.11 -5.064)" fill="#ffa47c"/>
        <path id="Path_552" data-name="Path 552" d="M560.822,72.449l.009,0a1.945,1.945,0,0,1,2.416,1.284l2.441,7.924a1.943,1.943,0,0,1-1.289,2.425l-.009,0a1.945,1.945,0,0,1-2.415-1.284l-2.442-7.923a1.943,1.943,0,0,1,1.289-2.425" transform="translate(-38.358 -4.961)" fill="#ffa47c"/>
        <path id="Path_553" data-name="Path 553" d="M564.427,71.2l.008,0a1.947,1.947,0,0,1,2.417,1.284l2.441,7.923A1.943,1.943,0,0,1,568,82.833l-.01,0a1.945,1.945,0,0,1-2.415-1.284l-2.441-7.923a1.942,1.942,0,0,1,1.289-2.425" transform="translate(-38.605 -4.876)" fill="#ffa47c"/>
        <path id="Path_554" data-name="Path 554" d="M568.018,70.333l.009,0a1.946,1.946,0,0,1,2.416,1.284l2.441,7.923a1.942,1.942,0,0,1-1.289,2.425l-.009,0a1.945,1.945,0,0,1-2.415-1.284l-2.441-7.923a1.942,1.942,0,0,1,1.288-2.425" transform="translate(-38.851 -4.816)" fill="#ffa47c"/>
        <path id="Path_555" data-name="Path 555" d="M573.492,99.055s1.626-13.623,1.161-16.258-5.387-11.876-5.387-11.876-2.4,4.058-4.772,4.438-8.573.8-8.573.8.347,9.086,1.839,13.046,6.269,11.377,6.269,11.377Z" transform="translate(-38.116 -4.863)" fill="#ffa47c"/>
        <path id="Path_556" data-name="Path 556" d="M859.933,75.179l-.008,0a1.948,1.948,0,0,0-2.526,1.052l-3.173,7.66a1.942,1.942,0,0,0,1.056,2.534l.009,0a1.946,1.946,0,0,0,2.525-1.052l3.173-7.659a1.942,1.942,0,0,0-1.056-2.535" transform="translate(-58.559 -5.145)" fill="#ffa47c"/>
        <path id="Path_557" data-name="Path 557" d="M856.475,73.349l-.009,0A1.947,1.947,0,0,0,853.94,74.4l-3.172,7.659a1.942,1.942,0,0,0,1.055,2.535l.009,0a1.945,1.945,0,0,0,2.525-1.052l3.174-7.659a1.943,1.943,0,0,0-1.056-2.535" transform="translate(-58.322 -5.019)" fill="#ffa47c"/>
        <path id="Path_558" data-name="Path 558" d="M853,71.771l-.008,0a1.947,1.947,0,0,0-2.526,1.053l-3.173,7.658a1.943,1.943,0,0,0,1.056,2.536l.008,0a1.947,1.947,0,0,0,2.526-1.053l3.173-7.658A1.944,1.944,0,0,0,853,71.771" transform="translate(-58.084 -4.911)" fill="#ffa47c"/>
        <path id="Path_559" data-name="Path 559" d="M849.508,70.568l-.008,0a1.946,1.946,0,0,0-2.526,1.052L843.8,79.275a1.943,1.943,0,0,0,1.056,2.535l.009,0a1.946,1.946,0,0,0,2.525-1.052l3.173-7.659a1.942,1.942,0,0,0-1.056-2.535" transform="translate(-57.844 -4.828)" fill="#ffa47c"/>
        <path id="Path_560" data-name="Path 560" d="M840.412,98.572s-.343-13.715.369-16.3,6.476-11.318,6.476-11.318,2.01,4.265,4.333,4.865,8.461,1.6,8.461,1.6-1.2,9.014-3.054,12.817a131.316,131.316,0,0,1-7.083,11.389Z" transform="translate(-57.616 -4.865)" fill="#ffa47c"/>
        <path id="Path_561" data-name="Path 561" d="M773.15,601.609c-3.685-24.53-9.53-52.764-11.223-58.074-4.951-15.525-12.51-30.717-12.408-31.847.393-4.378,4.192-49.246,2-79.12-1.6-21.914-4.527-38.439-11.3-46.631-10.094-12.213-34.779-8.877-38.32-.195-4.759,11.663-2.521,28.977-1.773,38.512.727,9.269,18.747,86.606,19.971,94.915.839,5.7,3.161,14.713,6.8,27.02,6.11,20.68,21.355,66.5,30.342,89.8a184.531,184.531,0,0,1,18.707-8.362c-.678-7.139-1.312-16.118-2.8-26.015" transform="translate(-47.923 -25.914)" fill="#474747"/>
        <path id="Path_562" data-name="Path 562" d="M686.2,541.3c-.229-8.577.206-14.784.118-19.937-.113-6.655,2.491-89.054,1.451-98.41-1.056-9.505-2.113-26.932-8.978-37.494-5.11-7.861-29.982-6.5-37.6,7.394-5.111,9.317-4.875,26.1-2.334,47.922,3.419,29.37,14.69,71.978,16.192,77.137-4.318,10.917-3.142,25.87-2.982,31.681.168,6.087,5.164,39.034,9.549,64.8,1.821,10.7,2.809,17.676,3.023,23.212a119.052,119.052,0,0,1,20.693,1.517c1.36-23.722,1.472-75.3.869-97.82" transform="translate(-43.682 -26.1)" fill="#474747"/>
        <path id="Path_563" data-name="Path 563" d="M648.615,369.434s15.8,8.774,39.378,7.942a190.038,190.038,0,0,0,44.28-7.28S738.53,382.019,740.9,392s3.662,16.239,3.662,16.239l-47.982,19.9s-.049-4.506-4.418-5.232-4.169,6.461-4.169,6.461l-50.6-20.909s.532-12.341,3.917-21.191,7.309-17.834,7.309-17.834" transform="translate(-43.702 -25.33)" fill="#474747"/>
        <path id="Path_564" data-name="Path 564" d="M690.447,418.048c-5.069-.288-9.956,7.455-11.106,14.653s-.863,86.435,0,92.245-7.188,6.989-6.038,10.711,8.338,12.061,9.775,23.849c1.258,10.319-1.229,67.354-1.868,81.4,2.2.218,4.4.375,6.6.773,1.361-23.722,1.472-75.3.87-97.82-.229-8.577.206-14.784.118-19.937-.1-5.858,1.9-70.374,1.678-92.134.111-1.894.73-6.117,4.141-5.549a4.853,4.853,0,0,1,3.743,2.709s-2.844-10.613-7.913-10.9" transform="translate(-46.156 -28.662)" fill="#303030"/>
        <path id="Path_565" data-name="Path 565" d="M776.412,602.232c-3.685-24.53-9.53-52.764-11.223-58.074-4.951-15.525-12.51-30.717-12.408-31.847.393-4.378,4.192-49.246,2-79.12A229.349,229.349,0,0,0,752,409.471l.047-.02s-.2-.978-.584-2.733c-.226-1.1-.461-2.185-.712-3.226-.6-2.68-1.383-6.134-2.367-10.281-.479-2.017-1.137-4.1-1.85-6.165.1.682,6.716,46.671,4.773,80.917-1.958,34.5-4.781,48.735-4.781,48.735s15.174,36.659,18.7,51.753c2.721,11.642,6.156,46.885,7.589,62.442,2.131-.919,4.262-1.868,6.393-2.645-.677-7.139-1.311-16.118-2.8-26.015" transform="translate(-51.184 -26.537)" fill="#303030"/>
        <path id="Path_566" data-name="Path 566" d="M691.743,252.066c-7.2,0-26.974,3.138-38.585,6.636a21.479,21.479,0,0,0-8.748,5.189c6.915,22.508,15.2,52.1,12.975,72.767-.237,2.191-9.467,26.475-10.253,29.156l40.929,6.066,49.04-2.619c-1.668-4.334-12.229-29.323-12.221-31.956a236.015,236.015,0,0,1,11.442-73.367l0-.045s-3.786-3.815-7.785-5.191c-10.024-3.446-27.7-6.636-36.8-6.636" transform="translate(-44.183 -17.283)" fill="#ff8626"/>
        <path id="Path_567" data-name="Path 567" d="M737.992,264.811s-12.736,27.517-16.4,27.476-49.6-5.781-52.615,0,28.465,13.33,29.542,29.071-8.786,51.395-8.786,51.395l49.041-2.62c-1.668-4.333-12.229-29.323-12.221-31.955a236.01,236.01,0,0,1,11.442-73.367" transform="translate(-45.853 -18.156)" fill="#ff6e26"/>
        <path id="Path_568" data-name="Path 568" d="M653.8,256.522s2.092-2.261,3.354-7.484-.8-26.393-.8-26.393l9.059-2.383s2.78,17.889,6.567,19.774,18.614,9.85,18.614,9.85Z" transform="translate(-44.827 -15.102)" fill="#ff8626"/>
        <path id="Path_569" data-name="Path 569" d="M732.023,256.522s-2.091-2.261-3.353-7.484.8-26.393.8-26.393l-9.059-2.383s-2.779,17.889-6.566,19.774-18.615,9.85-18.615,9.85Z" transform="translate(-47.667 -15.102)" fill="#ff8626"/>
        <rect id="Rectangle_56" data-name="Rectangle 56" width="10.923" height="135.997" transform="translate(444.812 508.096)" fill="#6a6a6a"/>
        <rect id="Rectangle_57" data-name="Rectangle 57" width="10.506" height="135.997" transform="translate(560.157 508.096)" fill="#6a6a6a"/>
        <path id="Path_570" data-name="Path 570" d="M493.857,520.193l-5.605.158-4.585-96.839,5.605-.157Z" transform="translate(-33.162 -29.027)" fill="#6a6a6a"/>
        <path id="Path_571" data-name="Path 571" d="M599.862,520.351l-5.606-.155,4.476-96.841,5.605.155Z" transform="translate(-40.744 -29.027)" fill="#6a6a6a"/>
        <path id="Path_572" data-name="Path 572" d="M600.811,544.257H475.657a8.421,8.421,0,1,1,0-16.841H600.811a8.421,8.421,0,1,1,0,16.841" transform="translate(-32.035 -36.162)" fill="#303030"/>
        <path id="Path_573" data-name="Path 573" d="M593.8,449.066H485.982a11.492,11.492,0,0,1-11.491-11.491v-27.2a11.492,11.492,0,0,1,11.492-11.492H593.8A11.492,11.492,0,0,1,605.3,410.378v27.2A11.492,11.492,0,0,1,593.8,449.066" transform="translate(-32.533 -27.349)" fill="#303030"/>
        <path id="Path_574" data-name="Path 574" d="M519.9,352.988c3.168-7.81-3.32-17.724-17.96-23.388s-25.246-7.922-29.088-9.3c-3.967-1.42-26.333-11.363-32.725-13.052s-13.375.173-15.791,6.416c-2.02,5.22,4.836,15.178,14.478,21.259s72.577,39.042,81.085,18.063" transform="translate(-29.07 -21.026)" fill="#ffbd95"/>
        <path id="Path_575" data-name="Path 575" d="M440.279,321.454c5.024-4.663,6.69-11.168-5.763-26.07S388.77,249.64,388.77,249.64l-8.129,7.542s17.854,35.246,24.26,43.633,22.224,32.843,35.378,20.639" transform="translate(-26.098 -17.116)" fill="#ffbd95"/>
        <path id="Path_576" data-name="Path 576" d="M368.2,238.536l.009-.007a2.338,2.338,0,0,1,3.269.357l6.255,7.759a2.335,2.335,0,0,1-.359,3.282l-.01.007a2.338,2.338,0,0,1-3.268-.358l-6.255-7.758a2.336,2.336,0,0,1,.359-3.283" transform="translate(-25.186 -16.32)" fill="#ffbd95"/>
        <path id="Path_577" data-name="Path 577" d="M371.573,235.253l.009-.007a2.338,2.338,0,0,1,3.269.357l6.255,7.759a2.335,2.335,0,0,1-.359,3.282l-.01.007a2.338,2.338,0,0,1-3.268-.358l-6.255-7.759a2.335,2.335,0,0,1,.359-3.282" transform="translate(-25.417 -16.095)" fill="#ffbd95"/>
        <path id="Path_578" data-name="Path 578" d="M375.044,232.258l.008-.007a2.339,2.339,0,0,1,3.269.358l6.256,7.759a2.336,2.336,0,0,1-.36,3.282l-.009.007a2.338,2.338,0,0,1-3.268-.358l-6.256-7.76a2.335,2.335,0,0,1,.36-3.281" transform="translate(-25.655 -15.889)" fill="#ffbd95"/>
        <path id="Path_579" data-name="Path 579" d="M378.666,229.685l.01-.007a2.337,2.337,0,0,1,3.268.358l6.256,7.759a2.335,2.335,0,0,1-.36,3.282l-.009.007a2.34,2.34,0,0,1-3.269-.358l-6.254-7.759a2.335,2.335,0,0,1,.358-3.282" transform="translate(-25.903 -15.713)" fill="#ffbd95"/>
        <path id="Path_580" data-name="Path 580" d="M397.689,258.958s-4.251-15.937-5.946-18.672-11.3-10.861-11.3-10.861-.875,5.6-3.35,7.08-9.217,4.712-9.217,4.712,4.436,9.991,7.865,13.748a50.775,50.775,0,0,0,7.669,6.67Z" transform="translate(-25.223 -15.73)" fill="#ffbd95"/>
        <path id="Path_581" data-name="Path 581" d="M583.3,358.007c-3.244-7.778,3.144-17.757,17.728-23.565s25.167-8.171,28.995-9.584c3.953-1.46,26.219-11.621,32.594-13.375s13.377.042,15.854,6.26c2.071,5.2-4.686,15.224-14.268,21.4s-72.188,39.757-80.9,18.863" transform="translate(-39.937 -21.313)" fill="#ffbd95"/>
        <path id="Path_582" data-name="Path 582" d="M664.324,323.5c-4.946-4.746-6.5-11.279,6.2-25.97s46.506-44.971,46.506-44.971l8,7.677s-18.441,34.943-24.987,43.221-22.772,32.467-35.719,20.044" transform="translate(-45.299 -17.317)" fill="#ffbd95"/>
        <path id="Path_583" data-name="Path 583" d="M591.439,406.592c8.414-21.224,29.167-57.268,18.544-64.313-13.848-9.182-54.713-16.572-54.713-16.572l-.037.686s-41.682,1.121-56.441,8.753c-11.323,5.853,5.665,45.733,11.732,67.743,1.456,5.281,1.074,28.4-.709,48.988-.441,5.078-4.287,28.439-4.087,38.149.059,2.9,29.957,22.517,39.35,23.485l.037-.687c9.443.053,44.025-15.99,44.4-18.863,1.249-9.632-1.732-33.254-1.62-38.351.456-20.659,1.527-43.927,3.545-49.019" transform="translate(-33.938 -22.332)" fill="#ffbd95"/>
        <path id="Path_584" data-name="Path 584" d="M586.2,341.755s8.836-7.712,18.089-9.584,32.645-11.343,32.645-11.343,9.226,2.506,13.333,13.588,4.56,16.363,4.56,16.363-48.836,19.25-52.089,19.379-11.816-15.482-16.539-28.4" transform="translate(-40.192 -21.997)" fill="#cee0ff"/>
        <path id="Path_585" data-name="Path 585" d="M575.058,317.7c-.712-4.289-1.929-25.373-1.929-25.373l-13.891-.754-.038.706-13.892-.754s-3.492,20.828-4.663,25.015-12.953,9.963-12.953,9.963l29.563,1.6.039-.706,29.563,1.6s-11.086-7.017-11.8-11.3" transform="translate(-36.181 -19.988)" fill="#ffbd95"/>
        <path id="Path_586" data-name="Path 586" d="M574.442,311.739c-.533-6.466-1.091-15.66-1.26-18.52l-.846-.93-13.1-.711-.038.706-13.892-.754s-3.492,20.828-4.663,25.014-12.953,9.964-12.953,9.964l1.4.075c13.385-2.8,26.694-5.6,28.487-6.007,3.747-.86,16.866-8.837,16.866-8.837Z" transform="translate(-36.181 -19.988)" fill="#ffa47c"/>
        <path id="Path_587" data-name="Path 587" d="M710.47,261.725s4.518-15.863,6.257-18.569,11.485-10.67,11.485-10.67.781,5.615,3.232,7.135,9.136,4.866,9.136,4.866-4.6,9.914-8.094,13.614a50.774,50.774,0,0,1-7.779,6.541Z" transform="translate(-48.712 -15.94)" fill="#ffbd95"/>
        <path id="Path_588" data-name="Path 588" d="M741.709,241.812l-.009-.007a2.339,2.339,0,0,0-3.274.3l-6.385,7.654a2.335,2.335,0,0,0,.3,3.288l.009.007a2.339,2.339,0,0,0,3.274-.3l6.384-7.654a2.334,2.334,0,0,0-.3-3.288" transform="translate(-50.154 -16.543)" fill="#ffbd95"/>
        <path id="Path_589" data-name="Path 589" d="M738.395,238.473l-.008-.007a2.338,2.338,0,0,0-3.275.3l-6.384,7.654a2.334,2.334,0,0,0,.3,3.288l.009.007a2.34,2.34,0,0,0,3.275-.3l6.383-7.654a2.334,2.334,0,0,0-.3-3.288" transform="translate(-49.927 -16.314)" fill="#ffbd95"/>
        <path id="Path_590" data-name="Path 590" d="M734.975,235.42l-.008-.007a2.339,2.339,0,0,0-3.275.3l-6.385,7.654a2.335,2.335,0,0,0,.3,3.287l.008.007a2.339,2.339,0,0,0,3.275-.3l6.384-7.653a2.335,2.335,0,0,0-.3-3.288" transform="translate(-49.693 -16.104)" fill="#ffbd95"/>
        <path id="Path_591" data-name="Path 591" d="M731.4,232.787l-.009-.008a2.338,2.338,0,0,0-3.274.3l-6.385,7.653a2.336,2.336,0,0,0,.3,3.289l.009.007a2.338,2.338,0,0,0,3.274-.3l6.384-7.653a2.334,2.334,0,0,0-.3-3.288" transform="translate(-49.447 -15.924)" fill="#ffbd95"/>
        <path id="Path_592" data-name="Path 592" d="M518.9,336.74s-8.911-7.625-18.183-9.4-32.756-11.02-32.756-11.02-9.2,2.6-13.2,13.718-4.4,16.409-4.4,16.409,49.024,18.767,52.277,18.863,11.663-15.6,16.257-28.566" transform="translate(-30.879 -21.688)" fill="#cee0ff"/>
        <path id="Path_593" data-name="Path 593" d="M586.546,272.008c-1.047,18.379-15.977,35.893-27.769,35.221-11.267-.642-24.636-19.769-23.589-38.147s13.393-32.623,27.575-31.815,24.829,16.363,23.782,34.741" transform="translate(-36.691 -16.266)" fill="#ffbd95"/>
        <path id="Path_594" data-name="Path 594" d="M534.709,272.638c-1.024-2.065-4.374-10.786-3.322-14.572s6.027-11.867,7.67-14.281,15.358-8.323,17.369-8.376a52.132,52.132,0,0,1,11.5.656c4.13.9,11.3,4.156,12.779,7.586s5.395,7.5,6.592,10.243,3.143,9.711,2.753,10.693-2.7,9.212-2.9,9.87a16.417,16.417,0,0,1-1.513,2.484s-5.928-17.946-6-19.624-35.051-4.17-37.285-3.128-7.643,18.45-7.643,18.45" transform="translate(-36.42 -16.137)" fill="#8d3b26"/>
        <path id="Path_595" data-name="Path 595" d="M516.955,680.034l-24.64-2.469s-13.766,9.693-20.966,16.859-5.587,15.372-5.587,15.372,20.911,5.475,29.758,0a205.383,205.383,0,0,1,21.435-10.942Z" transform="translate(-31.924 -46.456)"/>
        <path id="Path_596" data-name="Path 596" d="M504.687,474.68l-20.669,34.652-1.313,16.949h61.235l45.8-1.439,8.422-14.139L586.4,474.682Z" transform="translate(-33.096 -32.546)" fill="#00233f"/>
        <path id="Path_597" data-name="Path 597" d="M480.29,519.939l6.227,150.429h38.169l3.572-150.429s-5.672-19.223-25.425-19.223c-16.953,0-22.543,19.223-22.543,19.223" transform="translate(-32.931 -34.331)" fill="#002d56"/>
        <path id="Path_598" data-name="Path 598" d="M502.863,500.716h-.031c-16.953,0-22.543,19.223-22.543,19.223l6.227,150.429h16.347Z" transform="translate(-32.931 -34.331)" fill="#00233f"/>
        <path id="Path_599" data-name="Path 599" d="M572.013,682.453l24.649-2.468s13.755,9.693,20.955,16.859,5.6,15.37,5.6,15.37-20.918,5.475-29.775,0a204.679,204.679,0,0,0-21.426-10.942Z" transform="translate(-39.219 -46.622)"/>
        <path id="Path_600" data-name="Path 600" d="M608.925,522.358,602.7,672.788H564.491l-3.563-150.43s5.675-19.222,25.441-19.222c16.953,0,22.556,19.222,22.556,19.222" transform="translate(-38.459 -34.497)" fill="#002d56"/>
        <path id="Path_601" data-name="Path 601" d="M584.927,503.321c-18.519.971-24,19.05-24,19.05l3.562,150.43h20.436Z" transform="translate(-38.459 -34.51)" fill="#00233f"/>
        <path id="Path_602" data-name="Path 602" d="M613.444,343.027c-1.218-3.412-11.57-6.294-20.64-9.651-7.994-2.959-15.1-6.548-15.1-6.548l-23.271,11.7-21.872-14.152s-7.452,2.8-15.721,4.875c-9.379,2.356-19.806,4.191-21.563,7.36-1.782,3.216,11.32,67.483,12.884,72.973s-6.278,44.333-2.185,55.866l41.411,2.067v0l.079,0h.009l40.5-.937c4.4-12.732,2.606-47.832,4.755-53.122s24.072-61.048,20.716-70.44" transform="translate(-33.947 -22.241)" fill="#cee0ff"/>
        <path id="Path_603" data-name="Path 603" d="M556.608,464.686c-3.832-2.532-9.61-5.113-13.095-7.391s.138-9.735.192-13.63,11.033-10.92,18.4-13.412,20-1.2,23.043-6.233-4.613-10.1-8.02-10.185-25.143-6.966-28.561-6.566-29.277,2.425-33.333-.843-23.118-63.294-23.118-63.294c4.115,20.106,14.915,63.772,16.01,67.234,1.722,5.443-6.684,45.149-2.26,56.558l43.909,3.006v0h.089l37.9-2.058s-5.576-1.556-9.2-2.754-18.132,2.1-21.962-.435" transform="translate(-33.741 -23.527)" fill="#b8d1ff"/>
        <rect id="Rectangle_58" data-name="Rectangle 58" width="15.614" height="253.741" transform="translate(379.668 432.3)" fill="#79858e"/>
        <rect id="Rectangle_59" data-name="Rectangle 59" width="15.613" height="253.741" transform="translate(653.221 433.66)" fill="#79858e"/>
        <rect id="Rectangle_60" data-name="Rectangle 60" width="282.66" height="41.394" transform="translate(382.791 432.301)" fill="#79858e"/>
        <g id="Group_53" data-name="Group 53" transform="translate(379.615 450.702)" style="mix-blend-mode: multiply;isolation: isolate">
          <g id="Group_52" data-name="Group 52">
            <g id="Group_51" data-name="Group 51" clip-path="url(#clip-path-3)">
              <path id="Path_604" data-name="Path 604" d="M696.777,493.495l-289.218,4.123V483.878l289.218.148Z" transform="translate(-407.559 -483.878)" fill="#b9b9bd"/>
            </g>
          </g>
        </g>
        <rect id="Rectangle_62" data-name="Rectangle 62" width="326.19" height="25.63" transform="translate(361.4 426.186)" fill="#99a2a9"/>
        <rect id="Rectangle_63" data-name="Rectangle 63" width="127.102" height="89.128" transform="translate(481.578 308.769)" fill="#303030"/>
        <rect id="Rectangle_64" data-name="Rectangle 64" width="28.887" height="85.749" transform="translate(534.099 339.399)" fill="#424242"/>
        <path id="Path_605" data-name="Path 605" d="M517.027,331.5l52.522,30.628h28.887L644.129,331.5Z" transform="translate(-35.449 -22.729)" fill="#424242"/>
        <path id="Path_606" data-name="Path 606" d="M517.027,419.77l52.127-22.262.395-35.381L517.027,331.5Z" transform="translate(-35.449 -22.729)" fill="#222"/>
        <path id="Path_607" data-name="Path 607" d="M650.083,331.5l-46.219,30.628.525,33.417,45.693,25.083L608.394,393.18l.59-28.165Z" transform="translate(-41.403 -22.729)" fill="#222"/>
        <rect id="Rectangle_65" data-name="Rectangle 65" width="53.572" height="5.378" transform="translate(524.907 420.807)" fill="#424242"/>
        <path id="Path_608" data-name="Path 608" d="M802.859,252.919s7.541-5.514,24.018-7.295,24.855,1.094,24.855,1.094l2.179-26.754-6.228-25.972-38.122,6.562-6.7,28.208Z" transform="translate(-55.047 -13.301)" fill="#561d10"/>
        <path id="Path_609" data-name="Path 609" d="M851.618,682.485c.26,4.857,2.261,7.914,3.469,10.319,1.457,2.9,1.093,7.748-.309,9.06-3.847,3.6-8.272,2.29-12.909,5.183s-11.652,13.3-15.572,14.247-12.859.56-13.415-1.314,8.823-8.712,8.823-8.712c14.073-17.283,15.606-25.43,15.606-25.43s14.268-4.075,14.307-3.353" transform="translate(-55.733 -46.788)" fill="#ffa47c"/>
        <path id="Path_610" data-name="Path 610" d="M821.529,711.74s-2.68,2.253-2.256,2.949c.608,1,4.659.625,5.716.09,9.507-4.8,22.216-15.233,24.844-18.456a14.579,14.579,0,0,0,3.1-7.029c.81.053,4.135,5.437,3.307,9.51a12.587,12.587,0,0,1-1.638,3.532c-2.166,2.028-9.511,5.541-11.538,6.805-4.637,2.892-11.091,13.332-15.011,14.282s-17.191.716-17.747-1.157c-.436-1.472,6.833-7.492,11.223-10.526" transform="translate(-55.556 -47.261)" fill="#4f2718"/>
        <path id="Path_611" data-name="Path 611" d="M858.727,698.709s-2.786,7.476-3.607,9.988c-1.241,3.8-2.091,11.929-2.091,11.929l-1.716-.112s2.253-15.327-5.857-10.727c-2.53,1.435,13.27-11.078,13.27-11.078" transform="translate(-57.949 -47.906)" fill="#4f2718"/>
        <path id="Path_612" data-name="Path 612" d="M815.661,563.5c13.148,6.8,23.243,31.933,25.729,42.009s6.69,65.753,8.336,69.162-12.976,4.908-13.486,2.859c-5.067-20.33-26.813-71.482-29.242-76.457s-12.491-27.978-13.241-30.319c-3.864-12.061,14.386-11.143,21.9-7.253" transform="translate(-54.386 -38.457)" fill="#ffa47c"/>
        <path id="Path_613" data-name="Path 613" d="M865.943,631.221s-2.428,6.521-1.52,10.753,5.676,13.73,9.025,13.551,8.758-8.274,9.458-9.591c4.357-8.2,2.157-23.331,2.157-23.331Z" transform="translate(-59.254 -42.688)" fill="#8d3b26"/>
        <path id="Path_614" data-name="Path 614" d="M809.664,304.615c5.607-4.224-3.36-24.668-17.683-42.854-24.9-31.608-28.353-45.531-38.961-38.964-9.624,5.958-.045,19.278,17.514,49.05,13.729,23.276,27.517,41.513,39.131,32.767" transform="translate(-51.368 -15.167)" fill="#ffbd95"/>
        <path id="Path_615" data-name="Path 615" d="M889.776,268.7c-3.585-5.331-20.657-5.454-27.06-6.194-6.541-.755-25.03,1.852-25.03,1.852s-18.268,3.874-24.155,6.82c-5.764,2.886-21.764,8.842-23.31,15.077-2.338,9.425,33.112,53.03,21.232,83.736-3.944,10.192-27.047,37.125-27.149,48.053-.124,13.357,39.289,32.2,39.289,32.2l2.437.653,2.436.652s43.556,3.387,50.126-8.243c5.377-9.515-5.465-56.913-4.113-70.043,3.472-33.719,20.719-96.508,15.3-104.565" transform="translate(-53.775 -17.989)" fill="#ffbd95"/>
        <path id="Path_616" data-name="Path 616" d="M783.831,431.293c-5.545,8.5-6.541,24.506-5.707,45.479,1.136,28.594,10.853,70.986,11.7,75.1,3.851,18.762,22.114,19.38,25.995,5,1.069-3.964,10.509-84.391,10.195-93.522s-.054-25.807-5.826-36.367c-4.3-7.86-28.088-8.37-36.355,4.309" transform="translate(-53.333 -28.891)" fill="#ffa47c"/>
        <path id="Path_617" data-name="Path 617" d="M851.462,250.175c-2.717-4.516-5.75-22.807-5.75-22.807L834.1,229.415l-11.614,2.048s3.406,18.226,2.4,23.4-9.2,13.917-9.2,13.917l24.593-4.336,24.593-4.337s-10.687-5.414-13.405-9.93" transform="translate(-55.926 -15.589)" fill="#ffbd95"/>
        <path id="Path_618" data-name="Path 618" d="M757.341,232.255c6.26-1.467,12.3-13.867,8.823-34.106-4.013-23.324-9.216-56.825-14.883-56.093-2.654.343-4.28,3.692-3.693,8.813,1.229,10.743-2.079,29.283-3.086,44.7-1.553,23.766.794,39.512,12.84,36.689" transform="translate(-51.017 -9.739)" fill="#ffbd95"/>
        <path id="Path_619" data-name="Path 619" d="M888.557,286.023c6.463.712,13.57-20.363,15.643-43.419,3.6-40.072,10.216-52.625-1.1-55.012-10.268-2.168-12.4,14.1-19.732,47.844-5.736,26.383-8.2,49.114,5.187,50.587" transform="translate(-60.251 -12.849)" fill="#ffbd95"/>
        <path id="Path_620" data-name="Path 620" d="M903.6,203.568c6.269-.525,9.9-17.952,5.564-40.17-5-25.605-11.632-62.378-17.164-61.605-7.549,1.056-3.784,32.935-4.219,58.661-.443,26.06,2.834,44.2,15.819,43.114" transform="translate(-60.831 -6.978)" fill="#ffbd95"/>
        <path id="Path_621" data-name="Path 621" d="M851.462,250.313s-3.3-10.419-3.3-10.439c-.779-3.379-1.445-6.791-1.884-9.178l-.007-.034-11.153-1.287-1.017.179L822.485,231.6s3.406,18.226,2.4,23.4-9.2,13.917-9.2,13.917,15.251-6.77,18.057-8.36,17.723-10.243,17.723-10.243" transform="translate(-55.926 -15.727)" fill="#ffa47c"/>
        <path id="Path_622" data-name="Path 622" d="M805.516,213.083c-.279,17.4,14.42,31.743,23.3,31.886,8.647.139,20.588-13.9,22.523-31.443,1.908-17.3-8.408-28.752-21.557-28.962s-23.99,11.119-24.269,28.52" transform="translate(-55.229 -12.654)" fill="#ffbd95"/>
        <path id="Path_623" data-name="Path 623" d="M839.187,193.56c-1.918,5.156-7.127,7.058-18.244,8.153-7.96.783-13.964,7.831-14.991,12.091-2.867,11.887-3.312,38.1-3.312,38.1s-9.534-39.082,5.452-60.424,34.16-9.256,34.811-6.068c.33,1.61-2.791,5.668-3.715,8.153" transform="translate(-54.827 -12.281)" fill="#8d3b26"/>
        <path id="Path_624" data-name="Path 624" d="M827.756,192.256s-1.013,8.106,8.758,8.489c18.479.726,8.521,47.748,8.521,47.748s6.615,1.914,8.329-2.414c6.359-16.051,13.208-58.739-13.113-61.191-19.055-1.774-12.5,7.368-12.5,7.368" transform="translate(-56.679 -12.661)" fill="#8d3b26"/>
        <path id="Path_625" data-name="Path 625" d="M868.236,610.981s-2.636,19.725-2.263,21.951,4.206,10.354,7.342,9.829c8.764-1.467,12.96-17.971,11.651-23.208-.763-3.049-1.408-6.284-2.041-8.4a31.566,31.566,0,0,0-3.663-8.49Z" transform="translate(-59.372 -41.321)" fill="#ffbd95"/>
        <path id="Path_626" data-name="Path 626" d="M810.834,553.689c-6.106,8.04-5.625,13.172,6.916,23.625s49.8,34.683,51.7,32.641,8.987-10.52,4.226-13.116c-3.225-1.758-4.576-7.026-9.668-13.939-8.767-11.9-20.331-26.653-22.9-28.8-4.068-3.4-20.5-13.27-30.27-.408" transform="translate(-55.332 -37.523)" fill="#ffbd95"/>
        <path id="Path_627" data-name="Path 627" d="M881.152,443.47c2.2,9.91-2.482,25.242-10.629,44.587-11.106,26.373-35.092,62.652-37.326,66.206-10.2,16.214-27.513,10.38-26.1-4.445.39-4.087,19.8-82.707,23.3-91.145s9.114-24.146,18.226-32.005c6.784-5.85,29.239,2.028,32.527,16.8" transform="translate(-55.332 -29.121)" fill="#ffbd95"/>
        <path id="Path_628" data-name="Path 628" d="M747.848,128.158h.009a1.947,1.947,0,0,1,2.039,1.825l.476,8.276a1.944,1.944,0,0,1-1.832,2.048h-.009a1.943,1.943,0,0,1-2.038-1.824l-.477-8.278a1.942,1.942,0,0,1,1.832-2.046" transform="translate(-51.149 -8.787)" fill="#ffbd95"/>
        <path id="Path_629" data-name="Path 629" d="M751.716,127.567h.01a1.947,1.947,0,0,1,2.039,1.825l.476,8.277a1.944,1.944,0,0,1-1.832,2.047H752.4a1.945,1.945,0,0,1-2.039-1.825l-.477-8.277a1.944,1.944,0,0,1,1.832-2.046" transform="translate(-51.415 -8.746)" fill="#ffbd95"/>
        <path id="Path_630" data-name="Path 630" d="M755.514,127.221h.009a1.948,1.948,0,0,1,2.04,1.825l.476,8.277a1.943,1.943,0,0,1-1.832,2.047h-.01a1.945,1.945,0,0,1-2.038-1.824l-.477-8.278a1.943,1.943,0,0,1,1.832-2.046" transform="translate(-51.675 -8.722)" fill="#ffbd95"/>
        <path id="Path_631" data-name="Path 631" d="M759.21,127.234h.009a1.946,1.946,0,0,1,2.039,1.825l.476,8.276a1.944,1.944,0,0,1-1.832,2.048h-.009a1.945,1.945,0,0,1-2.038-1.825l-.477-8.277a1.943,1.943,0,0,1,1.832-2.046" transform="translate(-51.928 -8.723)" fill="#ffbd95"/>
        <path id="Path_632" data-name="Path 632" d="M757.5,156.636s4.837-12.838,5.015-15.509-2.391-12.819-2.391-12.819-3.3,3.366-5.694,3.169-8.516-1.273-8.516-1.273-1.834,8.905-1.334,13.107,3.366,12.546,3.366,12.546Z" transform="translate(-51.045 -8.797)" fill="#ffbd95"/>
        <path id="Path_633" data-name="Path 633" d="M898.781,88.359h-.009a1.948,1.948,0,0,0-2.04,1.825l-.475,8.276a1.942,1.942,0,0,0,1.831,2.047h.009a1.945,1.945,0,0,0,2.039-1.824l.477-8.277a1.945,1.945,0,0,0-1.832-2.047" transform="translate(-61.451 -6.058)" fill="#ffbd95"/>
        <path id="Path_634" data-name="Path 634" d="M894.913,87.769H894.9a1.946,1.946,0,0,0-2.039,1.824l-.476,8.277a1.942,1.942,0,0,0,1.832,2.047h.009a1.945,1.945,0,0,0,2.038-1.825l.477-8.277a1.943,1.943,0,0,0-1.832-2.046" transform="translate(-61.185 -6.017)" fill="#ffbd95"/>
        <path id="Path_635" data-name="Path 635" d="M891.115,87.422h-.01a1.947,1.947,0,0,0-2.039,1.825l-.476,8.276a1.943,1.943,0,0,0,1.832,2.047h.009a1.947,1.947,0,0,0,2.04-1.824l.476-8.277a1.944,1.944,0,0,0-1.832-2.047" transform="translate(-60.925 -5.994)" fill="#ffbd95"/>
        <path id="Path_636" data-name="Path 636" d="M887.419,87.435h-.009a1.945,1.945,0,0,0-2.039,1.824l-.477,8.277a1.944,1.944,0,0,0,1.832,2.047h.01a1.945,1.945,0,0,0,2.038-1.824l.476-8.277a1.943,1.943,0,0,0-1.831-2.047" transform="translate(-60.671 -5.995)" fill="#ffbd95"/>
        <path id="Path_637" data-name="Path 637" d="M888.126,116.837s-4.838-12.838-5.015-15.509S885.5,88.508,885.5,88.508s3.3,3.367,5.693,3.169,8.517-1.273,8.517-1.273,1.834,8.905,1.334,13.107-3.366,12.546-3.366,12.546Z" transform="translate(-60.549 -6.068)" fill="#ffbd95"/>
        <path id="Path_638" data-name="Path 638" d="M876.687,370.306c2.027-13.973,10.342-70.369,10.342-70.369s-3.771,3.172-9.26-3.379c-7.335-8.755-5.452-33.185-5.452-33.185l-10.184-.858s-2.584,17.006-6.442,26.945c-3.81,9.814-16.256,15.143-24.854,10.469-15.379-8.362-16.675-30.1-16.675-30.1l-10.915,5.395.1,43.851s10.216,30.193,6.319,45.085-20.3,31.837-29.7,52.5,0,88.253,0,88.253,25.1,8.037,32.985-.171,20.074-5.414,24.592-2.063,15.921,14.523,15.921,14.523,22.809-36.726,27.626-71.077c3.851-27.459-6.425-61.85-4.4-75.825" transform="translate(-53.191 -17.999)" fill="#27547c"/>
        <path id="Path_639" data-name="Path 639" d="M868.2,335.5c-5.027-3.351-36.446,7.122-48.9,4.608-9.924-2-14.12-11.346-15.435-15.1,2.028,6.426,9.149,30.6,5.789,43.442-3.9,14.891-20.3,31.837-29.7,52.5s0,88.252,0,88.252,25.1,8.038,32.984-.17c.139-.144.3-.225.441-.363l14.262-42.053s-23.123,6.7-22.773-13.405,20.177-65.351,25.959-77.081S873.23,338.847,868.2,335.5" transform="translate(-53.191 -22.284)" fill="#002d56"/>
      </g>
    </g>
  </g>
</svg>
