<svg id="Group_80" data-name="Group 80" xmlns="http://www.w3.org/2000/svg" xmlns:xlink="http://www.w3.org/1999/xlink" width="350.698" height="322.534" viewBox="0 0 350.698 322.534">
  <defs>
    <clipPath id="clip-path">
      <rect id="Rectangle_112" data-name="Rectangle 112" width="350.698" height="322.534" fill="none"/>
    </clipPath>
    <clipPath id="clip-path-3">
      <rect id="Rectangle_107" data-name="Rectangle 107" width="274.084" height="6.958" fill="none"/>
    </clipPath>
  </defs>
  <g id="Group_86" data-name="Group 86" clip-path="url(#clip-path)">
    <g id="Group_85" data-name="Group 85">
      <g id="Group_84" data-name="Group 84" clip-path="url(#clip-path)">
        <path id="Path_820" data-name="Path 820" d="M296.262,183.105,252.37,231.112l5.791-97.725,35.923-10.65Z" transform="translate(-136.408 -66.341)" fill="#606e79"/>
        <path id="Path_821" data-name="Path 821" d="M312.691,63.3s-4.163-3.045-13.262-4.028-13.724.6-13.724.6l-1.2-14.772,3.438-14.341,21.049,3.624,3.7,15.574Z" transform="translate(-153.776 -16.629)" fill="#561d10"/>
        <path id="Path_822" data-name="Path 822" d="M285.777,575.852c-.144,2.682-1.8,5.12-2.469,6.448-.8,1.6-.6,4.277.171,5,2.124,1.989,4.567,1.265,7.128,2.862s6.434,7.342,8.6,7.866,7.1.31,7.407-.726-4.872-4.81-4.872-4.81c-7.771-9.543-8.648-14.5-8.648-14.5s-7.293-2.541-7.315-2.142" transform="translate(-152.852 -311.23)" fill="#ffa47c"/>
        <path id="Path_823" data-name="Path 823" d="M301.4,597.541s1.479,1.244,1.246,1.628c-.336.553-2.573.345-3.157.05-5.249-2.652-12.267-8.411-13.718-10.191a8.052,8.052,0,0,1-1.711-3.881c-.447.029-2.283,3-1.826,5.251a6.909,6.909,0,0,0,.9,1.95c1.2,1.12,5.251,3.06,6.37,3.758,2.56,1.6,6.124,7.361,8.288,7.886s9.493.4,9.8-.639c.241-.812-3.772-4.137-6.2-5.812" transform="translate(-152.509 -316.277)" fill="#4f2718"/>
        <path id="Path_824" data-name="Path 824" d="M282.2,595.685s1.538,4.128,1.991,5.515a44.918,44.918,0,0,1,1.154,6.587l.947-.062s-1.244-8.463,3.234-5.923c1.4.793-7.327-6.116-7.327-6.116" transform="translate(-152.533 -321.973)" fill="#4f2718"/>
        <path id="Path_825" data-name="Path 825" d="M307.436,442.872c-7.26,3.757-12.834,17.632-14.207,23.2s-3.913,36.963-4.65,38.919c-.73,1.937,7.213,1.979,7.494.847,2.8-11.225,14.806-39.469,16.146-42.217s6.9-15.448,7.312-16.741c2.133-6.659-7.944-6.152-12.095-4" transform="translate(-155.953 -238.6)" fill="#ffa47c"/>
        <path id="Path_826" data-name="Path 826" d="M420.575,330.686a23.026,23.026,0,0,1,.043,3.777,15.888,15.888,0,0,1-1.044,2.423,2.864,2.864,0,0,0-.057,2.1c.546.425,1.233-.523,1.5-1.112a16.914,16.914,0,0,0,1.1-2.825,15.754,15.754,0,0,0,.607-3.73c-.155-.667-2.144-.635-2.144-.635" transform="translate(-226.661 -178.738)" fill="#ffa47c"/>
        <path id="Path_827" data-name="Path 827" d="M418.018,328.642a21.323,21.323,0,0,1-.985,3.375c-.372.611-.86.686-1.577,1.2-.6.424-1.259,1.209-1.123,1.843s1.122.08,1.661-.19a5.989,5.989,0,0,0,2.213-1.919,14.576,14.576,0,0,0,1.548-3.159c.045-.636-1.736-1.145-1.736-1.145" transform="translate(-223.941 -177.634)" fill="#ffa47c"/>
        <path id="Path_828" data-name="Path 828" d="M417.412,327.734a17.916,17.916,0,0,1-1.314,2.648c-.4.45-.816.44-1.49.751-.561.262-1.225.813-1.2,1.356s.923.238,1.411.094a5.03,5.03,0,0,0,2.125-1.256,12.163,12.163,0,0,0,1.75-2.382c.13-.52-1.278-1.212-1.278-1.212" transform="translate(-223.448 -177.143)" fill="#ffa47c"/>
        <path id="Path_829" data-name="Path 829" d="M403.688,317.881c.266.343,1.2-.2,1.746-.938a5.537,5.537,0,0,0,.49-3.558c-.191-.91-.079-2.3.6-2.42a5.685,5.685,0,0,1,3.465,1.7c.615,1.2,1.657,2.758,1.661,3.654a13.873,13.873,0,0,1-.879,3.341,5.862,5.862,0,0,0-.517,2.428.9.9,0,0,0,.8.8c.336.089.505-1.237,1.188-2.249a28.5,28.5,0,0,0,1.9-3.85c.059-.222-.555-4.018-.793-5.153s-3.935-5.8-3.883-6.262-3.586-8.345-3.586-8.345l-6.281,1.584s3.454,5.493,3.485,6.514a19.805,19.805,0,0,1-.48,3.436c-.325,1.958.691,4.362.951,5.306.453,1.648-.283,3.466.131,4" transform="translate(-215.988 -160.553)" fill="#ffa47c"/>
        <path id="Path_830" data-name="Path 830" d="M258.532,560.8s.51,3.808-.495,5.976-4.734,6.7-6.516,6.194-3.705-5.525-3.921-6.32c-1.344-4.95,1.689-12.827,1.689-12.827Z" transform="translate(-133.645 -299.345)" fill="#8d3b26"/>
        <path id="Path_831" data-name="Path 831" d="M342.6,127.177c3.844-.5,8.2,11.03,9.577,23.738,2.387,22.088,6.4,28.916-.32,30.422-6.1,1.367-7.465-7.588-12.038-26.118-3.575-14.486-5.179-27.008,2.781-28.043" transform="translate(-182.081 -68.732)" fill="#ffa47c"/>
        <path id="Path_832" data-name="Path 832" d="M239.2,110.793c1.98-2.943,11.407-3.012,14.942-3.42,3.611-.417,13.821,1.023,13.821,1.023s10.086,2.139,13.337,3.766c3.182,1.593,12.017,4.882,12.87,8.325,1.291,5.2-18.283,29.281-11.723,46.235,2.178,5.628,14.934,20.5,14.99,26.533.068,7.375-21.694,17.781-21.694,17.781l-1.345.36-1.345.361S249,213.626,245.372,207.2c-2.969-5.254,3.017-31.425,2.271-38.675-1.917-18.618-11.439-53.288-8.447-57.737" transform="translate(-128.975 -57.995)" fill="#ffbd95"/>
        <path id="Path_833" data-name="Path 833" d="M339.255,290.745c3.062,4.7,3.612,13.531,3.151,25.112-.628,15.788-5.993,39.195-6.46,41.466-2.127,10.359-12.211,10.7-14.353,2.762-.591-2.189-5.8-46.6-5.629-51.639s.03-14.25,3.217-20.08c2.372-4.339,15.509-4.621,20.074,2.38" transform="translate(-170.779 -154.188)" fill="#ffa47c"/>
        <path id="Path_834" data-name="Path 834" d="M279.8,80.716c1.5-2.493,3.176-12.593,3.176-12.593l6.412,1.131,6.413,1.131s-1.881,10.063-1.324,12.919,5.08,7.685,5.08,7.685l-13.579-2.394L272.394,86.2s5.9-2.99,7.4-5.484" transform="translate(-147.231 -36.821)" fill="#ffbd95"/>
        <path id="Path_835" data-name="Path 835" d="M360.978,225.356c3.344-1.194,9.86,2.75,14.3,13.181,5.123,12.022,12.74,29.122,9.891,30.479-1.334.635-3.091-.432-4.353-2.983-2.646-5.353-9.732-12.963-14.814-19.812-7.836-10.561-11.463-18.568-5.029-20.866" transform="translate(-193.323 -121.695)" fill="#ffa47c"/>
        <path id="Path_836" data-name="Path 836" d="M288.5,81.93s1.821-5.752,1.823-5.763c.43-1.866.8-3.75,1.04-5.068l0-.019,6.159-.71.561.1L304.5,71.6s-1.881,10.063-1.324,12.919,5.08,7.685,5.08,7.685-8.421-3.738-9.97-4.616S288.5,81.93,288.5,81.93" transform="translate(-155.938 -38.035)" fill="#ffa47c"/>
        <path id="Path_837" data-name="Path 837" d="M311.09,35.454c-1.784,10.074-11.87,16.71-17.013,15.8-5.006-.886-10.328-10.323-9.486-20.664.832-10.2,8.065-15.655,15.678-14.308s12.6,9.1,10.821,19.172" transform="translate(-153.776 -8.691)" fill="#ffbd95"/>
        <path id="Path_838" data-name="Path 838" d="M299.952,21.868c1.059,2.847,3.829,4.611,9.967,5.215,4.4.432,7.132,6.583,7.039,9-.035.924,3.173,18,3.173,18s5.264-21.58-3.01-33.364-18.748-5.361-18.848-4.46,1.168,4.238,1.678,5.611" transform="translate(-161.216 -7.406)" fill="#8d3b26"/>
        <path id="Path_839" data-name="Path 839" d="M293.929,22.044s-.053,4.3-3.689,5.02c-6.876,1.365-5.673,26.083-5.673,26.083s-7.4-30.964,5.128-34.4c7.145-1.959,4.235,3.3,4.235,3.3" transform="translate(-152.637 -9.897)" fill="#8d3b26"/>
        <path id="Path_840" data-name="Path 840" d="M261.594,539.458s-.99,10.944-1.463,12.1-3.53,5.061-5.154,4.4c-4.54-1.86-4.783-11.26-3.438-13.92.783-1.549,1.526-3.212,2.124-4.272a17.443,17.443,0,0,1,3.01-4.124Z" transform="translate(-135.572 -288.434)" fill="#ffbd95"/>
        <path id="Path_841" data-name="Path 841" d="M294.217,429.584c4.271,3.851,4.475,7.489-1.758,18.016s-25.4,37.135-26.681,36.252-6.16-4.77-3.664-7.828c1.69-2.07,1.973-6.036,4.253-12.136,3.926-10.5,9.194-23.7,10.472-25.866,2.022-3.421,10.549-14.6,17.38-8.439" transform="translate(-141.295 -231.21)" fill="#ffbd95"/>
        <path id="Path_842" data-name="Path 842" d="M251.757,299.372c-1.218,5.472,1.37,13.937,5.869,24.619,6.132,14.562,19.376,34.594,20.61,36.556,5.629,8.952,15.191,5.731,14.409-2.455-.216-2.257-10.931-45.667-12.864-50.327s-5.033-13.331-10.064-17.672c-3.745-3.23-16.145,1.12-17.96,9.278" transform="translate(-135.915 -156.219)" fill="#ffbd95"/>
        <path id="Path_843" data-name="Path 843" d="M288.736,116.486l-.052,24.213s-5.641,16.671-3.488,24.894,11.207,17.58,16.4,28.991,0,48.729,0,48.729-13.859,4.438-18.212-.094-11.085-2.99-13.579-1.139-8.791,8.019-8.791,8.019-12.594-20.278-15.254-39.246c-2.127-15.162,3.547-34.151,2.428-41.867s-5.71-38.855-5.71-38.855,6.534.659,13.652,1c2.145.1-4.187-19.985-2.1-19.964,5.073.05,6.789,21.814,19.474,18.954,9.428-2.125,9.207-16.618,9.207-16.618Z" transform="translate(-131.06 -60.089)" fill="#002d56"/>
        <path id="Path_844" data-name="Path 844" d="M264.791,183.2c2.776-1.85,20.124,3.932,27,2.545,5.479-1.106,7.8-6.265,8.522-8.337-1.119,3.549-5.052,16.9-3.2,23.987,2.152,8.223,11.207,17.58,16.4,28.991s0,48.729,0,48.729-13.859,4.438-18.212-.094c-.077-.08-.165-.125-.244-.2l-7.875-23.22s12.768,3.7,12.574-7.4-11.141-36.084-14.333-42.561S262.015,185.05,264.791,183.2" transform="translate(-142.981 -95.89)" fill="#00233f"/>
        <path id="Path_845" data-name="Path 845" d="M252.729,107.459a122.162,122.162,0,0,1,4.6,16.07c1.154,6.563-10.591,59.949-12.544,71.039s-1.252,28.284-1.252,28.284l-6.606-6.426s4.613-28.776,4.5-44.6-6.471-54.494-5.259-59.582,16.564-4.789,16.564-4.789" transform="translate(-127.566 -58.081)" fill="#99a2a9"/>
        <path id="Path_846" data-name="Path 846" d="M334.1,117.884s3.127,24.707,2.76,30.954,3.58,31.644,3.58,31.644,6.592-50.667,5.979-53.923c-.845-4.49-12.319-8.675-12.319-8.675" transform="translate(-180.582 -63.717)" fill="#99a2a9"/>
        <path id="Path_847" data-name="Path 847" d="M230.289,112.084c-3.844-.5-8.2,11.03-9.577,23.738-2.388,22.087-6.4,28.916.32,30.423,6.1,1.367,7.465-7.589,12.038-26.118,3.575-14.486,5.179-27.008-2.781-28.043" transform="translate(-117.466 -60.574)" fill="#ffa47c"/>
        <path id="Path_848" data-name="Path 848" d="M220.095,212.014c2.935-2,10.235.176,17.165,9.151,7.986,10.343,19.667,24.972,17.252,27-1.13.951-3.1.361-4.963-1.79-3.91-4.513-12.685-10.093-19.329-15.44-10.244-8.245-15.771-15.081-10.124-18.925" transform="translate(-117.743 -114.225)" fill="#ffbd95"/>
        <path id="Path_849" data-name="Path 849" d="M302.535,278.384c.067-.66-11.848-4.93-18.721.59-1.244,1,2.555,4.266,4.5,4.992a3.848,3.848,0,0,0,3.936-.738c5.337-4.914,10.038-2.4,10.284-4.844" transform="translate(-153.272 -149.281)" fill="#ffbd95"/>
        <path id="Path_850" data-name="Path 850" d="M294.894,280.1a24.945,24.945,0,0,1,5.356-1.1c.326-.031.808-.267,1.133-.3.264-.025.769.1,1.029.078.239-.022.44-.179.672-.2.311-.027.736.225,1.029.2.253-.022.729-.177.959-.215.918-.154.984.482,1.271.462a5.642,5.642,0,0,1,1.314-.023c.8.184,3.27,2.832,3.524,3.362s2.376,3.184,2.152,3.455-1.527.51-2.855-.782-3.018-2.778-2.818-2.42a15.82,15.82,0,0,1,.847,3.556c.035.612-.607.78-1.112.711-.3-.04-1.348-1.408-1.348-1.408s-.607,1.084-.869,1.069c-.911-.053-1.368-1.3-1.645-1.659-.231-.3-.446,1.121-.84,1.055-1.463-.243-1.843-3.847-3.278-3.441-.722.2-3.885-.345-4.52-2.4" transform="translate(-159.393 -150.552)" fill="#ffbd95"/>
        <path id="Path_851" data-name="Path 851" d="M505.382,17.741s4.817-6.874,10.05-2.779,4.9,12.887,2.319,15.637-6.936,14.846-6.091,15.03-.26,2.241-2.175,1.9-7.254-2.674-5.333-8.676a19.157,19.157,0,0,0,.426-10.715Z" transform="translate(-272.276 -7.384)" fill="#8d3b26"/>
        <path id="Path_852" data-name="Path 852" d="M469.833,571.3a14.265,14.265,0,0,0,2.519,6.141c1,1.706.972,4.67.171,5.524-2.2,2.344-4.941,1.721-7.648,3.665s-6.562,8.551-8.908,9.284-7.8.851-8.213-.267,5.022-5.65,5.022-5.65c7.876-11.072,8.485-16.089,8.485-16.089s8.519-3.045,8.571-2.608" transform="translate(-242.003 -308.771)" fill="#ffa47c"/>
        <path id="Path_853" data-name="Path 853" d="M451.15,594.517s-1.54,1.477-1.255,1.883c.41.585,2.859.2,3.481-.171,5.593-3.3,12.912-10.148,14.383-12.213a8.888,8.888,0,0,0,1.606-4.4c.5,0,2.731,3.143,2.389,5.654a7.674,7.674,0,0,1-.856,2.213c-1.237,1.32-5.566,3.748-6.749,4.6-2.706,1.943-6.219,8.55-8.566,9.284s-10.43,1.118-10.843,0c-.323-.878,3.86-4.829,6.41-6.849" transform="translate(-240.376 -313.288)" fill="#191919"/>
        <path id="Path_854" data-name="Path 854" d="M494.442,590.932s-1.4,4.659-1.8,6.219a49.543,49.543,0,0,0-.8,7.34H490.8s.763-9.414-3.988-6.293c-1.482.973,7.634-7.266,7.634-7.266" transform="translate(-263.036 -319.404)" fill="#191919"/>
        <path id="Path_855" data-name="Path 855" d="M478.869,419.451c6.449,6.315,7.843,22.766,7.491,29.083s-7.849,39.521-7.5,41.8-8.441.543-8.373-.743c.679-12.755-2.857-46.456-3.383-49.791s-2.282-18.539-2.3-20.038c-.1-7.72,10.376-3.924,14.064-.314" transform="translate(-251.231 -224.453)" fill="#ffa47c"/>
        <path id="Path_856" data-name="Path 856" d="M571.821,599.289s3.329,7.971,3.287,10.119-1.053,7.235-2.7,7.464-5.748-3.6-6.213-4.172c-2.9-3.584-2.968-10.777-2.968-10.777Z" transform="translate(-304.428 -323.921)" fill="#303030"/>
        <path id="Path_857" data-name="Path 857" d="M570.04,589.458a47.4,47.4,0,0,1,3.183,10.861c.131,1.112-.677,5.613-2.254,5.653-4.407.113-8.01-7.528-7.867-10.2s.253-5.573.253-5.573Z" transform="translate(-304.359 -318.607)" fill="#ffbd95"/>
        <path id="Path_858" data-name="Path 858" d="M535.54,422.25c-5.782,1.119-7.256,5.154-4.41,22.136,2.159,12.885,10.227,42.024,14.055,55.423,1.216,4.26.779,7.118,1.175,7.113,1.645-.019,6.57-.129,7.061-3.932.107-.831-1.77-3.652-1.779-5.947-.049-13.266-.14-46.849-.924-51.552-.92-5.517-5.929-25.031-15.178-23.241" transform="translate(-286.32 -228.167)" fill="#ffbd95"/>
        <path id="Path_859" data-name="Path 859" d="M431.9,107.877c-3.667-1.234-10.17,9.212-13.976,21.39-6.617,21.167-13.138,24.648-5.94,28.512,8.925,4.791,9.14-4.643,17.207-21.9,6.307-13.493,10.3-25.444,2.709-28" transform="translate(-220.983 -58.255)" fill="#cee0ff"/>
        <path id="Path_860" data-name="Path 860" d="M448.272,283c-2.69,4.906-2.567,13.742-1.229,25.234,1.823,15.667,6.964,40.62,7.6,42.844,2.9,10.149,12.9,9.722,14.431,1.658.422-2.224,3.84-47.249,3.283-52.254s-3.29-14.181-6.905-19.742c-2.691-4.14-13.169-5.055-17.18,2.259" transform="translate(-241.131 -150.024)" fill="#ffa47c"/>
        <path id="Path_861" data-name="Path 861" d="M524.946,285.35c3.6,4.281,5.221,12.968,6.17,24.5,1.295,15.72.679,39.363.493,41.669-.85,10.522-12.66,12.285-15.746,4.679-.851-2.1-11.405-45.465-11.845-50.482s-1.7-14.123.75-20.287c1.824-4.588,14.806-6.462,20.178-.079" transform="translate(-272.038 -152.014)" fill="#ffbd95"/>
        <path id="Path_862" data-name="Path 862" d="M451.046,273.59c-1.812,4.726-3.2,9.128-2.565,11.575,1.84,7.129,22.892,13.173,22.892,13.173h1.39V275.223c-8.112,0-13.6-1.633-21.717-1.633" transform="translate(-242.324 -147.878)" fill="#27547c"/>
        <path id="Path_863" data-name="Path 863" d="M496.084,111.827c-1.436-3.236-8.868-4.67-12.273-5.684-3.478-1.036-13.765-1.39-13.765-1.39s-16.274,1.626-19.8,1.5c-1.489-.056-2.586,5.312-3.16,6.842-3.221,8.59-7.052,18.587,1.017,25.556,1.842,1.591,3.451,19.718,3.451,28.114a44.951,44.951,0,0,1-3.227,15.572c8.112,0,13.606,1.633,21.717,1.633h24.336c-2.509-6.541-5.215-13.765-5.845-17.2-4.727-25.836,9.717-50.041,7.546-54.934" transform="translate(-239.607 -56.62)" fill="#cee0ff"/>
        <path id="Path_864" data-name="Path 864" d="M501.51,277.144v23.114h1.39s23.671-4.411,25.511-11.54c.631-2.446-.753-6.849-2.565-11.575Z" transform="translate(-271.07 -149.799)" fill="#27547c"/>
        <path id="Path_865" data-name="Path 865" d="M494.1,78.045c-1.043-2.711-.938-12.93-.938-12.93h-13s.1,10.219-.939,12.93-5.184,5.99-5.184,5.99l9.561,4.43,13.8-5.136a20.791,20.791,0,0,1-3.3-5.283" transform="translate(-256.223 -35.195)" fill="#ffbd95"/>
        <path id="Path_866" data-name="Path 866" d="M491.885,70.169c-.089-2.725-.066-5.054-.066-5.054h-13s.1,10.219-.938,12.93-6.326,6.673-6.326,6.673l20.329-14.543Z" transform="translate(-254.879 -35.195)" fill="#ffa47c"/>
        <path id="Path_867" data-name="Path 867" d="M495.554,31.658c-2.971,9.771-13.759,15.143-18.748,13.626-4.855-1.476-9-11.465-6.932-21.613,2.042-10.006,9.863-14.552,17.246-12.307s11.4,10.522,8.434,20.293" transform="translate(-253.676 -5.838)" fill="#ffbd95"/>
        <path id="Path_868" data-name="Path 868" d="M488.325,15.978c.709,2.949,3.244,5.027,9.256,6.359,4.3.954,6.282,7.376,5.9,9.761-.145.913-1.8,5.17-1.8,5.17s10.59-7.713,3.8-20.381-17.94-7.552-18.146-6.671.651,4.34.993,5.761" transform="translate(-263.39 -4.57)" fill="#8d3b26"/>
        <path id="Path_869" data-name="Path 869" d="M481.78,15.866s-.572,4.189-4.256,4.535a19.869,19.869,0,0,0-7.533,2.846s.677-10.026,7.986-11.152,3.8,3.772,3.8,3.772" transform="translate(-254.034 -6.446)" fill="#8d3b26"/>
        <path id="Path_870" data-name="Path 870" d="M476.932,159.207c-2.156-1.008-6.882-.576-18.01-1.152s-12.676-6.194-14.324-8.643c-1.6-2.38-.095-10.371-.008-10.821-1.918,6.579-2.362,13.266,3.519,18.345,1.842,1.591,3.451,19.718,3.451,28.114a44.951,44.951,0,0,1-3.227,15.572,114.381,114.381,0,0,1,13.608,1.135,53.716,53.716,0,0,1-1.435-9.239c.06-12.1,24.014-3.689,26.676-8.875s-9.39-17.81-8.094-19.538,0-3.89-2.157-4.9" transform="translate(-239.61 -74.91)" fill="#b8d1ff"/>
        <path id="Path_871" data-name="Path 871" d="M486.518,108.524l1.151,3.4-6.1-2.539Z" transform="translate(-260.29 -58.658)" fill="#b8d1ff"/>
        <path id="Path_872" data-name="Path 872" d="M494.85,111.927l1.254-3.4,3.608,1.7Z" transform="translate(-267.47 -58.658)" fill="#b8d1ff"/>
        <path id="Path_873" data-name="Path 873" d="M449.158,273.59s-3.557,5.917-4.278,16.738,7.017,60.546,7.017,60.546l21.469,1.213,28.459-2.218s-.663-45.446-1.96-59.024-5.153-16.924-5.153-16.924L468.9,274.961Z" transform="translate(-240.436 -147.878)" fill="#7e0000"/>
        <path id="Path_874" data-name="Path 874" d="M497.579,101.6l3.932,5.888,11.639-6.231-4.209-5.545Z" transform="translate(-268.946 -51.732)" fill="#e0f2ff"/>
        <path id="Path_875" data-name="Path 875" d="M467.811,102.265l5.181-4.687,6.092,5.03L474.7,107.99Z" transform="translate(-252.856 -52.742)" fill="#e0f2ff"/>
        <path id="Path_876" data-name="Path 876" d="M467.707,319.663c-1.513,1.729-.84,15.3-3.169,17.934-2.482,2.809-6.122,2.377-8.238-2.377s-7.663-38.429-3.172-50.224c3.172-8.332,9.638-10.271,9.638-10.271l-.816-.247-12.792-.888s-3.558,5.917-4.278,16.738,7.017,60.546,7.017,60.546l21.469,1.213,4.583-.26s-5.057-1.049-5.844-5.731c-1.577-9.381-3.1-27.919-4.4-26.433" transform="translate(-240.436 -147.878)" fill="#5b0000"/>
        <path id="Path_877" data-name="Path 877" d="M539.936,114.739c4.358.516,6.153,12.657,4.357,25.149-3.121,21.714-.482,29.275-8.267,28.975-7.065-.272-6.238-9.177-6.446-28.058-.163-14.761,1.331-27.136,10.355-26.066" transform="translate(-286.237 -61.982)" fill="#cee0ff"/>
        <rect id="Rectangle_101" data-name="Rectangle 101" width="32.592" height="43.461" transform="translate(205.659 62.911) rotate(-0.889)" fill="#002d56"/>
        <path id="Path_878" data-name="Path 878" d="M452.863,137.054s2.018,15.006,7.652,21.9,20.085,9,20.085,9l.242,11.91-32.588.505-.674-43.455Z" transform="translate(-241.921 -74.003)" fill="#00233f"/>
        <path id="Path_879" data-name="Path 879" d="M392.774,174.3c2.337-2.715.283-8.532-8.061-15.449-9.617-7.971-23.21-19.638-25.179-17.122-2.687,3.434,8.309,14.342,15.8,24.536,7.589,10.327,12.6,13.656,17.44,8.034" transform="translate(-194.108 -76.419)" fill="#ffbd95"/>
        <path id="Path_880" data-name="Path 880" d="M503.435,203.479c.92-3.341-5.649-9.095-15.65-11.818-11.526-3.137-27.98-7.925-28.663-4.909-.931,4.118,12.973,9.289,23.562,15.249,10.727,6.038,18.846,8.4,20.751,1.478" transform="translate(-248.135 -100.423)" fill="#ffbd95"/>
        <path id="Path_881" data-name="Path 881" d="M442.258,187.95v-.005a1.019,1.019,0,0,1,1.245-.709l4.192,1.14a1.018,1.018,0,0,1,.713,1.25v.005a1.02,1.02,0,0,1-1.246.709l-4.191-1.14a1.017,1.017,0,0,1-.712-1.25" transform="translate(-239.024 -101.183)" fill="#ffbd95"/>
        <path id="Path_882" data-name="Path 882" d="M442.967,183.854v-.005a1.02,1.02,0,0,1,1.246-.709l4.191,1.14a1.017,1.017,0,0,1,.712,1.251v0a1.02,1.02,0,0,1-1.247.709l-4.191-1.14a1.017,1.017,0,0,1-.712-1.25" transform="translate(-239.408 -98.969)" fill="#ffbd95"/>
        <path id="Path_883" data-name="Path 883" d="M443.9,179.912v-.005a1.019,1.019,0,0,1,1.246-.709l4.191,1.14a1.018,1.018,0,0,1,.713,1.25v.005a1.02,1.02,0,0,1-1.246.71l-4.192-1.141a1.018,1.018,0,0,1-.712-1.25" transform="translate(-239.911 -96.839)" fill="#ffbd95"/>
        <path id="Path_884" data-name="Path 884" d="M445.158,176.194v-.005a1.021,1.021,0,0,1,1.246-.709l4.192,1.14a1.018,1.018,0,0,1,.712,1.251v.005a1.021,1.021,0,0,1-1.246.709l-4.191-1.14a1.018,1.018,0,0,1-.713-1.251" transform="translate(-240.592 -94.829)" fill="#ffbd95"/>
        <path id="Path_885" data-name="Path 885" d="M458.4,180.874s-5.078-3.9-6.376-4.432-6.767-.945-6.767-.945,1.123,2.2.627,3.357-2.05,4.02-2.05,4.02a58.007,58.007,0,0,0,6.089,2.364,23.411,23.411,0,0,0,5.228.932Z" transform="translate(-239.897 -94.858)" fill="#ffbd95"/>
        <path id="Path_886" data-name="Path 886" d="M342.143,142.326s-2.206-5.521-6.036-5.406-7.009,3.581-7.935,4.175c-3.821,2.45-9.35.746-11.887,1.81s-2.172,2.747-1.159,2.676c5.677-.4,9.272,1.115,11.751.625s12.052.262,12.052.262Z" transform="translate(-169.913 -74.005)" fill="#ffbd95"/>
        <path id="Path_887" data-name="Path 887" d="M353.765,137.7s-3.193-2.843-5.689-3.062-4.775,2.189-6.885,2.284-1.291,1.144-1.049,1.422,2.837.128,4.021.238,6.138,2.982,9.6-.881" transform="translate(-183.655 -72.767)" fill="#ffbd95"/>
        <path id="Path_888" data-name="Path 888" d="M179.192,150.835c6.494,3.857,13.305-10.237,16.286-17.289s9.579-28.471,9.579-28.471l-7.431-3.681a206.973,206.973,0,0,0-22.1,34.912c-.948,1.951-2.944,10.6,3.663,14.528" transform="translate(-94.314 -54.805)" fill="#ffbd95"/>
        <path id="Path_889" data-name="Path 889" d="M15.713,639.077s4.732,8.731,3.981,10.609c-.427,1.066-3.95,4.514-8.853,3.773-3.726-.563-9.006-5.206-9.92-5.5-2.117-.686.389-12.326.389-12.326Z" transform="translate(-0.038 -343.564)" fill="#191919"/>
        <path id="Path_890" data-name="Path 890" d="M101.022,115.024c-5.516,4.22-3.665,10.04.835,15.192s32.959,26.7,35.164,26.616,9.3-7.155,8.263-10.162-22.424-25.013-26.86-28.605-10.939-7.985-17.4-3.04" transform="translate(-52.763 -60.977)" fill="#ffbd95"/>
        <path id="Path_891" data-name="Path 891" d="M108.566,112.867c2.639-.174,9.059.375,16.615,7.934,5.044,5.046,14.422,14.938,14.422,14.938a24.44,24.44,0,0,1-6.386,9.342c-5.431,4.9-10.552,5.66-10.552,5.66s-20.105-20.166-21.705-25.755c-.478-1.669.284-11.638,7.606-12.12" transform="translate(-54.508 -60.992)" fill="#74a940"/>
        <path id="Path_892" data-name="Path 892" d="M51.123,54.89s-.915,20.013-2.08,20.979c-3.628,3.01-16.778,5.528-19.251,10.774-3,6.359,13.287,34.98,15.4,44.431S42.85,155.15,41.4,164.414s27.668,20.541,28.738,20.544,10.469-8.744,12.259-11.77.083-26.781.1-32.841,1.469-27.29,1.745-28.677c1.843-9.271-.529-16.592-.881-18.553s-.239-5.24-1.22-6.5C80.186,84.12,69.3,80.8,69.12,79.553S67.5,60.93,67.5,60.93Z" transform="translate(-15.905 -29.669)" fill="#ffbd95"/>
        <path id="Path_893" data-name="Path 893" d="M47.86,100.548,65.4,111.073l2.532-6.841s11.515,3.628,13,6.125,2.205,8.851,2.694,10.862.756,11.285-.048,19.323c-.471,4.705-.367,10.922-1.1,18.935-.628,6.86.085,23.933.085,23.933s-6.549.257-16.7-.261c-11.748-.6-23.607-2.425-24.134-2.859-2.262-1.861.911-20.063.5-22.074S27.473,121.3,27.251,116.735a9.315,9.315,0,0,1,5.589-9.289c3.464-1.713,15.02-6.9,15.02-6.9" transform="translate(-14.721 -54.347)" fill="#88bd4f"/>
        <path id="Path_894" data-name="Path 894" d="M34.584,113.757s-11.461,6.318-.121,15.117c4.9,3.8,28.335,9.726,32.747,11.081,15.766,4.841-8.625,39.768-10.5,42.4a12.092,12.092,0,0,0-1.85,6.244l-15.178-1.744c-4.712.92,2.514-21.66.733-26.543S27.259,127.55,27.268,123.875a10.371,10.371,0,0,1,7.316-10.118" transform="translate(-14.739 -61.487)" fill="#74a940"/>
        <path id="Path_895" data-name="Path 895" d="M92.253,76.867,74.5,70.446l-.451,10.512,5.473,3.335Z" transform="translate(-40.023 -38.077)" fill="#ffa47c"/>
        <path id="Path_896" data-name="Path 896" d="M89.7,6.255C85.077,2.337,71.785-.9,65.682,7.993s-2.948,17.321.745,22.468c2.88,4.014,5.607,6.19,10.93,8.336,1.086.437,10.818,1.73,12.726,1,1.3-.5,1.944-10.169,2.331-10.146s1.436-.592,1.462-1.376c.038-1.141-1.463-8.014-1.214-8.755S94.994,10.743,89.7,6.255" transform="translate(-33.643 -1.245)" fill="#ffbd95"/>
        <path id="Path_897" data-name="Path 897" d="M92.474,9.2s-7.524-3.86-16.366,4.853c-1.9,1.876,2.12,9.377,1.652,10.076-.5.749-7.49-5.313-7.2-4.454,3,8.747.295,13.737-.511,13.824-2.445.261-10.485-11.933-7.136-22.181S77.053-.37,79.665.068,90.119.775,92.474,9.2" transform="translate(-33.573 0)" fill="#8d3b26"/>
        <path id="Path_898" data-name="Path 898" d="M84.176,43.011c.973,2.784,1.523,6.568.015,7.08s-3.519-1.33-4.492-4.114-.539-5.457.969-5.969,2.535.218,3.508,3" transform="translate(-42.797 -21.543)" fill="#ffbd95"/>
        <rect id="Rectangle_102" data-name="Rectangle 102" width="11.366" height="2.121" transform="translate(42.251 296.131)" fill="#191919"/>
        <path id="Path_899" data-name="Path 899" d="M89.8,611.8a19.777,19.777,0,0,0-2.643,7.979c-.177,2.239,1.158,6.961,2.631,6.961a109.272,109.272,0,0,1,13.866.771c4.432.6,6.089,3.146,17.423,3.12,3.307-.008,9.143-.206,9.143-1.561,0-5.869-10.873-3.784-14.323-6.965-8.728-8.045-14.543-9.99-14.543-9.99S90.1,611.376,89.8,611.8" transform="translate(-47.099 -330.614)" fill="#191919"/>
        <path id="Path_900" data-name="Path 900" d="M85.987,273.073S70.844,288.208,70.152,294.8s5.683,27.711,7.938,44.317,3.651,19.964,3.088,23.885-5.015,19.792-4.861,30.377c.178,12.334-.473,37.606-.473,37.606s3.3,2.583,11.791,2.542c5.471-.027,10.189-3.9,10.189-3.9s3.414-62.009,4.106-68.524c.447-4.215,3.9-33.307,4.951-57.022.34-7.631-1.414-29.452-1.412-32.607Z" transform="translate(-37.889 -146.735)" fill="#00233f"/>
        <path id="Path_901" data-name="Path 901" d="M98.657,112.836l.77,4.161-9.246-5.488Z" transform="translate(-48.744 -60.272)" fill="#b8d1ff"/>
        <path id="Path_902" data-name="Path 902" d="M110.3,117.382l1.468-5.161L114,113.962Z" transform="translate(-59.62 -60.656)" fill="#b8d1ff"/>
        <path id="Path_903" data-name="Path 903" d="M24.518,272.657s-6.056,14.831-8.458,24.747-5.268,61.233-6.128,66.058-3.877,19.58-6.208,34.16S0,441.483,0,441.483L18.674,444.4S29.8,382.992,31.559,373.341s20.265-78.094,20.265-78.094l2.291-22.029Z" transform="translate(0 -147.373)" fill="#002d56"/>
        <path id="Path_904" data-name="Path 904" d="M25.1,314.6c-1.561,6.573-6.13,51.2-6.5,53.723-.363,2.465-11.917,70.957-12.451,74.121L0,441.483S1.393,412.2,3.724,397.622s5.349-29.335,6.208-34.16S13.658,307.32,16.06,297.4s8.458-24.746,8.458-24.746l16.351.5S26.661,308.025,25.1,314.6" transform="translate(-0.001 -147.373)" fill="#00233f"/>
        <path id="Path_905" data-name="Path 905" d="M51.225,272.019s28.744.48,30.459.525,13.02-1.067,13.02-1.067l.218,4.536s-10.952.913-16.2.913-28.536-1.216-28.536-1.216Z" transform="translate(-27.126 -146.736)" fill="#3b1b1d"/>
        <path id="Path_906" data-name="Path 906" d="M116.648,278.437H114.24a2.454,2.454,0,0,1-2.447-2.447v-.354a2.454,2.454,0,0,1,2.447-2.447h2.408a2.454,2.454,0,0,1,2.447,2.447v.354a2.454,2.454,0,0,1-2.447,2.447" transform="translate(-60.425 -147.661)" fill="#722c1d"/>
        <path id="Path_907" data-name="Path 907" d="M66.853,97.715l3.306-4.393,15.889,9.683-2.531,5.669Z" transform="translate(-36.135 -50.442)" fill="#e0f2ff"/>
        <path id="Path_908" data-name="Path 908" d="M113.5,108.309l3.778,4.334.59-4.623-3.158-3.036Z" transform="translate(-61.346 -56.745)" fill="#e0f2ff"/>
        <path id="Path_909" data-name="Path 909" d="M32.533,120.823c-6.814,1.325-7.823,7.205-6.177,13.636S45.314,177,47.309,177.867s11.5-2.271,11.955-5.342-10.386-36.547-12.684-41.587-6.064-11.667-14.048-10.115" transform="translate(-13.872 -65.182)" fill="#ffbd95"/>
        <path id="Path_910" data-name="Path 910" d="M38.309,120.277c2.437,1.028,7.725,4.327,8.975,9.205,1.77,6.911,7.729,24.692,7.729,24.692a24.44,24.44,0,0,1-9.9,5.486c-7.05,1.941-11.969.328-11.969.328s-8.36-26.963-7.85-32.754c.409-4.647,6.254-9.81,13.014-6.957" transform="translate(-13.66 -64.568)" fill="#88bd4f"/>
        <path id="Path_911" data-name="Path 911" d="M68.887,220.532c-6.127,4.417,4.081,16.285,9.358,21.83s22.287,20.14,22.287,20.14l6.339-5.347a206.951,206.951,0,0,0-23.2-34.188c-1.41-1.647-8.548-6.93-14.783-2.435" transform="translate(-36.208 -118.242)" fill="#ffbd95"/>
        <path id="Path_912" data-name="Path 912" d="M220.814,74.262s1.4-7.248,2.528-8.522,6.441-11.924,7.259-10.619c.952,1.52-2.992,10.375-2.7,10.528s5.16,2.1,6.65,3.608S229.9,80.3,229.9,80.3l-7.049,1.283Z" transform="translate(-119.352 -29.734)" fill="#ffbd95"/>
        <path id="Path_913" data-name="Path 913" d="M195.771,295.726l1.565-1.025a.771.771,0,0,1,.845,1.29l-1.565,1.025a.771.771,0,0,1-.845-1.29" transform="translate(-105.628 -159.221)" fill="#90a4a2"/>
        <path id="Path_914" data-name="Path 914" d="M146.848,313.144h0c-.419-.613,2.053-3.029,2.665-3.448l19.332-13.2a1.35,1.35,0,0,1,1.522,2.229l-19.332,13.2c-.613.419-3.769,1.832-4.188,1.219" transform="translate(-79.347 -160.132)" fill="#4b5b60"/>
        <rect id="Rectangle_103" data-name="Rectangle 103" width="1.372" height="2.927" transform="translate(87.173 137.782) rotate(-35.749)" fill="#90a4a2"/>
        <path id="Path_915" data-name="Path 915" d="M179.91,304.869h0a.434.434,0,0,1,.106-.6l6.374-4.482a.433.433,0,1,1,.5.709l-6.374,4.482a.435.435,0,0,1-.6-.105" transform="translate(-97.2 -161.993)" fill="#c9dad8"/>
        <path id="Path_916" data-name="Path 916" d="M151.714,330.915l.006,0a1.472,1.472,0,0,0,.539-2l-3.116-5.439a1.469,1.469,0,0,0-2.006-.54l-.006,0a1.472,1.472,0,0,0-.539,2l3.116,5.439a1.47,1.47,0,0,0,2.006.54" transform="translate(-79.13 -174.443)" fill="#ffbd95"/>
        <path id="Path_917" data-name="Path 917" d="M157.175,328.436l.006,0a1.471,1.471,0,0,0,.539-2L154.6,321a1.468,1.468,0,0,0-2.005-.54l-.006,0a1.471,1.471,0,0,0-.538,2l3.116,5.44a1.469,1.469,0,0,0,2.006.54" transform="translate(-82.082 -173.103)" fill="#ffbd95"/>
        <path id="Path_918" data-name="Path 918" d="M162.342,325.7l.006,0a1.472,1.472,0,0,0,.539-2l-3.116-5.439a1.469,1.469,0,0,0-2.006-.54l-.006,0a1.471,1.471,0,0,0-.539,2l3.116,5.439a1.469,1.469,0,0,0,2.006.541" transform="translate(-84.875 -171.624)" fill="#ffbd95"/>
        <path id="Path_919" data-name="Path 919" d="M167.077,322.591l.006,0a1.472,1.472,0,0,0,.539-2l-3.116-5.439a1.469,1.469,0,0,0-2.005-.54l-.006,0a1.471,1.471,0,0,0-.539,2l3.116,5.439a1.469,1.469,0,0,0,2.006.541" transform="translate(-87.434 -169.943)" fill="#ffbd95"/>
        <path id="Path_920" data-name="Path 920" d="M140.14,292.523s8.365,6.136,9.58,7.754,3.779,9.107,3.779,9.107-3.482-.768-4.915.344-4.869,4.323-4.869,4.323-4.84-4.884-6.258-7.753a31.986,31.986,0,0,1-2.154-6.018Z" transform="translate(-73.133 -158.111)" fill="#ffbd95"/>
        <rect id="Rectangle_104" data-name="Rectangle 104" width="9.679" height="147.41" transform="translate(62.919 155.393)" fill="#79858e"/>
        <rect id="Rectangle_105" data-name="Rectangle 105" width="9.679" height="147.41" transform="translate(327.494 155.393)" fill="#79858e"/>
        <rect id="Rectangle_106" data-name="Rectangle 106" width="271.287" height="20.961" transform="translate(64.273 157.714)" fill="#79858e"/>
        <g id="Group_83" data-name="Group 83" transform="translate(62.918 167.032)" style="mix-blend-mode: multiply;isolation: isolate">
          <g id="Group_82" data-name="Group 82">
            <g id="Group_81" data-name="Group 81" clip-path="url(#clip-path-3)">
              <path id="Path_921" data-name="Path 921" d="M411.015,368.385,136.93,370.473v-6.958l274.084.075Z" transform="translate(-136.93 -363.515)" fill="#b9b9bd"/>
            </g>
          </g>
        </g>
        <rect id="Rectangle_108" data-name="Rectangle 108" width="298.119" height="12.185" transform="translate(51.252 154.999)" fill="#99a2a9"/>
        <path id="Path_922" data-name="Path 922" d="M695.979,126.255c4.118-2.136,10.644.861,13.918,10.892s10.813,36.485,11.837,40.907,5.072,13.48-3.327,17.4c-8.264,3.852-12-4.994-15.019-11.829-13.395-30.335-18.481-51.623-7.408-57.365" transform="translate(-372.91 -67.89)" fill="#ffbd95"/>
        <path id="Path_923" data-name="Path 923" d="M466.9,237.9c-1.564-4.132-5.048-6.87-16.987-3.933s-36.595,12.031-36.595,12.031l.839,6.659s25.223.891,31.8-.422,25.043-3.518,20.948-14.335" transform="translate(-223.401 -125.795)" fill="#ffbd95"/>
        <path id="Path_924" data-name="Path 924" d="M697.029,249.524c-1.564-4.132-5.048-6.871-16.987-3.933s-36.595,12.031-36.595,12.031l.839,6.659s25.223.891,31.8-.422,25.043-3.518,20.948-14.335" transform="translate(-347.789 -132.08)" fill="#ffbd95"/>
        <path id="Path_925" data-name="Path 925" d="M675.21,668.9s6.571-2.479,9.917-2.376c2.408.073,5.413,2.046,5.565,4.106.059.8-.872,1.77-1.7,2.75-.744.884-10.943,8.01-13.126,8.252-3.766.418-7.773.4-9.812-.336-2.105-.76-2.123-8.041-2.123-8.041Z" transform="translate(-358.862 -360.258)" fill="#191919"/>
        <path id="Path_926" data-name="Path 926" d="M581.986,169.306c-4.571-14.023-16.4-38.063-9.482-42.251,9.013-5.459,34.947-8.818,34.947-8.818v.445s22.167,2.852,31.186,8.3c6.919,4.18-1.113,28.714-5.67,42.741-1.093,3.366-.966,18.455-.541,31.836.1,3.3,2.792,18.476,2.339,24.751-.135,1.872-21.317,13.476-27.253,13.776v-.445c-5.937-.295-27.13-11.876-27.267-13.748-.459-6.274,2.212-21.453,2.314-24.754.411-13.38.524-28.47-.573-31.835" transform="translate(-308.297 -63.909)" fill="#ffbd95"/>
        <path id="Path_927" data-name="Path 927" d="M545.665,132.139c-3.147-3.408-10.3-2.807-16.791,5.516s-22.565,30.641-25.03,34.452-9.35,10.956-2.781,17.491c6.464,6.431,12.984-.619,18.145-6.023,22.9-23.979,34.92-42.274,26.457-51.436" transform="translate(-269.335 -70.369)" fill="#ffbd95"/>
        <path id="Path_928" data-name="Path 928" d="M618.3,90.519c.592-2.672,2.07-15.881,2.07-15.881l8.757-.005v.445l8.757,0s1.491,13.208,2.086,15.88,7.8,6.7,7.8,6.7l-18.635.009v-.445l-18.635.009s7.2-4.035,7.8-6.707" transform="translate(-329.98 -40.34)" fill="#ffa47c"/>
        <path id="Path_929" data-name="Path 929" d="M665.122,321.392c10.685-.038,14.845,7.413,14.56,30.27s-3.681,47.642-5.164,51.2-16.626,3.646-18.111,1.569-5.22-49.495-5.223-56.915,2.3-26.087,13.938-26.128" transform="translate(-351.97 -173.715)" fill="#ffbd95"/>
        <path id="Path_930" data-name="Path 930" d="M670.3,509.11l2.819-.069a7.741,7.741,0,0,0,7.526-7.9l-.233-9.5a7.74,7.74,0,0,0-7.9-7.526l-2.82.069a7.74,7.74,0,0,0-7.526,7.9l.233,9.5a7.74,7.74,0,0,0,7.9,7.526" transform="translate(-357.901 -261.667)" fill="#ffbd95"/>
        <path id="Path_931" data-name="Path 931" d="M671.273,508.067c3.266,0,11.281,1.075,10.846,22.383s-9.474,50.5-9.474,50.5l-7.718,0s-3.786-39.448-3.807-47.016c-.051-17.217-.162-25.864,10.153-25.868" transform="translate(-357.337 -274.614)" fill="#ffbd95"/>
        <path id="Path_932" data-name="Path 932" d="M597.829,321.6c-10.623-1.159-15.541,5.815-17.656,28.575s-1.338,47.766-.237,51.465,16.152,5.369,17.847,3.46,10.384-48.673,11.166-56.053.452-26.184-11.119-27.446" transform="translate(-312.868 -173.764)" fill="#ffbd95"/>
        <path id="Path_933" data-name="Path 933" d="M587.826,508.254l-2.8-.365a7.741,7.741,0,0,1-6.654-8.65l1.228-9.418a7.741,7.741,0,0,1,8.65-6.656l2.8.364a7.74,7.74,0,0,1,6.655,8.65l-1.228,9.42a7.739,7.739,0,0,1-8.65,6.655" transform="translate(-312.581 -261.12)" fill="#ffbd95"/>
        <path id="Path_934" data-name="Path 934" d="M583.027,507.134c-3.247-.344-11.331-.114-13.135,21.122s4.123,51.212,4.123,51.212l7.675.814s7.9-38.833,8.72-46.356c1.856-17.117,2.874-25.7-7.384-26.791" transform="translate(-307.847 -274.074)" fill="#ffbd95"/>
        <path id="Path_935" data-name="Path 935" d="M676.7,311.412s3.851,18.826,4.449,29.067-4.39,55.005-4.4,59.932.325,20.066.017,34.908-4.123,44.059-4.123,44.059l-19-.462s-.059-62.746-.064-72.609-2.406-61.807-2.406-61.807l-.017-32.28Z" transform="translate(-351.953 -168.321)" fill="#00233f"/>
        <path id="Path_936" data-name="Path 936" d="M579.941,310.154s-5.8,18.317-7.474,28.438-1.405,55.162-1.908,60.064-2.428,19.92-3.68,34.713-.466,44.255-.466,44.255l18.941,1.533s6.587-62.4,7.627-72.206,12.328-61.51,12.328-61.51l-.091-33.9Z" transform="translate(-306.019 -167.641)" fill="#00233f"/>
        <path id="Path_937" data-name="Path 937" d="M674.884,676.443s.4,6.795.053,8.8c-.2,1.139-3.106,2.384-8.082,2.685a19.476,19.476,0,0,1-8.192-1.477c-2.2-.981.706-10.384.706-10.384Z" transform="translate(-355.568 -365.419)" fill="#191919"/>
        <path id="Path_938" data-name="Path 938" d="M562.044,665.394s-6.567-2.492-9.913-2.4c-2.408.069-5.417,2.036-5.573,4.095-.061.8.868,1.772,1.69,2.753.742.885,10.927,8.031,13.109,8.278,3.766.426,7.773.416,9.813-.317,2.107-.756,2.138-8.036,2.138-8.036Z" transform="translate(-295.418 -358.354)" fill="#191919"/>
        <path id="Path_939" data-name="Path 939" d="M582.127,348.532c-1.076,6.708-2.332,51.793-2.516,54.351-.18,2.5-6.664,72.033-6.963,75.246l-6.235-.5s-.785-29.463.467-44.255,3.178-29.811,3.68-34.713.238-49.943,1.908-60.064,7.474-28.439,7.474-28.439l25.277,1.386c.211,36.548-28.348,26.793-29.227,28.853-.925,2.169,6.538,5.635,6.136,8.139" transform="translate(-306.019 -167.64)" fill="#0e3854"/>
        <path id="Path_940" data-name="Path 940" d="M668.592,396.373c-1.615,8.475-3.958,49.913-3.651,51s.017,77.189.017,77.189l-.337.2-10.235-.249s-.06-62.746-.064-72.608-1.785-48.1-1.785-48.1,2.849-7.472,7.418-7.06c4.394.4,8.958-2.062,8.636-.373" transform="translate(-352.702 -213.919)" fill="#0e3854"/>
        <path id="Path_941" data-name="Path 941" d="M615.529,31.581c.08,1.147-.56,2.433-.426,4.036.051.622.836,1.449.9,2.1.562,5.439,1.751,11.451,4.832,11.349,5.551-.185,8.894.366,12.645.37,5.632.006,12.88-6.408,14.2-17.82,1.269-11.008-9.789-19.832-20.117-19.682-9.957.144-12.524,7.681-12.132,17.829q.034.9.1,1.821" transform="translate(-332.458 -6.448)" fill="#ffa47c"/>
        <path id="Path_942" data-name="Path 942" d="M633.615,4.459C625.359,2.988,612.561,10.3,617.427,14.8c1.452,1.342,1.754,14.09,1.754,14.09s1.753-.92,2.405-.186,1.149,5.15,1.912,7.13,5.644,9.585,7.032,9.586,10.258.336,11.4-.886,4.99-8.261,6.178-12.1,6.645-24.209-14.5-27.975" transform="translate(-333.145 -2.306)" fill="#8d3b26"/>
        <path id="Path_943" data-name="Path 943" d="M624.876,46.414c.04-.442,2.349-1.861,3.46,1.162.557,1.517-1.421,8.142-1.789,8.142-.918,0-1.878-7.039-1.671-9.3" transform="translate(-337.736 -24.698)" fill="#ffa47c"/>
        <path id="Path_944" data-name="Path 944" d="M569.863,126.77c1.178-1.959,7.5-3.581,13.327-5.4a62.678,62.678,0,0,0,9.272-3.757l28.99.089a43.333,43.333,0,0,0,10.472,2.866c6.539.79,8.253,3.7,9.253,5.758,1.016,2.086,1.438,21.053-7.183,45.884-1.181,3.4,1.872,27.238-1.09,34.37l-25.577,2.355-25.589-2.278c-2.348-8.169.016-31.409-1.163-34.813S567.9,130.042,569.863,126.77" transform="translate(-307.894 -63.573)" fill="#303030"/>
        <path id="Path_945" data-name="Path 945" d="M612.733,114.147l35.368.035-4.958-5.839-25.462-.026Z" transform="translate(-331.187 -58.547)" fill="#191919"/>
        <path id="Path_946" data-name="Path 946" d="M538.643,134.626s-4.272.545-10.059,10.936c-4.053,7.277-19.718,28.715-19.718,28.715a27.1,27.1,0,0,0,9.782,10.079c5.768,3.286,7.593,2.575,7.593,2.575l20.926-22.663Z" transform="translate(-275.047 -72.766)" fill="#303030"/>
        <path id="Path_947" data-name="Path 947" d="M703.9,130.19s6.479,3.86,9.66,16.657c2.01,8.083,8.79,33.706,8.79,33.706a27.1,27.1,0,0,1-12.624,6.157c-6.541,1.131-8.016-.159-8.016-.159l-11.982-28.424Z" transform="translate(-372.806 -70.369)" fill="#303030"/>
        <path id="Path_948" data-name="Path 948" d="M396.505,250.765s-1.973-2.49-2.369-2.8-4.054-2.431-4.763-3.559-.794-2.009-1.024-2.172-2.793.05-2.017,2.219,2.6,3.868,2.511,4.588-4.958,1.146-5.962.815-7.291-3.437-7.61-3.562-1.277-.293-1.521-.017a3.958,3.958,0,0,0,.422,2.365c.27.323-.6.634-.531,1.034s.5,1.765.5,1.765a6.419,6.419,0,0,0,.489,2.246,26.754,26.754,0,0,0,2.688,3.07c.318.163,5.858,3.174,7.334,3.28s9.928-.058,12.518-2.534c1.223-1.169-.665-6.737-.665-6.737" transform="translate(-201.955 -130.906)" fill="#ffbd95"/>
        <path id="Path_949" data-name="Path 949" d="M644.125,315.283l-52.45-.081a1.248,1.248,0,0,1-1.248-1.247l1.087-3.7A1.248,1.248,0,0,1,592.762,309h51.364a1.248,1.248,0,0,1,1.248,1.248v3.784a1.248,1.248,0,0,1-1.248,1.248" transform="translate(-319.131 -167.019)" fill="#191919"/>
        <path id="Path_950" data-name="Path 950" d="M394.073,464.278c3.074,3.4,11.557.314,17.917-3.919,7.2-4.787,16.256-18.615,16.256-18.615L414.9,429.555s-3.784,7.7-10.261,11.7-7.759-1.676-7.759-1.676Z" transform="translate(-213 -232.178)" fill="#b8d1ff"/>
        <path id="Path_951" data-name="Path 951" d="M394.073,476.07s.694-3.791,1.992-4.492a3.553,3.553,0,0,1,4.477.715l-3.657-20.92Z" transform="translate(-213 -243.97)" fill="#cee0ff"/>
        <rect id="Rectangle_109" data-name="Rectangle 109" width="13.718" height="17.01" transform="translate(200.312 138.086)" fill="#b5ccf9"/>
        <path id="Path_952" data-name="Path 952" d="M464.265,317.94,464,316.38c.215-.037,5.274-.95,5.274-5.3,0-4.26-4.8-4.349-5-4.351l.012-1.582c2.273.02,6.57,1.284,6.57,5.933,0,4.558-4.314,6.482-6.595,6.862" transform="translate(-250.798 -164.933)" fill="#b5ccf9"/>
        <rect id="Rectangle_110" data-name="Rectangle 110" width="13.718" height="17.01" transform="translate(93.009 138.104)" fill="#b5ccf9"/>
        <path id="Path_953" data-name="Path 953" d="M195.885,317.98l.261-1.561c-.215-.037-5.274-.95-5.274-5.3,0-4.259,4.8-4.349,5-4.351l-.012-1.582c-2.273.02-6.57,1.284-6.57,5.933,0,4.558,4.314,6.482,6.595,6.862" transform="translate(-102.313 -164.955)" fill="#b5ccf9"/>
      </g>
    </g>
  </g>
</svg>
