<svg id="Group_66" data-name="Group 66" xmlns="http://www.w3.org/2000/svg" xmlns:xlink="http://www.w3.org/1999/xlink" width="257.828" height="286.001" viewBox="0 0 257.828 286.001">
  <defs>
    <clipPath id="clip-path">
      <rect id="Rectangle_81" data-name="Rectangle 81" width="257.828" height="286.002" fill="none"/>
    </clipPath>
    <clipPath id="clip-path-3">
      <rect id="Rectangle_71" data-name="Rectangle 71" width="2.912" height="75.262" fill="none"/>
    </clipPath>
    <clipPath id="clip-path-4">
      <rect id="Rectangle_76" data-name="Rectangle 76" width="237.871" height="7.418" fill="none"/>
    </clipPath>
  </defs>
  <g id="Group_65" data-name="Group 65" clip-path="url(#clip-path)">
    <g id="Group_64" data-name="Group 64">
      <g id="Group_63" data-name="Group 63" clip-path="url(#clip-path)">
        <rect id="Rectangle_68" data-name="Rectangle 68" width="11.686" height="9.14" transform="translate(180.791 167.796)" fill="#99a2a9"/>
        <rect id="Rectangle_69" data-name="Rectangle 69" width="11.599" height="82.449" transform="translate(168.229 185.735)" fill="#99a2a9"/>
        <path id="Path_641" data-name="Path 641" d="M325.551,622.012a6.752,6.752,0,1,1-6.752-6.752,6.752,6.752,0,0,1,6.752,6.752" transform="translate(-174.59 -344.237)" fill="#303030"/>
        <path id="Path_642" data-name="Path 642" d="M464.452,622.012a6.752,6.752,0,1,1-6.752-6.752,6.752,6.752,0,0,1,6.752,6.752" transform="translate(-252.305 -344.237)" fill="#303030"/>
        <path id="Path_643" data-name="Path 643" d="M384.184,614.494H303.593a5.679,5.679,0,0,1,5.679-5.679h69.233a5.678,5.678,0,0,1,5.679,5.679" transform="translate(-169.86 -340.631)" fill="#99a2a9"/>
        <g id="Group_59" data-name="Group 59" transform="translate(175.044 192.922)" style="mix-blend-mode: soft-light;isolation: isolate">
          <g id="Group_58" data-name="Group 58">
            <g id="Group_57" data-name="Group 57" clip-path="url(#clip-path-3)">
              <rect id="Rectangle_70" data-name="Rectangle 70" width="2.912" height="75.262" fill="#99a2a9"/>
            </g>
          </g>
        </g>
        <path id="Path_644" data-name="Path 644" d="M376.6,417.235h-76.03a6.46,6.46,0,0,1-6.46-6.46v-3.719a6.46,6.46,0,0,1,6.46-6.46h76.03a6.46,6.46,0,0,1,6.46,6.46v3.718a6.46,6.46,0,0,1-6.46,6.46" transform="translate(-164.551 -224.133)" fill="#303030"/>
        <path id="Path_645" data-name="Path 645" d="M361.948,252.988H399.7a15.8,15.8,0,0,0,15.751-15.751V185.071a34.624,34.624,0,1,0-69.248,0v52.166a15.8,15.8,0,0,0,15.75,15.751" transform="translate(-193.697 -84.175)" fill="#191919"/>
        <path id="Path_646" data-name="Path 646" d="M365.256,254.616h29.417a12.31,12.31,0,0,0,12.274-12.274V191.119a27.061,27.061,0,0,0-26.982-26.983h0a27.061,27.061,0,0,0-26.982,26.983v51.224a12.31,12.31,0,0,0,12.274,12.274" transform="translate(-197.493 -91.834)" fill="#303030"/>
        <path id="Path_647" data-name="Path 647" d="M398.753,43.18s.522-5.508,5.464-5.4c11.437.251,16.251,6.835,16.561,13.56.407,8.829-6.266,16.527-7.889,27.6-.668,4.559,3.386,7.892,2.966,8.07-1.369.58-22.51,3.352-11.171-26.332,1.807-4.731-5.931-17.5-5.931-17.5" transform="translate(-223.102 -21.137)" fill="#8d3b26"/>
        <path id="Path_648" data-name="Path 648" d="M259.264,243.616c-4.6-.084-21.4-5.334-21.4-5.334l6.87-3.006s16.909-5.826,17.928-3.628,4.529,12.114-3.4,11.968" transform="translate(-133.084 -129.329)" fill="#ffa47c"/>
        <path id="Path_649" data-name="Path 649" d="M313.285,135.2c4.434,1.358,5.827,7.175,3.57,13.271s-32.227,40.186-34.465,40.709-8.348-1.007-8.62-4.128,22.215-35.411,25.083-40.019,8.657-11.6,14.433-9.835" transform="translate(-153.172 -75.488)" fill="#ffa47c"/>
        <path id="Path_650" data-name="Path 650" d="M268.757,425.32s-18.911-18.825-26.942-22.711-42.745-36.874-42.745-36.874l58.194-1.3Z" transform="translate(-111.379 -203.904)" fill="#540000"/>
        <path id="Path_651" data-name="Path 651" d="M293.626,363.259c-1.47,4.409-27.271,5.462-44.394,2.19-16.252-3.106-38.536-5.2-39.731-6.589s-2.863-13.53-1.669-15.449,67.546-13.964,70.931-14.163,21.234,14.9,14.862,34.011" transform="translate(-116.051 -184.213)" fill="#ffa47c"/>
        <path id="Path_652" data-name="Path 652" d="M183.539,568.2c-.092,3.677,1.233,6.1,2,7.986.926,2.272.363,5.9-.772,6.811-3.114,2.487-6.372,1.235-10.04,3.14s-9.575,9.331-12.586,9.814-9.728-.343-10.035-1.789,7.17-6.043,7.17-6.043c11.637-12.192,13.277-18.242,13.277-18.242s11-2.224,10.984-1.677" transform="translate(-85.099 -317.86)" fill="#ffa47c"/>
        <path id="Path_653" data-name="Path 653" d="M156.847,594.414s-2.154,1.539-1.876,2.089c.4.792,3.476.748,4.3.409,7.452-3.055,17.654-10.163,19.827-12.436a11.024,11.024,0,0,0,2.754-5.114c.608.088,2.794,4.344,1.927,7.366a9.532,9.532,0,0,1-1.444,2.565c-1.753,1.4-7.5,3.612-9.1,4.444-3.667,1.9-9.154,9.391-12.165,9.874s-13-.482-13.31-1.927c-.241-1.135,5.6-5.242,9.086-7.268" transform="translate(-82.668 -324.151)" fill="#191919"/>
        <path id="Path_654" data-name="Path 654" d="M221.282,368.155c6.793,8.9,5.58,29.342,4.027,37.034s-16.661,47.121-16.635,49.983-10.458-.835-10.146-2.4c3.1-15.537,3.207-57.937,3.154-62.123s-2.445-21.226.335-26.763c5.71-11.371,15.381-.818,19.265,4.27" transform="translate(-111.072 -200.751)" fill="#ffa47c"/>
        <path id="Path_655" data-name="Path 655" d="M362.852,60.922s-1.3,20.951,0,22.034c4.044,3.372,15.97,6.477,18.718,12.345,3.331,7.113-14.389,29.583-17.522,51.7-1.518,10.713,9.318,30.059,10.91,40.413s-32.521,18.769-33.716,18.769-15.226-9.531-17.217-12.915,4.44-34.143,4.44-40.913-1.728-20.394-2.763-21.589-5.329-5.205-5.329-9.586c0-6.372,9.552-15.355,9.951-17.546s-.425-5.341.676-6.741c2.19-2.788,13.534-8.559,13.734-9.953s-.2-19.313-.2-19.313Z" transform="translate(-179.249 -34.086)" fill="#ffbd95"/>
        <path id="Path_656" data-name="Path 656" d="M312.518,154.984s9.413-21.194,19.447-17.665c13.591,4.78-2.4,28.285-2.4,28.285Z" transform="translate(-174.853 -76.608)" fill="#bd0000"/>
        <path id="Path_657" data-name="Path 657" d="M375.436,74.639l.161,11.338,17.493-9.2.486-13.409Z" transform="translate(-210.056 -35.453)" fill="#ffa47c"/>
        <path id="Path_658" data-name="Path 658" d="M332.149,355.948c-4.479,9.479-23.419,13.189-41.247,13.595-23.492.536-43.787-1.315-45.118-2.579s-2.79-12.707-1.8-14.738,48.08-15.328,51.426-15.874c2.6-.424,32.406-8.808,36.625,3.368,1.18,3.4,2.912,10.3.112,16.229" transform="translate(-136.327 -186.394)" fill="#ffbd95"/>
        <path id="Path_659" data-name="Path 659" d="M241.76,371.938c9.677,5.63,16.123,24.246,17.624,31.948s2.832,50.654,3.948,53.29-9.215,5.1-9.607,3.555c-4.983-19.682-20.6-54.494-22.244-58.342s-4.769-18.835-6.541-25.835c-2.349-9.284,11.286-7.836,16.819-4.616" transform="translate(-125.703 -206.723)" fill="#ffbd95"/>
        <path id="Path_660" data-name="Path 660" d="M286.816,561.031c1.318,3.434,3.47,5.168,4.9,6.617,1.723,1.747,2.59,5.319,1.887,6.589-1.929,3.488-5.418,3.574-8.081,6.736s-5.286,12.279-7.885,13.876-9.121,3.4-9.958,2.179S272,588.7,272,588.7c6.1-15.711,5.306-21.929,5.306-21.929s9.316-6.255,9.512-5.744" transform="translate(-149.715 -313.879)" fill="#ffbd95"/>
        <path id="Path_661" data-name="Path 661" d="M270.364,594.086s-1.4,2.245-.936,2.647c.671.579,3.5-.636,4.134-1.266C279.283,589.8,286,579.334,287.138,576.4a11.031,11.031,0,0,0,.592-5.779c.6-.15,4.241,2.949,4.594,6.072a9.5,9.5,0,0,1-.356,2.922c-1.086,1.963-5.552,6.2-6.716,7.583-2.662,3.16-4.875,12.174-7.473,13.771s-12.2,4.52-13.038,3.3c-.656-.957,3.172-6.982,5.623-10.187" transform="translate(-148.081 -319.26)" fill="#303030"/>
        <path id="Path_662" data-name="Path 662" d="M264.566,124.922l10.163-6s-5.192,7.551-.589,10.565c8.092,5.3,23.408-14.789,23.408-14.789s13.231,5.12,15.12,9.107c4.6,9.708-8.694,29.088-8.694,29.088s-6.724,15.6-7.608,22.861,8.313,24.355,12.069,37.568c.993,3.494,3.039,19.076-2.547,25.982-2.305,2.85-14.533,4.852-14.952,5.633-11.535,21.482-22.181,40.653-22.181,40.653s-28.97-41.109-41.45-52.158c-5.179-4.585-28.386-6.363-28.238-7.426,1.468-10.535,55.353-13.115,55.483-16.051s5.526-17.961,5.872-25.215-1.093-22.318-3.042-24.5-5.309-4.715-5.162-9.291,12.348-26.029,12.348-26.029" transform="translate(-111.378 -64.173)" fill="#d60000"/>
        <path id="Path_663" data-name="Path 663" d="M327.2,208.06s11.911,2.792,20.029,2.158,27.216-8.813,27.216-8.813-6.989,15.4-7.608,22.861,8.233,26.522,8.233,26.522a39.667,39.667,0,0,0-25.36,0c-13.421,4.695-24.689,7.678-24.689,7.678s.788-3.784,1.8-7.275,4.05-12.612,4.071-17.94.532-16.908-3.694-25.191" transform="translate(-181.849 -112.686)" fill="#bd0000"/>
        <path id="Path_664" data-name="Path 664" d="M382.932,220.035c-4.339,1.538-13.267-6.4-19.081-12.673s-22.746-25.468-22.746-25.468l5.375-5.227s33.7,29.27,35.428,30.969,8.5,9.75,1.023,12.4" transform="translate(-190.848 -98.845)" fill="#ffbd95"/>
        <path id="Path_665" data-name="Path 665" d="M430.986,130.236c4.631-.479,8,5.246,8.041,12.889s-7.195,46.245-9.1,47.8-9.182,3.493-10.542.212.52-37.518,1.574-43.807,4-16.473,10.031-17.1" transform="translate(-234.377 -72.851)" fill="#ffbd95"/>
        <path id="Path_666" data-name="Path 666" d="M238.929,233.316s-6.163-3.6-9.078-3.6c-1.556,0-8.291,8.982-8.7,10.839-.206.945,6.509,2.511,8.673,1.36,3.576-1.9,4.167-.309,8.265-1.742s.837-6.858.837-6.858" transform="translate(-123.733 -128.527)" fill="#ffa47c"/>
        <path id="Path_667" data-name="Path 667" d="M419.9,153.814s1.012-23.168,11.642-23.552c14.4-.52,8.105,27.205,8.105,27.205Z" transform="translate(-234.933 -72.877)" fill="#d60000"/>
        <path id="Path_668" data-name="Path 668" d="M390.809,26.44c-2.553,11.84-14.777,19.249-20.822,17.946-5.884-1.268-11.768-12.668-10.316-24.865C361.1,7.494,369.9,1.353,378.848,3.282S393.362,14.6,390.809,26.44" transform="translate(-201.111 -1.641)" fill="#ffbd95"/>
        <path id="Path_669" data-name="Path 669" d="M379.743,9.429c1.127,3.416,4.327,5.624,11.564,6.608,5.181.7,8.149,8.1,7.933,10.959-.082,1.092-1.619,6.287-1.619,6.287s11.759-10.156,2.487-24.462-21.945-7.166-22.1-6.1,1.2,5.065,1.739,6.711" transform="translate(-211.485 0)" fill="#8d3b26"/>
        <path id="Path_670" data-name="Path 670" d="M372.287,9.723s-.264,5.008-4.585,5.778-8.624,4.1-8.624,4.1-.184-11.917,8.344-13.966,4.865,4.085,4.865,4.085" transform="translate(-200.903 -2.92)" fill="#8d3b26"/>
        <rect id="Rectangle_72" data-name="Rectangle 72" width="14.509" height="17.992" transform="translate(122.189 68.919)" fill="#b5ccf9"/>
        <path id="Path_671" data-name="Path 671" d="M308.622,175.094l-.276-1.651c.227-.039,5.578-1,5.578-5.607,0-4.506-5.073-4.6-5.288-4.6l.013-1.673c2.4.021,6.948,1.358,6.948,6.275,0,4.821-4.563,6.856-6.974,7.258" transform="translate(-172.519 -90.393)" fill="#b5ccf9"/>
        <path id="Path_672" data-name="Path 672" d="M312.273,183.956v-.007a1.21,1.21,0,0,1,1.214-1.191l5.153.04a1.208,1.208,0,0,1,1.2,1.219v.006a1.209,1.209,0,0,1-1.214,1.191l-5.153-.04a1.206,1.206,0,0,1-1.2-1.218" transform="translate(-174.716 -102.253)" fill="#ffbd95"/>
        <path id="Path_673" data-name="Path 673" d="M311.829,178.833v-.006a1.209,1.209,0,0,1,1.214-1.191l5.153.04a1.207,1.207,0,0,1,1.2,1.219v.006a1.21,1.21,0,0,1-1.214,1.191l-5.153-.04a1.207,1.207,0,0,1-1.2-1.219" transform="translate(-174.468 -99.387)" fill="#ffbd95"/>
        <path id="Path_674" data-name="Path 674" d="M311.7,173.821v-.006a1.209,1.209,0,0,1,1.214-1.191l5.153.04a1.208,1.208,0,0,1,1.2,1.219v.006a1.21,1.21,0,0,1-1.214,1.191l-5.153-.04a1.208,1.208,0,0,1-1.2-1.219" transform="translate(-174.395 -96.583)" fill="#ffbd95"/>
        <path id="Path_675" data-name="Path 675" d="M312.033,168.975v-.006a1.209,1.209,0,0,1,1.214-1.191l5.153.04a1.208,1.208,0,0,1,1.2,1.219v.006a1.21,1.21,0,0,1-1.215,1.191l-5.153-.04a1.207,1.207,0,0,1-1.2-1.219" transform="translate(-174.582 -93.871)" fill="#ffbd95"/>
        <path id="Path_676" data-name="Path 676" d="M331.095,170.592c-2-1.733-7.791-4.537-9.44-4.755s-8.049.964-8.049.964,1.954,2.185,1.735,3.66-1.134,5.231-1.134,5.231,5.45,1.5,8.077,1.358,5.252-.142,5.252-.142,6.927-3.389,3.56-6.315" transform="translate(-175.462 -92.77)" fill="#ffbd95"/>
        <rect id="Rectangle_73" data-name="Rectangle 73" width="8.428" height="167.5" transform="translate(9.862 117.767)" fill="#79858e"/>
        <rect id="Rectangle_74" data-name="Rectangle 74" width="8.428" height="167.501" transform="translate(239.275 118.501)" fill="#79858e"/>
        <rect id="Rectangle_75" data-name="Rectangle 75" width="234.33" height="22.345" transform="translate(11.547 117.766)" fill="#79858e"/>
        <g id="Group_62" data-name="Group 62" transform="translate(9.832 127.7)" style="mix-blend-mode: multiply;isolation: isolate">
          <g id="Group_61" data-name="Group 61">
            <g id="Group_60" data-name="Group 60" clip-path="url(#clip-path-4)">
              <path id="Path_677" data-name="Path 677" d="M260.191,295.088,22.32,297.313V289.9l237.871.08Z" transform="translate(-22.32 -289.896)" fill="#b9b9bd"/>
            </g>
          </g>
        </g>
        <rect id="Rectangle_77" data-name="Rectangle 77" width="257.828" height="13.835" transform="translate(0 114.466)" fill="#99a2a9"/>
        <path id="Path_678" data-name="Path 678" d="M143.141,195.067H83.624l-6.7-44.755h59.518Z" transform="translate(-43.039 -84.099)" fill="#8e8e8e"/>
        <rect id="Rectangle_78" data-name="Rectangle 78" width="22.876" height="3.433" transform="translate(100.102 110.968)" fill="#8e8e8e"/>
        <rect id="Rectangle_79" data-name="Rectangle 79" width="59.46" height="3.433" transform="translate(40.642 110.968)" fill="#757575"/>
        <path id="Path_679" data-name="Path 679" d="M145.024,150.312,92.262,195.067h59.46Z" transform="translate(-51.62 -84.099)" fill="#7f7f7f"/>
      </g>
    </g>
  </g>
</svg>
