<svg xmlns="http://www.w3.org/2000/svg" xmlns:xlink="http://www.w3.org/1999/xlink" width="345.698" height="316.438" viewBox="0 0 345.698 316.438">
  <defs>
    <clipPath id="clip-path">
      <rect id="Rectangle_99" data-name="Rectangle 99" width="345.698" height="316.438" fill="none"/>
    </clipPath>
    <clipPath id="clip-path-3">
      <rect id="Rectangle_89" data-name="Rectangle 89" width="2.735" height="70.659" fill="none"/>
    </clipPath>
    <clipPath id="clip-path-4">
      <rect id="Rectangle_93" data-name="Rectangle 93" width="225.886" height="7.273" fill="none"/>
    </clipPath>
    <clipPath id="clip-path-5">
      <rect id="Rectangle_96" data-name="Rectangle 96" width="58.757" height="44.225" fill="none"/>
    </clipPath>
  </defs>
  <g id="Group_79" data-name="Group 79" transform="translate(18.849 -82)">
    <g id="Group_78" data-name="Group 78" transform="translate(-18.849 82)" clip-path="url(#clip-path)">
      <g id="Group_77" data-name="Group 77">
        <g id="Group_76" data-name="Group 76" clip-path="url(#clip-path)">
          <path id="Path_681" data-name="Path 681" d="M309.6,178.819l-43.89,48L271.5,129.1l35.922-10.65Z" transform="translate(-144.646 -64.483)" fill="#606e79"/>
          <path id="Path_682" data-name="Path 682" d="M326.3,58.241s-4.164-3.045-13.262-4.028-13.724.6-13.724.6l-1.2-14.771L301.554,25.7,322.6,29.329,326.3,44.9Z" transform="translate(-162.286 -13.993)" fill="#561d10"/>
          <path id="Path_683" data-name="Path 683" d="M299.376,575.393c-.143,2.682-1.8,5.12-2.469,6.447-.8,1.6-.6,4.278.171,5,2.124,1.989,4.567,1.265,7.127,2.862s6.433,7.342,8.6,7.866,7.1.309,7.407-.725-4.872-4.811-4.872-4.811c-7.77-9.542-8.647-14.5-8.647-14.5s-7.293-2.541-7.315-2.142" transform="translate(-161.347 -313.204)" fill="#ffa47c"/>
          <path id="Path_684" data-name="Path 684" d="M314.99,597.162s1.479,1.244,1.246,1.628c-.337.553-2.573.345-3.157.051-5.249-2.652-12.266-8.411-13.718-10.191a8.05,8.05,0,0,1-1.71-3.881c-.447.029-2.283,3-1.826,5.251a6.931,6.931,0,0,0,.9,1.95c1.2,1.12,5.251,3.059,6.37,3.758,2.56,1.6,6.124,7.361,8.288,7.885s9.492.4,9.8-.639c.241-.812-3.773-4.136-6.2-5.812" transform="translate(-160.999 -318.331)" fill="#4f2718"/>
          <path id="Path_685" data-name="Path 685" d="M295.8,595.394s1.538,4.128,1.991,5.514a44.844,44.844,0,0,1,1.155,6.587l.947-.062s-1.244-8.462,3.234-5.923c1.4.792-7.327-6.116-7.327-6.116" transform="translate(-161.023 -324.115)" fill="#4f2718"/>
          <path id="Path_686" data-name="Path 686" d="M321.082,441.279c-7.26,3.757-12.834,17.631-14.206,23.194s-3.914,36.962-4.651,38.918c-.73,1.936,7.212,1.979,7.494.847,2.8-11.225,14.8-39.468,16.145-42.215s6.9-15.447,7.311-16.74c2.133-6.659-7.943-6.152-12.094-4" transform="translate(-164.497 -239.437)" fill="#ffa47c"/>
          <path id="Path_687" data-name="Path 687" d="M435.327,328.157a23.085,23.085,0,0,1,.044,3.777,15.964,15.964,0,0,1-1.044,2.423,2.865,2.865,0,0,0-.056,2.1c.546.426,1.233-.523,1.5-1.112a16.9,16.9,0,0,0,1.1-2.824,15.713,15.713,0,0,0,.606-3.73c-.155-.667-2.144-.634-2.144-.634" transform="translate(-236.312 -178.639)" fill="#ffa47c"/>
          <path id="Path_688" data-name="Path 688" d="M432.727,326.1a21.383,21.383,0,0,1-.985,3.375c-.372.611-.86.686-1.578,1.2-.6.424-1.259,1.209-1.123,1.843s1.122.08,1.661-.19a6,6,0,0,0,2.213-1.919,14.6,14.6,0,0,0,1.548-3.159c.045-.636-1.736-1.144-1.736-1.144" transform="translate(-233.548 -177.517)" fill="#ffa47c"/>
          <path id="Path_689" data-name="Path 689" d="M432.113,325.18a17.9,17.9,0,0,1-1.314,2.648c-.4.45-.816.44-1.49.751-.562.262-1.225.813-1.2,1.357s.923.237,1.411.093a5.03,5.03,0,0,0,2.125-1.255,12.156,12.156,0,0,0,1.75-2.383c.131-.52-1.278-1.211-1.278-1.211" transform="translate(-233.047 -177.018)" fill="#ffa47c"/>
          <path id="Path_690" data-name="Path 690" d="M418.273,315.067c.266.343,1.2-.2,1.746-.938a5.536,5.536,0,0,0,.49-3.558c-.191-.91-.078-2.3.6-2.42a5.687,5.687,0,0,1,3.465,1.7c.615,1.2,1.657,2.759,1.661,3.655a13.843,13.843,0,0,1-.879,3.341,5.863,5.863,0,0,0-.517,2.429.9.9,0,0,0,.8.805c.336.089.5-1.237,1.188-2.249a28.4,28.4,0,0,0,1.9-3.85c.059-.222-.554-4.017-.793-5.152s-3.935-5.8-3.883-6.263-3.586-8.344-3.586-8.344l-6.28,1.584s3.454,5.493,3.484,6.514a19.842,19.842,0,0,1-.479,3.436c-.326,1.958.691,4.361.95,5.306.453,1.648-.283,3.466.131,4" transform="translate(-225.471 -160.169)" fill="#ffbd95"/>
          <path id="Path_691" data-name="Path 691" d="M271.829,560.153s.511,3.808-.495,5.976-4.734,6.7-6.515,6.194S261.114,566.8,260.9,566c-1.344-4.95,1.689-12.826,1.689-12.826Z" transform="translate(-141.838 -301.134)" fill="#8d3b26"/>
          <path id="Path_692" data-name="Path 692" d="M356.652,122.93c3.844-.5,8.2,11.03,9.576,23.737,2.388,22.087,6.4,28.915-.319,30.421-6.1,1.367-7.465-7.588-12.038-26.117-3.575-14.486-5.179-27.007,2.781-28.042" transform="translate(-191.033 -66.911)" fill="#ffa47c"/>
          <path id="Path_693" data-name="Path 693" d="M252.421,106.379c1.98-2.943,11.406-3.011,14.941-3.42,3.611-.418,13.82,1.022,13.82,1.022s10.087,2.138,13.337,3.766c3.182,1.593,12.016,4.881,12.87,8.324,1.291,5.2-18.282,29.281-11.722,46.235,2.177,5.627,14.934,20.5,14.99,26.532.068,7.375-21.693,17.78-21.693,17.78l-1.345.36-1.345.36s-24.049,1.869-27.677-4.551c-2.968-5.253,3.018-31.424,2.271-38.674-1.917-18.617-11.44-53.286-8.447-57.734" transform="translate(-137.097 -56.007)" fill="#ffbd95"/>
          <path id="Path_694" data-name="Path 694" d="M353.132,287.832c3.062,4.7,3.611,13.53,3.151,25.111-.628,15.787-5.993,39.194-6.459,41.465-2.126,10.359-12.21,10.7-14.353,2.762-.59-2.189-5.8-46.6-5.629-51.637s.03-14.249,3.217-20.08c2.372-4.339,15.508-4.621,20.073,2.379" transform="translate(-179.554 -153.705)" fill="#ffa47c"/>
          <path id="Path_695" data-name="Path 695" d="M293.306,75.97c1.5-2.493,3.175-12.593,3.175-12.593l6.412,1.131,6.412,1.13s-1.88,10.063-1.324,12.919,5.08,7.684,5.08,7.684l-13.579-2.394-13.578-2.394s5.9-2.99,7.4-5.483" transform="translate(-155.638 -34.501)" fill="#ffbd95"/>
          <path id="Path_696" data-name="Path 696" d="M375.208,221.937c3.343-1.194,9.86,2.75,14.3,13.181,5.122,12.021,12.739,29.121,9.89,30.478-1.333.636-3.091-.431-4.352-2.983-2.646-5.352-9.732-12.963-14.814-19.811-7.836-10.561-11.462-18.568-5.029-20.865" transform="translate(-202.451 -120.704)" fill="#ffbd95"/>
          <path id="Path_697" data-name="Path 697" d="M302.148,77.2s1.821-5.753,1.823-5.763c.43-1.866.8-3.75,1.04-5.068l0-.019,6.158-.711.562.1,6.412,1.13s-1.88,10.063-1.324,12.919,5.08,7.684,5.08,7.684-8.421-3.738-9.97-4.616-9.786-5.656-9.786-5.656" transform="translate(-164.481 -35.733)" fill="#ffa47c"/>
          <path id="Path_698" data-name="Path 698" d="M324.7,30.268c-1.783,10.073-11.869,16.709-17.012,15.8-5.006-.886-10.328-10.323-9.485-20.664.831-10.2,8.065-15.655,15.677-14.307s12.6,9.1,10.82,19.172" transform="translate(-162.286 -5.93)" fill="#ffbd95"/>
          <path id="Path_699" data-name="Path 699" d="M313.68,16.663c1.059,2.848,3.829,4.611,9.967,5.215,4.395.433,7.132,6.582,7.039,9-.035.924,3.174,18,3.174,18s5.263-21.579-3.01-33.363S312.1,10.151,312,11.052s1.168,4.238,1.678,5.61" transform="translate(-169.842 -4.626)" fill="#8d3b26"/>
          <path id="Path_700" data-name="Path 700" d="M307.524,16.877s-.053,4.3-3.689,5.02c-6.875,1.365-5.673,26.083-5.673,26.083s-7.4-30.963,5.128-34.4c7.144-1.959,4.235,3.3,4.235,3.3" transform="translate(-161.129 -7.155)" fill="#8d3b26"/>
          <path id="Path_701" data-name="Path 701" d="M274.923,538.643s-.99,10.943-1.462,12.1-3.531,5.061-5.155,4.4c-4.539-1.86-4.782-11.26-3.437-13.919.782-1.549,1.526-3.212,2.124-4.272a17.441,17.441,0,0,1,3.01-4.124Z" transform="translate(-143.797 -290.051)" fill="#ffbd95"/>
          <path id="Path_702" data-name="Path 702" d="M307.634,427.875c4.27,3.85,4.475,7.488-1.758,18.015s-25.4,37.135-26.68,36.251-6.161-4.769-3.664-7.827c1.69-2.07,1.972-6.037,4.253-12.135,3.925-10.5,9.192-23.7,10.471-25.865,2.022-3.421,10.548-14.6,17.379-8.438" transform="translate(-149.61 -231.932)" fill="#ffbd95"/>
          <path id="Path_703" data-name="Path 703" d="M265.091,296.492c-1.217,5.472,1.371,13.936,5.868,24.618,6.132,14.562,19.376,34.593,20.609,36.555,5.629,8.952,15.191,5.731,14.409-2.454-.216-2.257-10.931-45.665-12.864-50.325s-5.032-13.331-10.063-17.671c-3.745-3.23-16.144,1.12-17.959,9.278" transform="translate(-144.144 -155.767)" fill="#ffbd95"/>
          <path id="Path_704" data-name="Path 704" d="M301.993,112.1l-.052,24.212s-5.641,16.671-3.489,24.893,11.206,17.579,16.4,28.99,0,48.727,0,48.727-13.858,4.438-18.212-.094-11.085-2.99-13.579-1.14-8.79,8.019-8.79,8.019-12.593-20.277-15.254-39.244c-2.126-15.162,3.547-34.15,2.429-41.866s-5.71-38.853-5.71-38.853,6.534.659,13.652,1c2.145.1-4.187-19.983-2.1-19.963,5.072.05,6.789,21.813,19.473,18.954,9.428-2.125,9.207-16.617,9.207-16.617Z" transform="translate(-139.214 -58.132)" fill="#002d56"/>
          <path id="Path_705" data-name="Path 705" d="M278.235,179.377c2.776-1.85,20.123,3.932,27,2.544,5.479-1.106,7.8-6.264,8.522-8.336-1.119,3.548-5.052,16.9-3.2,23.986,2.152,8.223,11.207,17.579,16.4,28.99s0,48.727,0,48.727-13.858,4.438-18.212-.094c-.077-.079-.165-.124-.244-.2l-7.875-23.219s12.768,3.7,12.574-7.4-11.14-36.083-14.333-42.559-23.407-20.586-20.631-22.436" transform="translate(-151.321 -94.495)" fill="#00233f"/>
          <path id="Path_706" data-name="Path 706" d="M265.931,103.046a122.209,122.209,0,0,1,4.6,16.07c1.154,6.563-10.591,59.947-12.544,71.036s-1.252,28.283-1.252,28.283l-6.606-6.426s4.614-28.774,4.5-44.594-6.47-54.493-5.259-59.58,16.563-4.789,16.563-4.789" transform="translate(-135.665 -56.093)" fill="#99a2a9"/>
          <path id="Path_707" data-name="Path 707" d="M348.128,113.559s3.126,24.706,2.76,30.952,3.579,31.643,3.579,31.643,6.592-50.665,5.98-53.921c-.846-4.49-12.319-8.675-12.319-8.675" transform="translate(-189.511 -61.818)" fill="#99a2a9"/>
          <path id="Path_708" data-name="Path 708" d="M251.338,107.943c3.346-1.236,7.9,6.293,9.9,15.366,3.482,15.77,7.436,19.906,1.626,22.534-5.274,2.386-7.035-3.917-12.213-16.567-4.049-9.889-6.243-18.773.686-21.333" transform="translate(-134.383 -58.688)" fill="#ffa47c"/>
          <path id="Path_709" data-name="Path 709" d="M268.928,145.768c-2.183-2.7,3.384-10.8,13.9-17.551,12.124-7.777,29.329-19.165,31.13-16.663,2.46,3.415-11.7,14.079-21.795,24.071-10.229,10.122-18.719,15.738-23.24,10.143" transform="translate(-146.141 -60.535)" fill="#ffa47c"/>
          <path id="Path_710" data-name="Path 710" d="M350.48,100.355s2.108-1.507,1.705-5.339a9.187,9.187,0,0,1,2.48-6.957,39.553,39.553,0,0,1,3.471-3.858c1.141-.306.749,1.083,1.081.97s1.53-.5,1.639.66c.112,1.191.41.949.808,1.1s.59,1.109.36,1.608c-.2.444.43.711.415,1.353a3.3,3.3,0,0,1-.893,1.864,6.656,6.656,0,0,0-1.745,4.967c-.023,2.39-.248,6.215-4,7.153s-5.317-3.516-5.317-3.516" transform="translate(-190.791 -45.812)" fill="#ffa47c"/>
          <path id="Path_711" data-name="Path 711" d="M502.028,7.5s1.852-7.8,9.613-7.494c6.64.26,11.926,6.433,9.5,15.856-2.69,10.432-.855,19.137.139,18.959s.722,2.537-1.5,3.025-9.031.354-9.64-6.988a22.393,22.393,0,0,0-4.33-11.766Z" transform="translate(-273.289 -0.001)" fill="#6d361a"/>
          <path id="Path_712" data-name="Path 712" d="M492.132,584.259a3.1,3.1,0,0,1,1.828,2.593c.061,1.42.206,10.312.206,10.312a13.237,13.237,0,0,0-4.137,2.624c-1.839,1.647-3.516,5.23-5.994,6.255-3.04,1.257-6.562,1.359-7.922.79-1.124-.469-.732-2.983.885-5.568,2.449-3.914,5.4-8.64,5.4-8.64Z" transform="translate(-258.833 -318.053)" fill="#8d3b26"/>
          <path id="Path_713" data-name="Path 713" d="M488,579.3a37.508,37.508,0,0,1-.9,5.283,65.187,65.187,0,0,1-3.5,10.565c-1.155,2.257-.955,3.909,2.607,2.866s9.221-10.174,10.287-14.018c.483-1.739-.565-3.574-.778-4.7-.5-2.634-7.715,0-7.715,0" transform="translate(-262.914 -314.717)" fill="#ffbd95"/>
          <path id="Path_714" data-name="Path 714" d="M582.2,608.189s2.143,3.1,2.292,5.483-.884,8.152-2.585,8.563-5.56-3.071-6.1-3.665c-3.348-3.7-4.4-12.066-4.4-12.066Z" transform="translate(-311.06 -330.163)" fill="#8d3b26"/>
          <path id="Path_715" data-name="Path 715" d="M577.988,588.922s4.127,10.08,4.257,11.318-.63,6.136-2.274,6.331c-4.593.546-9.042-7.586-9.132-10.566s-.236-6.2-.236-6.2Z" transform="translate(-310.62 -320.592)" fill="#ffbd95"/>
          <path id="Path_716" data-name="Path 716" d="M436.755,111.75c-3.142-2.182-12.192,5.944-19.161,16.456-12.112,18.271-18.728,22.433-13.521,26.8,4.725,3.965,9.984-3.262,22.4-17.425,9.7-11.072,16.791-21.317,10.285-25.835" transform="translate(-218.989 -60.64)" fill="#191919"/>
          <path id="Path_717" data-name="Path 717" d="M463.143,274.239c-1.792,4.672-3.16,9.023-2.536,11.441,1.818,7.046,22.628,13.021,22.628,13.021h1.374V275.853c-8.019,0-13.448-1.614-21.467-1.614" transform="translate(-250.657 -149.288)" fill="#002d56"/>
          <path id="Path_718" data-name="Path 718" d="M460.383,283.574c-2.66,4.85-2.537,13.584-1.215,24.944,1.8,15.485,6.885,40.151,7.514,42.35,2.87,10.032,12.753,9.61,14.264,1.639.417-2.2,3.8-46.7,3.245-51.652s-3.253-14.017-6.826-19.515c-2.66-4.092-13.017-5-16.982,2.233" transform="translate(-249.46 -151.443)" fill="#002d56"/>
          <path id="Path_719" data-name="Path 719" d="M507.619,112.927c-1.42-3.2-8.766-4.616-12.132-5.619-3.437-1.024-13.606-1.374-13.606-1.374s-16.087,1.607-19.57,1.478c-1.472-.055-2.557,5.251-3.124,6.764-3.184,8.49-6.971,18.372,1.006,25.261,1.82,1.572,3.41,19.49,3.41,27.79a44.427,44.427,0,0,1-3.189,15.393c8.019,0,13.448,1.614,21.467,1.614h24.055c-2.48-6.465-5.155-13.606-5.777-17.006-4.673-25.538,9.6-49.464,7.459-54.3" transform="translate(-247.93 -57.667)" fill="#ffbd95"/>
          <path id="Path_720" data-name="Path 720" d="M492.511,440.444c-.412-15.386-4.672-18.413-10.174-18.41-8.8,0-7.332,16.437-7.194,21.434.134,4.886,6.791,44.549,8.5,50.859h7.715c1.014-10.767,1.49-41.276,1.153-53.883" transform="translate(-258.559 -229.743)" fill="#002d56"/>
          <path id="Path_721" data-name="Path 721" d="M445.3,108.636c5.347-.031,8.445,3.409,6.1,12.313s-11.519,19.435-11.519,19.435L426.276,128.99s13.971-20.325,19.023-20.354" transform="translate(-232.052 -59.138)" fill="#74a940"/>
          <path id="Path_722" data-name="Path 722" d="M504.567,79.2c-1.031-2.68-.928-12.781-.928-12.781H490.79s.1,10.1-.928,12.781-6.253,6.6-6.253,6.6H510.82s-5.222-3.917-6.253-6.6" transform="translate(-263.263 -36.157)" fill="#ffbd95"/>
          <path id="Path_723" data-name="Path 723" d="M507.619,112.927c-1.42-3.2-10.465-5.99-13.831-6.993a21.159,21.159,0,0,1-18.125,7.383c-3.765-.391-7.387-6.009-7.387-6.009-1.98-.078-4.553.157-5.965.1-1.472-.055-2.557,5.251-3.124,6.764-3.184,8.49-6.971,18.372,1.006,25.261,1.82,1.572,3.41,19.49,3.41,27.79a44.427,44.427,0,0,1-3.189,15.393c8.019,0,13.448,1.614,21.467,1.614h24.055c-2.48-6.465-5.155-13.606-5.777-17.006-4.673-25.538,9.6-49.464,7.459-54.3" transform="translate(-247.93 -57.667)" fill="#88bd4f"/>
          <path id="Path_724" data-name="Path 724" d="M554.993,500.378c.072-5.392-5.074-47.86-6.362-53s-3.739-24.524-15.941-20.661c-5.264,1.666-6.349,5.5-2.373,21.313,3.233,12.859,12.8,43.146,17.087,53.921,2.5-.228,7.585-1.238,7.589-1.577" transform="translate(-287.383 -232.019)" fill="#00233f"/>
          <path id="Path_725" data-name="Path 725" d="M513.47,277.782V300.63h1.374s23.4-4.36,25.217-11.406c.624-2.418-.745-6.77-2.536-11.442Z" transform="translate(-279.518 -151.216)" fill="#002d56"/>
          <path id="Path_726" data-name="Path 726" d="M541.029,283.515c2.95,4.679,3.36,13.4,2.732,24.823-.856,15.567-4.652,38.636-5.146,40.869-2.253,10.188-14.056,10.319-16.05,2.455-.55-2.168-5.027-46.06-4.78-51.032s.243-14.058,3.475-19.763c2.405-4.246,15.371-4.327,19.769,2.649" transform="translate(-281.862 -151.295)" fill="#002d56"/>
          <path id="Path_727" data-name="Path 727" d="M503.7,71.416c-.087-2.694-.065-5-.065-5H490.79s.1,10.1-.928,12.781-6.253,6.6-6.253,6.6l20.1-14.375Z" transform="translate(-263.263 -36.157)" fill="#ffa47c"/>
          <path id="Path_728" data-name="Path 728" d="M501.968,29.724c.136,10.094-8.41,18.393-13.563,18.463-5.016.068-11.922-8.093-13.02-18.272C474.3,19.878,480.3,13.249,487.932,13.146s13.9,6.485,14.036,16.579" transform="translate(-258.717 -7.155)" fill="#ffbd95"/>
          <path id="Path_729" data-name="Path 729" d="M492.5,19c1.554,2.564,5.06,3.308,11.121,2.757,4.339-.395,5.455,4.056,5.813,6.417a36.921,36.921,0,0,1-.356,4.786s6.447-8.633-2.527-19.649c-6.233-7.651-15.185-2.549-16.723-.916-.613.652,1.924,5.368,2.672,6.6" transform="translate(-266.596 -5.018)" fill="#8d3b26"/>
          <path id="Path_730" data-name="Path 730" d="M484.016,18.571c-.126,1.532-1.5,5.415-5.1,6.038-5.786,1-5.57,6.874-5.57,6.874S466.95,19.158,476.6,14.924c6.158-2.7,7.534,2.25,7.419,3.648" transform="translate(-256.544 -7.692)" fill="#8d3b26"/>
          <path id="Path_731" data-name="Path 731" d="M491.08,159.089c-6.483,2.562-12.752-1.309-17.985-.916-10.984.823-14.74-5.391-16.368-7.811-1.582-2.352-.093-10.251-.009-10.7-1.9,6.5-2.335,13.113,3.479,18.134,1.82,1.572,3.41,19.49,3.41,27.79a44.426,44.426,0,0,1-3.189,15.392A113.151,113.151,0,0,1,473.87,202.1s-.707-6.036-1.419-9.132,0-12.139,2.631-17.265,18.091-8.34,19.6-9.857c4.3-4.339,7-10.949-3.6-6.761" transform="translate(-247.933 -76.03)" fill="#74a940"/>
          <path id="Path_732" data-name="Path 732" d="M526.513,382.9c-.831-5.571-2.084-30.615-3.76-44.267-1.237-10.073-3.738-11.2-4.965-11.107,0,.033,0,.075,0,.108-.231,4.925,3.649,45.808,4.617,53.14.081,3.112.858,7.432,2.393,13.533,3.234,12.859,12.8,43.146,17.088,53.921.637-.058,2.871-.2,3.719-.339l1.742-.564s-10.082-34.821-15.7-51.842c-1.467-4.443-4.5-8.391-5.128-12.583" transform="translate(-281.861 -178.293)" fill="#00233f"/>
          <path id="Path_733" data-name="Path 733" d="M463.206,289.159c-.413-6.308,7.583-11.944,11.2-13.894-5.079-.325-12.6-1.026-12.6-1.026-4.969,7.393-4.1,20.765-2.777,32.125,1.778,15.275,6.738,39.437,7.477,42.2-1.181,5.107-.68,11.612-.6,14.445.134,4.887,6.791,44.549,8.5,50.859l-5.03-62.587s-5.6-53.422-6.172-62.126" transform="translate(-249.324 -149.288)" fill="#00233f"/>
          <path id="Path_734" data-name="Path 734" d="M395.733,159.606c-3.242,1.3-8.5-4.27-10.708-13.521-2.547-10.66-6.478-25.841-3.556-26.877,3.988-1.413,8.389,11.272,13.681,20.678,5.361,9.529,7.3,17.019.583,19.72" transform="translate(-207.097 -64.834)" fill="#ffa47c"/>
          <path id="Path_735" data-name="Path 735" d="M582.111,218.518c3.363.724,4.421,9.715.919,20.518-4.035,12.451-9.535,30.372-12.485,29.578-4.026-1.084-.332-16.766.771-29.676,1.116-13.078,3.832-21.919,10.8-20.42" transform="translate(-309.589 -118.865)" fill="#ffbd95"/>
          <path id="Path_736" data-name="Path 736" d="M546.448,116.948c4.038-1.579,11.048,9.406,15.081,22.453,7.009,22.676,12.7,28.789,5.77,32.219-6.292,3.112-9.562-5.972-18.208-24.293-6.76-14.322-11-27.109-2.643-30.379" transform="translate(-294.95 -63.58)" fill="#303030"/>
          <path id="Path_737" data-name="Path 737" d="M376.895,108.253s.357-3.487,1.181-4.5,2.68-5.023,2.385-7.162.863-5.737,1.156-6.343-1-.85-1.935.045-1.175,5.352-1.878,5.428-2.5-12.091-3.406-12.21c-1.368-.181.16,8.193-.355,8.352-1.105.339-2.172-8.369-3.294-8.372-1.445,0,.854,9.062.319,9.136s-3.6-7.437-4.645-7.071c-1.309.455,2.795,7.714,2.113,8.008-.413.177-3.565-3.8-4.21-3.16-.379.38,2.825,4.819,3.271,5.617s2.754,7.887,3.676,8.216,2.11,3.591,2.11,3.591Z" transform="translate(-198.311 -45.449)" fill="#ffa47c"/>
          <path id="Path_738" data-name="Path 738" d="M395.711,166.069c-3.242,1.3-7.873-1.533-11.231-13.229a128.266,128.266,0,0,1-4.082-20.347c-.2-1.593,6.8-2.369,7.917-.123,2.909,5.829,4.611,8.279,7.825,14.684,5.088,10.138,6.285,16.313-.429,19.014" transform="translate(-207.075 -71.298)" fill="#191919"/>
          <path id="Path_739" data-name="Path 739" d="M581.833,218.521c3.363.724,4.842,9.556,1.34,20.359-2.922,9.015-5.664,18.006-7.227,21.84-.707,1.735-7.787-.678-7.747-1.57.161-3.61,1.046-7.184,2.148-20.094,1.117-13.079,4.523-22.034,11.486-20.535" transform="translate(-309.311 -118.867)" fill="#303030"/>
          <path id="Path_740" data-name="Path 740" d="M537.222,117.236c2.23-4.861,8.4-6.9,14.152.293s7.793,22.462,7.793,22.462l-17.261,4.128s-9.23-16.974-4.684-26.883" transform="translate(-291.763 -61.426)" fill="#88bd4f"/>
          <path id="Path_741" data-name="Path 741" d="M560.425,314.411s-2.1,1.668-2.374,2-2.171,3.4-3.113,4-1.653.68-1.8.873-.113,2.33,1.667,1.663,3.243-2.2,3.814-2.135.647,4.127.325,4.967-3.155,6.112-3.272,6.379-.305,1.067-.1,1.268,1.644-.144,1.917-.372.475.493.8.434,1.442-.433,1.442-.433a5.211,5.211,0,0,0,1.827-.428,24.3,24.3,0,0,0,2.607-2.269c.149-.267,2.866-4.915,3.032-6.147s-1.022-9.186-1.022-9.186Z" transform="translate(-301.085 -171.156)" fill="#ffbd95"/>
          <path id="Path_742" data-name="Path 742" d="M545.945,147.265c.119,6.691-5.383,8.78-11.967,8.469s-39.9-8.885-41.152-10.6-.167-11.3,2.721-12.323,32.312,1.944,37.68,3.142,12.579,3.474,12.718,11.315" transform="translate(-268 -72.183)" fill="#ffbd95"/>
          <path id="Path_743" data-name="Path 743" d="M559.247,140.7c-1.45-2.1-5.71-6.613-15.941-7.789-6.83-.786-19.914-1.94-19.914-1.94a23.551,23.551,0,0,0-3.227,10.417c-.443,7.032,2.048,11.355,2.048,11.355s27.263,3.1,32.441.958c1.546-.639,8.615-7.186,4.593-13" transform="translate(-283.134 -71.298)" fill="#b8d1ff"/>
          <path id="Path_744" data-name="Path 744" d="M457.26,129.994c-2.039,6.987-16.1,1.535-22.839-1.473s-26.384-15.239-26.384-15.239l3.308-4.87s19.956,1.628,38.944,8.939c1.95.75,9.045,5.534,6.97,12.643" transform="translate(-222.123 -59.016)" fill="#ffbd95"/>
          <path id="Path_745" data-name="Path 745" d="M714.094,653.115s-4.625,8.535-3.891,10.37c.418,1.042,3.862,4.412,8.654,3.687,3.643-.55,8.8-5.088,9.7-5.378,2.07-.671-.38-12.048-.38-12.048Z" transform="translate(-386.571 -353.703)" fill="#191919"/>
          <path id="Path_746" data-name="Path 746" d="M596.388,72.581s5.927,18.664,7.271,19.282c4.186,1.924,17.24.975,20.9,5.3,4.439,5.246-4.37,40.648-3.976,50.106s8.894,25.448,10.31,34.5S603.85,201.854,602.8,201.856s-10.233-8.547-11.983-11.505.526-21.5-1.022-27.217-9.706-27.324-10.318-28.564c-4.086-8.287-3.7-15.8-3.862-17.74s-1.1-5.008-.491-6.442c1.212-2.855,10.656-8.744,10.505-9.966s-3.185-17.993-3.185-17.993Z" transform="translate(-312.973 -39.511)" fill="#ffbd95"/>
          <path id="Path_747" data-name="Path 747" d="M602.529,114.9l-13.9,14.376-4.122-5.818s-8.914-.494-9.578,1.339c-.969,2.672-2.617,15.414-1.9,20.869.263,2.005,3.1,8.649,5.889,16.035,1.636,4.323,3.11,10.22,5.829,17.6,2.329,6.318,3.622,19.957,3.622,19.957s6.4.251,16.322-.255c11.484-.585,23.075-2.371,23.591-2.794,2.211-1.819-6.407-22.019-6.531-24.02s5.282-42.849,4.337-47.219a9.106,9.106,0,0,0-7.627-7.356c-3.7-.741-15.927-2.713-15.927-2.713" transform="translate(-311.843 -62.549)" fill="#cee0ff"/>
          <path id="Path_748" data-name="Path 748" d="M653.974,120.1s12.42,3.065,3.939,14.243c-3.661,4.825-7.117,22.716-10.94,25.111-13.661,8.559,2.216,32.054,4.045,34.631a11.822,11.822,0,0,1,1.809,6.1l14.836-1.7c4.606.9-8.538-23.627-8.091-28.688s4.807-38.526,3.869-41.994a10.138,10.138,0,0,0-9.467-7.7" transform="translate(-349.2 -65.377)" fill="#b8d1ff"/>
          <path id="Path_749" data-name="Path 749" d="M594.311,97.534,609.45,86.98l3.086,9.811-4.324,4.534Z" transform="translate(-323.525 -47.349)" fill="#ffa47c"/>
          <path id="Path_750" data-name="Path 750" d="M568.594,34c3.372-4.868,15.1-11.29,23.116-4.434s7.165,15.608,4.981,21.4c-1.7,4.519-3.728,7.263-8.211,10.636-.914.688-9.777,4.37-11.763,4.16-1.359-.143-4.408-9.11-4.768-8.99a1.71,1.71,0,0,1-1.729-.929c-.324-1.068-.645-7.936-1.069-8.573s-4.421-7.694-.557-13.271" transform="translate(-308.617 -14.468)" fill="#ffbd95"/>
          <path id="Path_751" data-name="Path 751" d="M567.015,38.016s6.128-5.549,16.68.442c2.271,1.289.371,9.39.989,9.931.663.58,5.728-6.911,5.667-6.026-.623,9.019,3.2,13.046,3.98,12.923,2.375-.372,6.881-13.92,1.126-22.748s-16.3-7.455-18.657-6.379-9.693,3.312-9.786,11.858" transform="translate(-308.666 -13.81)" fill="#8d3b26"/>
          <path id="Path_752" data-name="Path 752" d="M610.081,64.373c-.214,2.875.223,6.587,1.777,6.689s2.986-2.146,3.2-5.021-.871-5.289-2.425-5.391-2.339.847-2.552,3.722" transform="translate(-332.083 -33.012)" fill="#ffbd95"/>
          <rect id="Rectangle_82" data-name="Rectangle 82" width="11.11" height="2.073" transform="translate(290.436 300.016)" fill="#191919"/>
          <path id="Path_753" data-name="Path 753" d="M613.661,626.259a19.336,19.336,0,0,1,2.583,7.8c.174,2.189-1.132,6.8-2.572,6.8a106.75,106.75,0,0,0-13.553.755c-4.333.583-5.952,3.075-17.031,3.049-3.233-.008-8.936-.2-8.936-1.526,0-5.737,10.628-3.7,14-6.809,8.532-7.864,14.216-9.765,14.216-9.765s10.993-.727,11.292-.308" transform="translate(-312.552 -340.846)" fill="#191919"/>
          <path id="Path_754" data-name="Path 754" d="M624.83,292.335s14.8,14.794,15.479,21.242-5.555,27.087-7.759,43.319-3.569,19.515-3.018,23.348,4.9,19.346,4.752,29.693c-.174,12.056.463,36.759.463,36.759s-3.223,2.525-11.525,2.485c-5.347-.026-9.96-3.814-9.96-3.814s-3.337-60.613-4.014-66.982c-.438-4.12-3.808-32.557-4.84-55.738-.332-7.459,1.383-28.789,1.38-31.873Z" transform="translate(-328.998 -158.289)" fill="#191919"/>
          <path id="Path_755" data-name="Path 755" d="M606.761,133.343l.325,4.124,7.342-7.521Z" transform="translate(-330.303 -70.739)" fill="#b8d1ff"/>
          <path id="Path_756" data-name="Path 756" d="M602.277,141.074l-2.691-4.5-1.66,2.207Z" transform="translate(-325.493 -74.346)" fill="#b8d1ff"/>
          <path id="Path_757" data-name="Path 757" d="M665.3,291.937s5.92,14.5,8.268,24.19,5.15,59.855,5.99,64.571,3.789,19.139,6.068,33.39,3.64,42.873,3.64,42.873l-18.253,2.851s-10.88-60.025-12.595-69.458-19.809-76.336-19.809-76.336l-2.239-21.533Z" transform="translate(-346.422 -158.922)" fill="#303030"/>
          <path id="Path_758" data-name="Path 758" d="M680.2,332.934c1.526,6.426,5.991,50.047,6.354,52.513.354,2.41,11.649,69.359,12.171,72.453l6.008-.939s-1.36-28.622-3.64-42.873-5.228-28.675-6.068-33.391-3.641-54.878-5.99-64.572-8.267-24.189-8.267-24.189l-15.983.486s13.889,34.086,15.415,40.512" transform="translate(-361.892 -158.921)" fill="#191919"/>
          <path id="Path_759" data-name="Path 759" d="M649.732,291.3s-28.1.47-29.774.514-12.727-1.043-12.727-1.043l-.213,4.434s10.705.892,15.836.892,27.893-1.189,27.893-1.189Z" transform="translate(-330.443 -158.289)" fill="#3b1b1d"/>
          <path id="Path_760" data-name="Path 760" d="M628.991,297.592h2.353a2.4,2.4,0,0,0,2.393-2.392v-.346a2.4,2.4,0,0,0-2.392-2.392h-2.354a2.4,2.4,0,0,0-2.392,2.392v.346a2.4,2.4,0,0,0,2.392,2.392" transform="translate(-341.102 -159.208)" fill="#722c1d"/>
          <path id="Path_761" data-name="Path 761" d="M604.76,139.1l-6.65.062,1.863,4.948,3.354-.113Z" transform="translate(-325.593 -75.723)" fill="#191919"/>
          <path id="Path_762" data-name="Path 762" d="M598.679,149.963a50.324,50.324,0,0,0-2.425,24.6c2,14.182,1.831,46.288,1.831,46.288l3.7,6.508,4.472-7.686s-3.03-35.026-4.7-45.362.472-24.457.472-24.457Z" transform="translate(-324.3 -81.574)" fill="#191919"/>
          <path id="Path_763" data-name="Path 763" d="M623.546,111.824l-4.232-3.311-12.553,13.163,3.824,4.712Z" transform="translate(-330.303 -59.071)" fill="#e0f2ff"/>
          <path id="Path_764" data-name="Path 764" d="M596.554,133.187l-2.47,5.047-1.727-4.215,2.213-3.666Z" transform="translate(-322.462 -70.961)" fill="#e0f2ff"/>
          <path id="Path_765" data-name="Path 765" d="M655.343,124.637c3.752-5.654,9.438-4.359,14.625-.462s31.289,33.068,31.324,35.195-6.364,9.532-9.3,8.788-29.1-23.082-32.784-27.047-8.257-9.849-3.861-16.474" transform="translate(-355.769 -65.769)" fill="#ffbd95"/>
          <path id="Path_766" data-name="Path 766" d="M652.7,129.839c.014,2.586,1.009,8.6,4.943,11.554,5.575,4.19,19.39,16.237,19.39,16.237a23.886,23.886,0,0,0,8.664-6.877c4.4-5.636,4.785-10.681,4.785-10.681s-21.2-17.659-26.622-19.371c-4.348-1.373-11.2,1.966-11.161,9.138" transform="translate(-355.31 -65.541)" fill="#cee0ff"/>
          <path id="Path_767" data-name="Path 767" d="M711.982,198.281c5.99,4.317-3.989,15.918-9.148,21.339s-20.37,21.615-20.37,21.615l-6.2-5.226s7.84-19.67,21.265-35.348c1.378-1.61,8.356-6.773,14.45-2.38" transform="translate(-368.14 -106.996)" fill="#ffbd95"/>
          <path id="Path_768" data-name="Path 768" d="M671.289,311.274l-.006,0a1.438,1.438,0,0,1-.526-1.953L673.8,304a1.436,1.436,0,0,1,1.961-.529l.006,0a1.438,1.438,0,0,1,.526,1.952l-3.046,5.318a1.436,1.436,0,0,1-1.96.528" transform="translate(-365.038 -165.097)" fill="#ffbd95"/>
          <path id="Path_769" data-name="Path 769" d="M665.905,308.83l-.006,0a1.439,1.439,0,0,1-.526-1.953l3.046-5.317a1.435,1.435,0,0,1,1.96-.528l.006,0a1.439,1.439,0,0,1,.526,1.953l-3.046,5.317a1.435,1.435,0,0,1-1.96.528" transform="translate(-362.107 -163.767)" fill="#ffbd95"/>
          <path id="Path_770" data-name="Path 770" d="M660.812,306.135l-.006,0a1.438,1.438,0,0,1-.526-1.953l3.046-5.317a1.436,1.436,0,0,1,1.961-.528l.006,0a1.438,1.438,0,0,1,.526,1.952l-3.046,5.317a1.436,1.436,0,0,1-1.96.529" transform="translate(-359.334 -162.3)" fill="#ffbd95"/>
          <path id="Path_771" data-name="Path 771" d="M656.144,303.069l-.006,0a1.439,1.439,0,0,1-.527-1.953l3.046-5.317a1.435,1.435,0,0,1,1.96-.528l.007,0a1.438,1.438,0,0,1,.526,1.952l-3.046,5.317a1.435,1.435,0,0,1-1.96.529" transform="translate(-356.794 -160.631)" fill="#ffbd95"/>
          <path id="Path_772" data-name="Path 772" d="M668.51,273.5s-8.177,6-9.365,7.579-3.693,8.9-3.693,8.9,3.4-.751,4.8.336,4.76,4.226,4.76,4.226,4.731-4.774,6.117-7.578a31.258,31.258,0,0,0,2.105-5.883Z" transform="translate(-356.809 -148.883)" fill="#ffbd95"/>
          <path id="Path_773" data-name="Path 773" d="M395.04,90.74s-6.013,1.573-8.3-1.718-1.341-8.118-1.417-9.266c-.313-4.735-5.18-8.327-5.861-11.121S380.428,65.1,381,66c3.19,5.021,6.7,7.1,7.824,9.493s7.706,9.971,7.706,9.971Z" transform="translate(-206.482 -35.732)" fill="#ffbd95"/>
          <path id="Path_774" data-name="Path 774" d="M394,107.256s-4.374-.919-6.108-2.881-1.125-5.375-2.355-7.209.16-1.8.544-1.765,1.87,2.306,2.7,3.234,6.32,3.309,5.222,8.621" transform="translate(-209.602 -51.929)" fill="#ffbd95"/>
          <path id="Path_775" data-name="Path 775" d="M247.565,620.664c-1.583,2.249-2.657,6.6-2.814,8.608-.188,2.416,1.232,7.51,2.8,7.51a114.712,114.712,0,0,1,14.759.833c4.718.644,6.481,3.394,18.545,3.365,3.52-.009,9.92-.235,9.731-1.684s-11.573-4.083-15.246-7.515C266.051,623.1,259.862,621,259.862,621s-11.971-.8-12.3-.34" transform="translate(-133.227 -337.793)" fill="#191919"/>
          <rect id="Rectangle_83" data-name="Rectangle 83" width="12.098" height="2.289" transform="translate(113.863 298.989)" fill="#191919"/>
          <path id="Path_776" data-name="Path 776" d="M109.746,404.025s45.412,14.848,47.286,16.968S171.648,503.3,171.648,503.3s-3.178,2.943-11.378,3.581-10.991,0-10.991,0-12.492-51.451-12.092-58.254-2.217-17.006-2.217-17.006S82.187,429,78.57,425.877c-20.631-17.806,2.068-27.983,2.068-27.983l29.4,2.074Z" transform="translate(-38.055 -216.602)" fill="#00233f"/>
          <path id="Path_777" data-name="Path 777" d="M172.349,221.96c3.034,6.734,8.661,6.141,14.79,2.977s33.81-24.021,34.244-28.416c.226-2.289-3.3-8.725-6.535-8.493s-29.38,14.525-33.934,18.045-12.119,8-8.565,15.886" transform="translate(-93.32 -102.354)" fill="#b8d1ff"/>
          <path id="Path_778" data-name="Path 778" d="M97.387,162.937S91.422,182.1,89.372,183.9c-3.877,3.392-13.408,4.5-17.417,9.2-4.86,5.69-1.529,36.112-2.006,46.41s-8.506,30.318-12.59,39.425,22.008,22.594,23.105,22.9,15.526-5.612,18.211-8.216,5.266-27.913,6.979-34.131,9.157-27.611,9.829-28.959c4.49-9,4.105-17.185,4.294-19.3s1.223-5.447.567-7.012c-1.306-3.115-11.56-9.575-11.39-10.906s3.559-19.577,3.559-19.577Z" transform="translate(-30.989 -88.698)" fill="#ffbd95"/>
          <rect id="Rectangle_84" data-name="Rectangle 84" width="12.098" height="2.362" transform="translate(87.068 308.349)" fill="#191919"/>
          <path id="Path_779" data-name="Path 779" d="M188.759,640.049c-1.583,2.322-2.657,6.819-2.813,8.888-.189,2.494,1.232,7.755,2.8,7.755a111.206,111.206,0,0,1,14.759.859c4.718.665,6.481,3.5,18.545,3.475,3.52-.008,9.92-.242,9.731-1.739s-11.573-4.216-15.246-7.759c-9.29-8.962-15.48-11.128-15.48-11.128s-11.971-.829-12.3-.352" transform="translate(-101.214 -348.343)" fill="#191919"/>
          <path id="Path_780" data-name="Path 780" d="M92.091,208.938l16.1,17.164,3.484-7.755s6.888-2.506,9.626-.888c2.665,1.575,3.306,17.983,3.244,20.185s-3.9,14.346-6.975,22.375c-1.8,4.7-3.438,11.112-6.437,19.135-2.567,6.869-5.745,22.837-5.745,22.837s-7.932,2.488-18.21-.888c-11.9-3.906-24.591-5.9-25.01-6.49-1.8-2.545,6.768-17.944,7.995-28.031.264-2.167.918-40.559,1.97-45.314a9.916,9.916,0,0,1,8.342-7.972c4.037-.788,11.615-4.359,11.615-4.359" transform="translate(-33.708 -113.74)" fill="#cee0ff"/>
          <path id="Path_781" data-name="Path 781" d="M100.573,249.363c-10.5-30.529-18.093-30.274-18.093-30.274l-1.51-.854c-.159.037-.343.094-.493.123a9.914,9.914,0,0,0-8.342,7.972c-1.053,4.754-1.707,43.146-1.971,45.314-1.227,10.087-9.8,25.486-7.995,28.03.376.532,10.621,2.192,21.309,5.344l19.626,2.516a22.467,22.467,0,0,0,2.285-.482s3.177-15.968,5.745-22.837c1.663-4.448,7.229-21.037,8.313-24.478,0,0-4.164,7.2-8.619,6.241-3.657-.79-4.462.225-10.255-16.615" transform="translate(-33.708 -118.801)" fill="#b8d1ff"/>
          <path id="Path_782" data-name="Path 782" d="M59.214,396.481s-3.2,10.415-2.03,19.054,3.3,18.338,23.473,20.216,32.738,2.956,33.369,3.02-1.538,17.344-.721,29.4,2.223,43.976,2.223,43.976A53.354,53.354,0,0,0,127.9,513.57c8,.163,10.606-2.663,10.606-2.663s5.5-75.551,3.577-81.816c-3.258-10.587-37.055-19.253-38.328-21.128-1.056-1.553-.79-8.7-.79-8.7Z" transform="translate(-30.989 -215.833)" fill="#002d56"/>
          <path id="Path_783" data-name="Path 783" d="M93.791,220.146c-7.357.8-8.783,7.364-7.408,14.831s14.042,40.194,16.122,41.387,15.763,2.956,16.429-.482-10.412-34.818-12.567-40.776-3.956-15.893-12.575-14.96" transform="translate(-46.77 -119.808)" fill="#cee0ff"/>
          <path id="Path_784" data-name="Path 784" d="M139.312,171.315l13.078,11.963-1.184,6.782-15.034-1.336-3.91-4.446,5.263-14.07Z" transform="translate(-71.999 -92.656)" fill="#ffa47c"/>
          <path id="Path_785" data-name="Path 785" d="M143.039,115.7c-5.757-3.386-20.623-4.344-25.264,6.576s.5,19.522,5.525,24.435c3.918,3.831,7.286,5.681,13.42,6.992,1.251.267,11.909-.212,13.79-1.385,1.287-.8-.067-11.5.351-11.554a1.893,1.893,0,0,0,1.271-1.791c-.2-1.255-3.249-8.482-3.138-9.341s.642-10.052-5.955-13.932" transform="translate(-63.125 -61.733)" fill="#ffbd95"/>
          <path id="Path_786" data-name="Path 786" d="M146.69,118.231s-8.842-2.759-16.444,8.493c-1.636,2.422,4.236,9.845,3.884,10.7-.378.918-9.112-4.355-8.616-3.473,5.047,8.986,3.207,14.972,2.365,15.223-2.555.762-13.7-11.015-12.286-22.877s12.625-15.531,15.505-15.559,11.305-1.262,15.591,7.492" transform="translate(-62.859 -60.242)" fill="#8d3b26"/>
          <path id="Path_787" data-name="Path 787" d="M142.121,160.686c1.625,2.857,3.008,6.889,1.507,7.743s-4.036-.77-5.66-3.627-1.724-5.864-.222-6.718,2.751-.255,4.375,2.6" transform="translate(-74.406 -85.861)" fill="#ffbd95"/>
          <path id="Path_788" data-name="Path 788" d="M159.084,236.952l-.149,4.4-3.8-3.994Z" transform="translate(-84.451 -128.99)" fill="#b8d1ff"/>
          <path id="Path_789" data-name="Path 789" d="M258.359,162.824c4.845,6.416,15.85-2.69,21.626-8.436s19.753-24.519,19.753-24.519l-4.914-5.641s-29.024,21.88-30.733,23.431-10.662,8.637-5.732,15.166" transform="translate(-139.846 -67.626)" fill="#ffbd95"/>
          <path id="Path_790" data-name="Path 790" d="M163.474,241.529l1.548-4.253,1.089,2.324Z" transform="translate(-88.99 -129.166)" fill="#b8d1ff"/>
          <path id="Path_791" data-name="Path 791" d="M60.349,396.481,59.011,401.1l45.157,3.207-.062-5.04Z" transform="translate(-32.124 -215.833)" fill="#3b1b1d"/>
          <path id="Path_792" data-name="Path 792" d="M147.46,407.18H146.1a2.71,2.71,0,0,1,0-5.421h1.357a2.71,2.71,0,0,1,0,5.421" transform="translate(-78.059 -218.706)" fill="#722c1d"/>
          <path id="Path_793" data-name="Path 793" d="M123.7,204.983l3.9-3.9,14.371,16.341-3.081,4.621Z" transform="translate(-67.341 -109.466)" fill="#e8e2d6"/>
          <path id="Path_794" data-name="Path 794" d="M133.827,321.783c0,5.044-4.8,9.133-10.731,9.133s-10.731-4.089-10.731-9.133,4.8-9.133,10.731-9.133,10.731,4.089,10.731,9.133" transform="translate(-61.168 -170.198)" fill="#e8e2d6"/>
          <path id="Path_795" data-name="Path 795" d="M136.227,321.783c0,5.044-4.8,9.133-10.731,9.133s-10.731-4.089-10.731-9.133,4.8-9.133,10.731-9.133,10.731,4.089,10.731,9.133" transform="translate(-62.475 -170.198)" fill="#cee0ff"/>
          <path id="Path_796" data-name="Path 796" d="M136.227,324.5c0,5.044-4.8,9.133-10.731,9.133s-10.731-4.089-10.731-9.133,4.8-9.133,10.731-9.133,10.731,4.089,10.731,9.133" transform="translate(-62.475 -171.675)" fill="#e8e2d6"/>
          <path id="Path_797" data-name="Path 797" d="M166.871,230.242l2.343-5.888,2.017,3.281-2.768,6.859Z" transform="translate(-90.84 -122.131)" fill="#e8e2d6"/>
          <path id="Path_798" data-name="Path 798" d="M288.484,300.126l.751-1.472a.681.681,0,1,1,1.213.62l-.751,1.472a.681.681,0,0,1-1.214-.62" transform="translate(-157.002 -162.376)" fill="#90a4a2"/>
          <path id="Path_799" data-name="Path 799" d="M266.082,324.323h0c-.59-.287.247-3.224.534-3.814l9.045-18.6a1.192,1.192,0,1,1,2.145,1.042l-9.044,18.6c-.287.59-2.089,3.057-2.679,2.771" transform="translate(-144.735 -163.986)" fill="#4b5b60"/>
          <rect id="Rectangle_85" data-name="Rectangle 85" width="1.213" height="2.586" transform="translate(129.763 140.031) rotate(-65.498)" fill="#90a4a2"/>
          <path id="Path_800" data-name="Path 800" d="M281.922,311.889h0a.384.384,0,0,1-.184-.509l2.925-6.232a.383.383,0,1,1,.693.325l-2.925,6.232a.384.384,0,0,1-.509.184" transform="translate(-153.35 -165.993)" fill="#c9dad8"/>
          <path id="Path_801" data-name="Path 801" d="M120.9,328.146c-1.137,7.959,15.5,8.894,23.648,8.941S179.335,335,179.335,335l-3.7-7.4s-40.863-6.384-43.167-6.5-10.411-1.05-11.568,7.048" transform="translate(-65.785 -174.747)" fill="#ffbd95"/>
          <path id="Path_802" data-name="Path 802" d="M273.345,348.045v-.007a1.361,1.361,0,0,0-1.314-1.39l-5.795-.173a1.358,1.358,0,0,0-1.4,1.32v.007a1.36,1.36,0,0,0,1.314,1.39l5.8.174a1.358,1.358,0,0,0,1.4-1.32" transform="translate(-144.171 -188.611)" fill="#ffbd95"/>
          <path id="Path_803" data-name="Path 803" d="M274.036,342.494v-.007a1.362,1.362,0,0,0-1.314-1.39l-5.8-.173a1.359,1.359,0,0,0-1.4,1.319v.007a1.361,1.361,0,0,0,1.315,1.39l5.795.174a1.359,1.359,0,0,0,1.4-1.32" transform="translate(-144.547 -185.589)" fill="#ffbd95"/>
          <path id="Path_804" data-name="Path 804" d="M274.381,337.052v-.007a1.36,1.36,0,0,0-1.314-1.39l-5.8-.174a1.358,1.358,0,0,0-1.4,1.32v.007a1.361,1.361,0,0,0,1.314,1.39l5.8.173a1.358,1.358,0,0,0,1.4-1.319" transform="translate(-144.735 -182.626)" fill="#ffbd95"/>
          <path id="Path_805" data-name="Path 805" d="M274.218,331.772v-.007a1.361,1.361,0,0,0-1.315-1.39l-5.8-.174a1.358,1.358,0,0,0-1.4,1.32v.007a1.361,1.361,0,0,0,1.315,1.39l5.795.173a1.358,1.358,0,0,0,1.4-1.32" transform="translate(-144.646 -179.752)" fill="#ffbd95"/>
          <path id="Path_806" data-name="Path 806" d="M239.419,331.6s8.881-3.628,10.745-3.8,9.006,1.424,9.006,1.424-2.289,2.374-2.105,4.041,1.054,5.928,1.054,5.928-6.19,1.454-9.137,1.185a29.506,29.506,0,0,1-5.786-1.211Z" transform="translate(-130.333 -178.435)" fill="#ffbd95"/>
          <path id="Path_807" data-name="Path 807" d="M336.911,104.17s2.657-1.9,2.15-6.731a11.586,11.586,0,0,1,3.127-8.769c.513-.586,3.886-4.731,4.375-4.863,1.438-.387.945,1.365,1.363,1.222s1.927-.631,2.065.832c.141,1.5.517,1.195,1.019,1.381s.744,1.4.453,2.027c-.257.559.542.9.523,1.7a4.161,4.161,0,0,1-1.125,2.351c-1.4,1.489-2.169,3.248-2.2,6.26s-.311,7.835-5.046,9.018-6.7-4.432-6.7-4.432" transform="translate(-183.405 -45.591)" fill="#ffbd95"/>
          <path id="Path_808" data-name="Path 808" d="M246.852,190.823c.038.7,1.93,7.3,4.572,9.847s5.925,2.957,6.261,2.667a27.949,27.949,0,0,1,2.019-2.871c1.262-1.373,3.838-1.286,3.7-2.467s-4.554-2.272-7.073-5.554-1.769-6.113-2.365-6.445-2.426,1.9-3.435,2.322-3.828-.216-3.682,2.5" transform="translate(-134.376 -101.235)" fill="#cee0ff"/>
          <rect id="Rectangle_86" data-name="Rectangle 86" width="10.89" height="77.406" transform="translate(40.619 221.788)" fill="#99a2a9"/>
          <rect id="Rectangle_87" data-name="Rectangle 87" width="6.032" height="21.542" transform="translate(14.098 201.045)" fill="#99a2a9"/>
          <path id="Path_809" data-name="Path 809" d="M36.562,484.635h60.5a5.622,5.622,0,0,0,5.622-5.622v-4.378a5.622,5.622,0,0,0-5.622-5.622h-60.5a5.622,5.622,0,0,0-5.622,5.622v4.378a5.622,5.622,0,0,0,5.622,5.622" transform="translate(-16.843 -255.317)" fill="#303030"/>
          <path id="Path_810" data-name="Path 810" d="M4.2,246.885l1.756-.206a4.774,4.774,0,0,1,5.285,4.172l10.1,85.827a4.777,4.777,0,0,1-4.173,5.286l-1.756.206A4.774,4.774,0,0,1,10.13,338L.032,252.17A4.776,4.776,0,0,1,4.2,246.885" transform="translate(0 -134.267)" fill="#303030"/>
          <path id="Path_811" data-name="Path 811" d="M14.02,252.631h0a1.83,1.83,0,0,1,2.026,1.6l9.961,84.67a1.825,1.825,0,0,1-3.625.426l-9.961-84.67a1.83,1.83,0,0,1,1.6-2.025" transform="translate(-6.755 -137.518)" fill="#424249"/>
          <path id="Path_812" data-name="Path 812" d="M148.631,668.853a6.339,6.339,0,1,0,6.339-6.339,6.339,6.339,0,0,0-6.339,6.339" transform="translate(-80.91 -360.653)" fill="#303030"/>
          <path id="Path_813" data-name="Path 813" d="M22.553,668.853a6.339,6.339,0,1,0,6.339-6.339,6.339,6.339,0,0,0-6.339,6.339" transform="translate(-12.277 -360.653)" fill="#303030"/>
          <path id="Path_814" data-name="Path 814" d="M18.068,661.995H93.73a5.332,5.332,0,0,0-5.332-5.332h-65a5.332,5.332,0,0,0-5.332,5.332" transform="translate(-9.836 -357.468)" fill="#99a2a9"/>
          <g id="Group_69" data-name="Group 69" transform="translate(42.376 228.535)" style="mix-blend-mode: soft-light;isolation: isolate">
            <g id="Group_68" data-name="Group 68">
              <g id="Group_67" data-name="Group 67" clip-path="url(#clip-path-3)">
                <rect id="Rectangle_88" data-name="Rectangle 88" width="2.735" height="70.659" transform="translate(0)" fill="#99a2a9"/>
              </g>
            </g>
          </g>
          <rect id="Rectangle_90" data-name="Rectangle 90" width="10.117" height="154.071" transform="translate(76.227 162.366)" fill="#79858e"/>
          <rect id="Rectangle_91" data-name="Rectangle 91" width="10.117" height="154.071" transform="translate(292.175 162.366)" fill="#79858e"/>
          <rect id="Rectangle_92" data-name="Rectangle 92" width="222.962" height="21.908" transform="translate(77.644 164.792)" fill="#79858e"/>
          <g id="Group_72" data-name="Group 72" transform="translate(76.227 174.531)" style="mix-blend-mode: multiply;isolation: isolate">
            <g id="Group_71" data-name="Group 71">
              <g id="Group_70" data-name="Group 70" clip-path="url(#clip-path-4)">
                <path id="Path_815" data-name="Path 815" d="M393.188,388.145,167.3,390.328v-7.273l225.886.079Z" transform="translate(-167.301 -383.055)" fill="#b9b9bd"/>
              </g>
            </g>
          </g>
          <rect id="Rectangle_94" data-name="Rectangle 94" width="251.007" height="12.735" transform="translate(64.034 161.955)" fill="#99a2a9"/>
          <path id="Path_816" data-name="Path 816" d="M294.909,295.168h58.813l6.619-44.225H301.528Z" transform="translate(-160.54 -136.606)" fill="#8e8e8e"/>
          <rect id="Rectangle_95" data-name="Rectangle 95" width="22.605" height="3.393" transform="translate(111.764 158.562)" fill="#8e8e8e"/>
          <g id="Group_75" data-name="Group 75" transform="translate(134.369 114.337)" opacity="0.5">
            <g id="Group_74" data-name="Group 74">
              <g id="Group_73" data-name="Group 73" clip-path="url(#clip-path-5)">
                <path id="Path_817" data-name="Path 817" d="M301.528,250.943l52.137,44.225H294.909Z" transform="translate(-294.909 -250.943)" fill="#757575"/>
              </g>
            </g>
          </g>
          <rect id="Rectangle_97" data-name="Rectangle 97" width="58.757" height="3.393" transform="translate(134.369 158.562)" fill="#757575"/>
          <path id="Path_818" data-name="Path 818" d="M365.242,296.008c-.59,2.656.729,5.208,2.948,5.7s4.5-1.26,5.086-3.916-.729-5.209-2.948-5.7-4.5,1.26-5.086,3.916" transform="translate(-198.75 -158.961)" fill="#b8d1ff"/>
        </g>
      </g>
    </g>
  </g>
</svg>
