<?xml version="1.0" encoding="UTF-8"?><svg id="Vrstva_1" xmlns="http://www.w3.org/2000/svg" xmlns:xlink="http://www.w3.org/1999/xlink" viewBox="0 0 320.24 55"><defs><style>.cls-1{fill:none;}.cls-2{clip-path:url(#clippath);}.cls-3{fill:#ecb733;}.cls-4{fill:#fff;}</style><clipPath id="clippath"><rect class="cls-1" y="0" width="320.24" height="55"/></clipPath></defs><g id="Group_2"><g class="cls-2"><g id="Group_1"><path id="Path_1" class="cls-4" d="M94.86,27.53c0,6.77-5.51,11.55-12.1,11.55s-12.07-4.79-12.07-11.5,5.51-11.61,12.07-11.61,12.1,4.76,12.1,11.57m-4.2,0c.18-4.36-3.2-8.04-7.56-8.22-4.36-.18-8.04,3.2-8.22,7.56,0,.04,0,.07,0,.11,0,.18,0,.37,0,.55-.18,4.36,3.2,8.04,7.56,8.22,4.36,.18,8.04-3.2,8.22-7.56,0-.04,0-.07,0-.11,0-.18,0-.37,0-.55"/><path id="Path_2" class="cls-4" d="M122.33,28.63v10.18h-3.89v-10.06c0-2.35-1.24-3.98-3.11-3.98s-3.08,1.63-3.08,3.98v10.06h-3.9v-10.06c0-2.35-.96-3.98-2.87-3.98s-3.31,1.63-3.31,3.98v10.06h-3.89v-12.37c1.35-3.03,3.48-5.15,7.38-5.15,1.88,.02,3.64,.95,4.72,2.49,1.21-1.63,3.15-2.56,5.18-2.49,3.93,0,6.77,2.84,6.77,7.34"/><path id="Path_3" class="cls-4" d="M138.05,38.81v-10.06c.17-2.02-1.33-3.8-3.35-3.97-.16-.01-.33-.02-.49,0-2.11-.12-3.92,1.5-4.04,3.61,0,0,0,0,0,0,0,.12,0,.24,0,.36v10.06h-3.9v-12.37c1.3-3.29,4.57-5.37,8.1-5.15,4.46,0,7.53,2.87,7.53,7.34v10.18h-3.86Z"/><path id="Path_4" class="cls-4" d="M147.86,18.68c-1.26,.15-2.4-.76-2.55-2.02-.02-.18-.02-.37,0-.55,0-1.41,1.14-2.55,2.55-2.55s2.55,1.14,2.55,2.55c.16,1.26-.74,2.41-2,2.57-.18,.02-.37,.02-.55,0m1.92,20.12h-3.9V21.55h3.9v17.24Z"/><path id="Path_5" class="cls-4" d="M169.45,21.56v10.18c0,4.5-3.18,7.34-7.79,7.34s-7.84-2.87-7.84-7.34v-10.18h3.9v10.06c0,2.16,1.75,3.92,3.91,3.92,2.16,0,3.92-1.75,3.92-3.91v-10.07h3.89Z"/><path id="Path_6" class="cls-4" d="M197.46,28.63v10.18h-3.89v-10.06c0-2.35-1.24-3.98-3.11-3.98s-3.08,1.63-3.08,3.98v10.06h-3.89v-10.06c0-2.35-.96-3.98-2.87-3.98s-3.28,1.63-3.28,3.98v10.06h-3.9v-12.37c1.35-3.03,3.49-5.15,7.38-5.15,1.88,.03,3.64,.95,4.73,2.49,1.21-1.62,3.14-2.55,5.17-2.49,3.87,0,6.75,2.84,6.75,7.34"/><path id="Path_7" class="cls-4" d="M230.82,20.12l-2.96,2.42c-2.64-3.36-7.51-3.94-10.87-1.3-1.87,1.47-2.96,3.71-2.95,6.09,0,4.61,3.33,8.14,7.67,8.14,2.52,.1,4.92-1.04,6.43-3.06l2.96,2.61c-2.36,2.67-5.77,4.15-9.33,4.05-6.43,.13-11.75-4.97-11.88-11.4,0,0,0,0,0,0v-.37c0-6.81,5.51-11.35,11.88-11.39,3.5-.05,6.84,1.5,9.06,4.21"/><path id="Path_8" class="cls-4" d="M248.37,28.03v6.58c-1.43,2.95-3.9,4.47-7.67,4.47s-7.45-1.92-7.45-5.6c0-3.03,2.4-5.15,6.89-5.15h4.35v-.3c0-2.23-1.61-3.33-3.9-3.33-1.78,.06-3.52,.57-5.06,1.48l-1.66-3.07c2.04-1.17,4.35-1.79,6.71-1.81,4.42,0,7.79,2.27,7.79,6.74m-3.9,3.59h-4.35c-2.06,0-2.87,.6-2.87,1.85,0,1.55,1.53,2.23,3.49,2.23s3.75-.6,3.75-2.8v-1.28Z"/><path id="Path_9" class="cls-4" d="M261.66,39.08c-2.17,.09-4.26-.77-5.75-2.35v9.58h-3.9V27.99c.6-2.05,1.92-3.82,3.71-4.99,1.77-1.14,3.84-1.73,5.94-1.71,5.02,0,9.36,3.56,9.36,8.89s-4.36,8.89-9.36,8.89m-.19-14.31c-2.99,.07-5.35,2.56-5.28,5.55,.07,2.99,2.56,5.35,5.55,5.28,2.94-.07,5.28-2.47,5.28-5.41,.03-2.96-2.34-5.38-5.3-5.42,0,0,0,0,0,0h-.25Z"/><path id="Path_10" class="cls-4" d="M276.34,18.68c-1.26,.15-2.4-.76-2.55-2.02-.02-.18-.02-.37,0-.55,0-1.41,1.14-2.55,2.55-2.55s2.55,1.14,2.55,2.55c.16,1.26-.74,2.41-2,2.57-.18,.02-.37,.02-.55,0m1.92,20.12h-3.9V21.55h3.9v17.24Z"/><path id="Path_11" class="cls-4" d="M294.78,31.62v1.17c0,4.09-2.36,6.32-6.22,6.32s-6.22-2.23-6.22-6.32v-15.02h3.89v5.4h7.24v3.42h-7.23v6.16c0,1.92,.57,2.88,2.33,2.88s2.32-.9,2.32-2.88v-1.13h3.89Z"/><path id="Path_12" class="cls-4" d="M312.58,28.03v6.58c-1.43,2.95-3.9,4.47-7.66,4.47s-7.45-1.92-7.45-5.6c0-3.03,2.41-5.15,6.9-5.15h4.34v-.3c0-2.23-1.61-3.33-3.89-3.33-1.78,.06-3.52,.56-5.06,1.48l-1.68-3.07c2.04-1.17,4.35-1.79,6.71-1.81,4.43,0,7.8,2.27,7.8,6.74m-3.9,3.59h-4.34c-2.06,0-2.88,.6-2.88,1.85,0,1.55,1.54,2.23,3.48,2.23s3.74-.6,3.74-2.8v-1.28Z"/><rect id="Rectangle_2" class="cls-4" x="316.34" y="13.57" width="3.9" height="25.24"/><path id="Path_13" class="cls-3" d="M27.56,0C12.38-.03,.04,12.25,0,27.44c-.03,15.19,12.25,27.53,27.44,27.56,7.21,.02,14.13-2.8,19.29-7.84l-2.73-2.04c-9.73,9.11-25.01,8.6-34.12-1.14C.77,34.25,1.28,18.98,11.02,9.87,20.3,1.19,34.72,1.19,44,9.87l2.73-2.04C41.62,2.8,34.73-.01,27.56,0"/><path id="Path_14" class="cls-3" d="M51.82,14.55l-2.74,2.06c3.48,6.84,3.48,14.94,0,21.78l2.74,2.06c4.31-8.09,4.31-17.79,0-25.87v-.03Z"/><path id="Path_15" class="cls-3" d="M38.95,13.69c-7.62-6.28-18.89-5.2-25.17,2.42-6.28,7.62-5.2,18.89,2.42,25.17,7.62,6.28,18.89,5.2,25.17-2.42,4.26-5.17,5.28-12.29,2.63-18.45-1.13-2.61-2.86-4.92-5.05-6.73m2.26,18.78c-2.75,7.52-11.08,11.39-18.6,8.64-7.52-2.75-11.39-11.08-8.64-18.6,2.75-7.52,11.08-11.39,18.6-8.64,4.01,1.47,7.17,4.63,8.64,8.64,1.18,3.22,1.18,6.75,0,9.97"/></g></g></g></svg>