<?xml version="1.0" encoding="UTF-8"?><svg id="Vrstva_1" xmlns="http://www.w3.org/2000/svg" viewBox="0 0 43.29 43.29"><defs><style>.cls-1{fill:#ecb733;}</style></defs><path class="cls-1" d="M21.65,0C9.69,0,0,9.69,0,21.64s9.69,21.65,21.64,21.65,21.65-9.69,21.65-21.64S33.6,0,21.65,0Zm11.79,27c0,1.77-1.44,3.21-3.22,3.22H13.07c-1.78,0-3.21-1.44-3.22-3.22v-10.71c0-1.77,1.44-3.21,3.22-3.22H30.22c1.77,0,3.21,1.44,3.22,3.22v10.71Z"/><path id="Path_20" class="cls-1" d="M12,16.73v9.83l4.91-4.91-4.91-4.91h0Z"/><path id="Path_21" class="cls-1" d="M23.92,24.1c-1.26,1.25-3.29,1.25-4.55,0l-.94-.94-4.92,4.92H29.78l-4.92-4.92-.95,.94h.01Z"/><path id="Path_22" class="cls-1" d="M22.4,22.59l7.37-7.37H13.52l7.37,7.37c.42,.42,1.1,.42,1.52,0"/><path id="Path_24" class="cls-1" d="M31.29,26.56v-9.83l-4.91,4.91,4.91,4.91h0Z"/></svg>