<?xml version="1.0" encoding="UTF-8"?><svg id="Vrstva_1" xmlns="http://www.w3.org/2000/svg" viewBox="0 0 43.39 43.45"><defs><style>.cls-1{fill:#ecb733;}</style></defs><path class="cls-1" d="M21.7,.08C9.74,.08,.05,9.77,.05,21.72s9.69,21.65,21.65,21.65,21.64-9.69,21.64-21.65S33.65,.08,21.7,.08Zm11.2,29.76h0s-2.26,2.28-2.26,2.28c-.73,.73-1.72,1.14-2.76,1.14-.58,0-1.16-.13-1.68-.39-3.37-1.67-6.45-3.88-9.1-6.55-2.67-2.65-4.88-5.73-6.55-9.1-.72-1.49-.42-3.28,.76-4.45l2.27-2.26c.45-.45,1.18-.45,1.63,0l4.65,4.68c.44,.45,.44,1.17,0,1.62l-1.68,1.7c.79,1.36,1.76,2.61,2.88,3.72,1.1,1.11,2.34,2.08,3.7,2.86l1.75-1.7c.45-.44,1.17-.43,1.61,.01l4.78,4.79c.45,.45,.45,1.18,0,1.62Z"/><path id="Path_25" class="cls-1" d="M27.51,25.42c-.12-.12-.31-.12-.43,0l-1.97,1.9-.57-.25c-1.79-.89-3.41-2.08-4.79-3.52-1.44-1.39-2.64-3.02-3.54-4.81l-.25-.57,1.9-1.93c.12-.12,.12-.31,0-.43l-3.26-3.28c-.12-.12-.31-.12-.43,0,0,0,0,0,0,0l-1.57,1.55c-.62,.61-.78,1.55-.4,2.34,1.58,3.19,3.67,6.09,6.19,8.6,2.51,2.53,5.41,4.62,8.6,6.2,.79,.38,1.72,.22,2.34-.4l1.56-1.57c.12-.12,.12-.31,0-.43,0,0,0,0,0,0l-3.39-3.4Z"/></svg>