<svg id="Group_43" data-name="Group 43" xmlns="http://www.w3.org/2000/svg" xmlns:xlink="http://www.w3.org/1999/xlink" width="794.109" height="577.758" viewBox="0 0 794.109 577.758">
  <defs>
    <clipPath id="clip-path">
      <rect id="Rectangle_43" data-name="Rectangle 43" width="794.109" height="577.758" fill="none"/>
    </clipPath>
    <clipPath id="clip-path-2">
      <rect id="Rectangle_42" data-name="Rectangle 42" width="794.112" height="577.758" fill="none"/>
    </clipPath>
    <clipPath id="clip-path-3">
      <rect id="Rectangle_34" data-name="Rectangle 34" width="4.974" height="128.516" fill="none"/>
    </clipPath>
    <clipPath id="clip-path-4">
      <rect id="Rectangle_40" data-name="Rectangle 40" width="261.051" height="12.402" fill="none"/>
    </clipPath>
  </defs>
  <g id="Group_42" data-name="Group 42" clip-path="url(#clip-path)">
    <g id="Group_41" data-name="Group 41">
      <g id="Group_40" data-name="Group 40" clip-path="url(#clip-path-2)">
        <path id="Path_141" data-name="Path 141" d="M710.054,178.242c-109.816-.248-199.042,88.568-199.289,198.381s88.568,199.042,198.384,199.289a198.853,198.853,0,0,0,139.467-56.671l-19.745-14.753a174.522,174.522,0,1,1,0-254.89l19.745-14.756a197.12,197.12,0,0,0-138.561-56.6" transform="translate(-115.428 -40.281)" fill="#101d51"/>
        <path id="Path_142" data-name="Path 142" d="M989,314.115l-19.813,14.9a173.862,173.862,0,0,1,0,157.474L989,501.379a198.872,198.872,0,0,0,0-187.056Z" transform="translate(-219.028 -70.987)" fill="#101d51"/>
        <path id="Path_143" data-name="Path 143" d="M812.728,297.5a129.282,129.282,0,1,0,36.518,48.635A129.413,129.413,0,0,0,812.728,297.5m16.356,135.789a104.884,104.884,0,1,1,0-72.049,104.882,104.882,0,0,1,0,72.049" transform="translate(-135.803 -60.539)" fill="#101d51"/>
        <path id="Path_144" data-name="Path 144" d="M589.506,325.547c0,139.946-113.449,253.395-253.395,253.395s-253.4-113.449-253.4-253.395S196.165,72.152,336.112,72.152,589.506,185.6,589.506,325.547" transform="translate(-18.693 -16.306)" fill="#efba32"/>
        <path id="Path_145" data-name="Path 145" d="M710.054,178.242c-109.816-.248-199.042,88.568-199.289,198.381s88.568,199.042,198.384,199.289a198.853,198.853,0,0,0,139.467-56.671l-19.745-14.753a174.522,174.522,0,1,1,0-254.89l19.745-14.756A197.12,197.12,0,0,0,710.054,178.242Z" transform="translate(-115.428 -40.281)" fill="none" stroke="#101d51" stroke-width="2"/>
        <path id="Path_146" data-name="Path 146" d="M988.915,314.2l-19.728,14.833a173.863,173.863,0,0,1,0,157.474L989,501.4a198.872,198.872,0,0,0,0-187.056Z" transform="translate(-219.028 -71.006)" fill="none" stroke="#101d51" stroke-width="2"/>
        <path id="Path_147" data-name="Path 147" d="M812.728,297.5a129.282,129.282,0,1,0,36.518,48.635A129.413,129.413,0,0,0,812.728,297.5Zm16.356,135.789a104.884,104.884,0,1,1,0-72.049A104.882,104.882,0,0,1,829.083,433.289Z" transform="translate(-135.803 -60.539)" fill="none" stroke="#101d51" stroke-width="2"/>
        <rect id="Rectangle_32" data-name="Rectangle 32" width="19.805" height="140.79" transform="translate(300.865 384.448)" fill="#99a2a9"/>
        <path id="Path_148" data-name="Path 148" d="M343.88,696.387a11.529,11.529,0,1,1-11.529-11.529,11.529,11.529,0,0,1,11.529,11.529" transform="translate(-72.503 -154.772)" fill="#303030"/>
        <path id="Path_149" data-name="Path 149" d="M478.868,696.387a11.529,11.529,0,1,1-11.529-11.529,11.528,11.528,0,0,1,11.529,11.529" transform="translate(-103.009 -154.772)" fill="#303030"/>
        <path id="Path_150" data-name="Path 150" d="M450.221,688.291H312.6a9.7,9.7,0,0,1,9.7-9.7H440.524a9.7,9.7,0,0,1,9.7,9.7" transform="translate(-70.646 -153.357)" fill="#99a2a9"/>
        <g id="Group_36" data-name="Group 36" transform="translate(312.5 396.721)" style="mix-blend-mode: soft-light;isolation: isolate">
          <g id="Group_35" data-name="Group 35">
            <g id="Group_34" data-name="Group 34" clip-path="url(#clip-path-3)">
              <rect id="Rectangle_33" data-name="Rectangle 33" width="4.974" height="128.516" fill="#99a2a9"/>
            </g>
          </g>
        </g>
        <path id="Path_151" data-name="Path 151" d="M444.244,504.655H314.416a11.032,11.032,0,0,1-11.032-11.032v-6.349a11.031,11.031,0,0,1,11.031-11.031H444.244a11.031,11.031,0,0,1,11.031,11.031v6.35a11.031,11.031,0,0,1-11.031,11.031" transform="translate(-68.562 -107.627)" fill="#303030"/>
        <path id="Path_152" data-name="Path 152" d="M380.9,408.24h64.459a26.975,26.975,0,0,0,26.9-26.9V292.267a59.124,59.124,0,1,0-118.248,0v89.077a26.974,26.974,0,0,0,26.894,26.9" transform="translate(-80.003 -52.688)" fill="#191919"/>
        <path id="Path_153" data-name="Path 153" d="M381.561,400.95h50.233a21.021,21.021,0,0,0,20.959-20.959V292.522a46.076,46.076,0,0,0-92.153,0V379.99a21.022,21.022,0,0,0,20.96,20.959" transform="translate(-81.493 -55.695)" fill="#303030"/>
        <rect id="Rectangle_35" data-name="Rectangle 35" width="45.484" height="15.854" transform="translate(298.472 161.111)" fill="#b8d1ff"/>
        <path id="Path_154" data-name="Path 154" d="M359.006,680.633,331.734,677.9s-15.236,10.729-23.2,18.66-6.184,17.013-6.184,17.013,23.144,6.06,32.937,0,23.724-12.11,23.724-12.11Z" transform="translate(-68.288 -153.2)"/>
        <path id="Path_155" data-name="Path 155" d="M440.763,309.971c8.087-24.857,29.025-67.473,16.767-74.888-15.979-9.667-61.943-15.6-61.943-15.6v.789s-46.361,3.882-62.34,13.547c-12.257,7.415,9.075,52.081,17.164,76.937,1.94,5.965,1.728,32.707.986,56.421-.183,5.849-4.932,32.748-4.122,43.868.241,3.318,37.97,12.506,48.492,13.032,10.521-.526,47.892-10.5,48.134-13.821.808-11.12-3.941-38.019-4.124-43.868-.742-23.713-.954-50.456.988-56.421" transform="translate(-74.472 -49.602)" fill="#ffbd95"/>
        <path id="Path_156" data-name="Path 156" d="M328.957,236.1c-8.731-3.488-17.7,5.774-23.932,22.138s-11.7,28.74-13.217,33.035c-1.56,4.434-10.5,29.018-12.353,36.158s1.272,14.808,8.249,17.466c5.835,2.222,16.9-5.482,23.63-16.274s41.073-83.156,17.623-92.523" transform="translate(-63.036 -53.19)" fill="#88bd4f"/>
        <path id="Path_157" data-name="Path 157" d="M424.452,201.754c-1.052-4.735-3.681-28.145-3.681-28.145h-15.52v.789h-15.52s-2.629,23.411-3.682,28.145-13.825,11.88-13.825,11.88h33.027v-.789h33.027s-12.773-7.145-13.826-11.879" transform="translate(-84.12 -39.234)" fill="#ffbd95"/>
        <path id="Path_158" data-name="Path 158" d="M423.4,195.147c-.985-7.17-2.162-17.378-2.523-20.552l-1-.986h-14.63v.789h-15.52s-2.629,23.411-3.682,28.145-13.825,11.88-13.825,11.88h1.561c14.739-3.93,29.394-7.846,31.368-8.414,4.121-1.183,18.251-10.86,18.251-10.86Z" transform="translate(-84.12 -39.234)" fill="#ffa47c"/>
        <path id="Path_159" data-name="Path 159" d="M349.277,422.756l-22.994,39.888-1.335,17.225h67.777l50.7-1.591,9.321-15.65-13.017-39.869Z" transform="translate(-73.435 -95.539)" fill="#00233f"/>
        <path id="Path_160" data-name="Path 160" d="M321.729,472.818,328.622,632.2h42.246l3.954-159.383s-6.278-21.276-28.141-21.276c-18.764,0-24.951,21.276-24.951,21.276" transform="translate(-72.708 -102.045)" fill="#002d56"/>
        <path id="Path_161" data-name="Path 161" d="M346.714,451.542h-.034c-18.763,0-24.952,21.276-24.952,21.276L328.621,632.2h18.092Z" transform="translate(-72.708 -102.045)" fill="#00233f"/>
        <path id="Path_162" data-name="Path 162" d="M476.847,238.54c8.458-3.895,19.317-4.682,26.588,11.832s15,37.981,16.785,42.319c1.843,4.479,10.454,28.065,12.759,35.3s.7,15.278-6.064,18.258c-5.66,2.493-17.174-4.981-24.573-15.774S454.128,249,476.847,238.54" transform="translate(-106.225 -53.379)" fill="#88bd4f"/>
        <path id="Path_163" data-name="Path 163" d="M461.293,235.782c-1.741-3.6-13.127-6.269-23.326-9.444-8.99-2.8-17.037-6.343-17.037-6.343l-24.985,14.259L371,219.918s-8.057,3.521-17.055,6.293c-10.208,3.144-21.6,5.775-23.355,9.373-1.778,3.651,16.414,73.77,18.457,79.734s-3.276,47.673,1.909,60.154l44.726,1.459v.005l.085,0h.012l44.73-1.325c4.108-14.3-.028-54.972,2.035-60.931s20.517-75.239,18.749-78.9" transform="translate(-74.683 -49.7)" fill="#cee0ff"/>
        <path id="Path_164" data-name="Path 164" d="M408.564,227.115l2.023,8.553-15.306-5.777,8.833-4.163Z" transform="translate(-89.33 -51.013)" fill="#b8d1ff"/>
        <path id="Path_165" data-name="Path 165" d="M462.125,234.995c-1.772-3.667-13.363-6.38-23.745-9.613-9.152-2.848-17.342-6.457-17.342-6.457L395.6,306.742l-25.389-87.9s-8.2,3.584-17.363,6.406c-10.391,3.2-21.99,5.879-23.774,9.542-1.811,3.718,16.707,75.1,18.788,81.17s-3.335,48.53,1.944,61.236l45.53,1.484v0l.087,0h.012l45.534-1.348c4.184-14.557-.028-55.962,2.073-62.028s20.885-76.592,19.086-80.316" transform="translate(-74.339 -49.457)" fill="#88bd4f"/>
        <path id="Path_166" data-name="Path 166" d="M402.912,377.264c-4.374-2.743-10.938-5.49-14.917-7.958s-.105-10.945-.149-15.324,12.109-12.57,20.322-15.568,22.442-1.882,25.734-7.624-5.456-11.227-9.287-11.233-28.448-7.156-32.279-6.615-32.844,3.509-37.49-.056-25.738-73.436-25.738-73.436c5.162,22.489,17.463,77.308,18.787,81.17,2.081,6.072-3.335,48.53,1.944,61.236l45.529,1.485v0l.088,0h.012L441,382s-9.912-1.406-14.015-2.654-19.7.666-24.077-2.077" transform="translate(-74.376 -54.114)" fill="#74a940"/>
        <path id="Path_167" data-name="Path 167" d="M416.842,227.17l-1.948,8.5,15.307-5.777-8.832-4.163Z" transform="translate(-93.763 -51.013)" fill="#b8d1ff"/>
        <path id="Path_168" data-name="Path 168" d="M374.163,218.572l8.866-10.421,20.763,14.992-7.5,14.112Z" transform="translate(-84.558 -47.04)" fill="#eaf2ff"/>
        <path id="Path_169" data-name="Path 169" d="M446.3,410.68s19.555,20.261,24.759,32.028,5.131,31.783-7.5,32.75-23.045.968-25.76-.616S413.8,436.827,414.031,432.3s23.8-25.136,32.266-21.62" transform="translate(-93.567 -92.719)" fill="#00233f"/>
        <path id="Path_170" data-name="Path 170" d="M249.181,521.038l16.845,21.636s-.97,18.6-3.439,29.569-11.1,14.3-11.1,14.3-17.461-16.368-17.554-27.892-2.382-26.521-2.382-26.521Z" transform="translate(-52.329 -117.75)"/>
        <path id="Path_171" data-name="Path 171" d="M407.289,445.427,268.729,524.492l-22.528-35.8,132.794-88.229s21.351-6.016,33,12.5c9.995,15.881-4.709,32.462-4.709,32.462" transform="translate(-55.639 -90.291)" fill="#00233f"/>
        <path id="Path_172" data-name="Path 172" d="M432.9,442.108c-.705-1-23.356-32.294-24.113-33.141-11.961-13.37-29.8-8.483-29.8-8.483L246.2,488.713l12.047,19.143S346.78,423.718,383.8,409.3c14.309-5.575,49.105,32.813,49.105,32.813" transform="translate(-55.639 -90.309)" fill="#002d56"/>
        <path id="Path_173" data-name="Path 173" d="M447.115,218.572l-8.865-10.421L417.411,223.2l7.572,14.058Z" transform="translate(-94.331 -47.04)" fill="#eaf2ff"/>
        <path id="Path_174" data-name="Path 174" d="M374.179,135.9c-.677,19.786,6.843,40.087,19.458,41.579,12.053,1.426,35.428-14.66,37.755-34.32s-7.552-36.978-25.532-39.608c-15.116-2.21-30.984,11.972-31.68,32.35" transform="translate(-84.552 -23.349)" fill="#ffbd95"/>
        <path id="Path_175" data-name="Path 175" d="M377.8,121.09s17.212-9.155,34.667,6.508c3.758,3.371-.934,18.309.016,19.594,1.019,1.379,5.587-11.6,6.251-9.985,4.8,11.676.909,26.43,2.427,26.5,4.6.2,18.333-24.2,10.983-43.484S404.47,99.5,399.633,100.66,381.3,104.626,377.8,121.09" transform="translate(-85.379 -22.681)" fill="#8d3b26"/>
        <path id="Path_176" data-name="Path 176" d="M425.87,153.433c-1.522,5.468-2.149,12.8.725,13.6s6.437-2.983,7.96-8.451.427-10.549-2.447-11.349-4.716.727-6.238,6.2" transform="translate(-95.952 -33.23)" fill="#ffbd95"/>
        <path id="Path_177" data-name="Path 177" d="M289.395,346.486c7.327-2.189,17.535,1.266,24.415,20.37s14.5,55,14.5,55l-17.457,7.671s-17.982-29.478-22.2-39.677-18.431-37.635.748-43.362" transform="translate(-63.191 -78.172)" fill="#88bd4f"/>
        <path id="Path_178" data-name="Path 178" d="M321.943,448.572s.817,4.282,1,6.225a30.409,30.409,0,0,0,5.528,15.436c3.067,4.374,11.1,12.207,12.369,11.635s.353-3.159.353-3.159,5.48,5.245,7.021,4.463.866-3.373.866-3.373,4.885,2.67,6.846,1.645c1.8-.94-3.934-7.134-3.934-7.134s4.635,2.834,5.886.841c1.156-1.841-7.249-6.913-10.291-13.778-1.133-2.556-2.222-5.69-1.557-6.215s7.941.851,9.823.229,3.2-3.478,2.9-3.79c-1.329-1.379-3.349.225-9.321-1.88-1.323-.465-6.7-6.376-14.327-5.162-4.875.777-13.161,4.019-13.161,4.019" transform="translate(-72.756 -100.428)" fill="#ffbd95"/>
        <path id="Path_179" data-name="Path 179" d="M310.818,435.141l20.955-11.559,7.332,15.69L319.5,450.517Z" transform="translate(-70.242 -95.726)" fill="#74a940"/>
        <path id="Path_180" data-name="Path 180" d="M529.193,357.967c-.428,7.562-4.97,13.5-26.427,13.407s-55.545-5.573-55.545-5.573l.341-18.013s26.831-7.42,38.481-7.876,44.268-1.738,43.15,18.054" transform="translate(-101.068 -76.772)" fill="#88bd4f"/>
        <path id="Path_181" data-name="Path 181" d="M431.785,352.949c-18.645,3.661-21.931,21.253-21.676,22.661s3.954,2.824,7.467,1.072,18.4-8.971,18.6-13.445-1.011-10.952-4.39-10.288" transform="translate(-92.678 -79.753)" fill="#ffbd95"/>
        <path id="Path_182" data-name="Path 182" d="M428.345,358.691a53.714,53.714,0,0,0-9.257,7.3c-.5.494-1.564.961-2.065,1.454-.408.4-.9,1.41-1.3,1.805-.368.365-.907.477-1.263.831-.478.475-.652,1.526-1.1,1.974-.386.387-1.3.957-1.687,1.283-1.531,1.3-.574,2.292-1,2.737a12.206,12.206,0,0,0-1.862,2.133c-.8,1.569.126,9.325.648,10.481s1.95,8.341,2.707,8.346,2.963-1.807,2.677-5.792-.387-8.835-.074-8.007a34.134,34.134,0,0,0,4.687,6.336c.959.909,2.128.084,2.717-.844.344-.544-.45-4.179-.45-4.179s2.631.505,2.97.052c1.178-1.576-.246-4.064-.449-5.016-.169-.794,2.468.821,2.906.08,1.632-2.749-3.78-8.383-1.118-10.184,1.341-.906,4.83-6.884,2.319-10.787" transform="translate(-92.316 -81.061)" fill="#ffbd95"/>
        <path id="Path_183" data-name="Path 183" d="M454.569,346.637l.639,23.229-17.02.128-.07-21.56Z" transform="translate(-99.011 -78.337)" fill="#74a940"/>
        <path id="Path_184" data-name="Path 184" d="M84.458,210.163c-8.14-25.051-29.18-67.989-16.911-75.484,15.993-9.77,62.032-15.818,62.032-15.818l0,.795s46.449,3.843,62.473,13.565c12.291,7.459-9.013,52.527-17.078,77.6-1.936,6.016-1.683,32.98-.9,56.89.191,5.9,4.991,33.012,4.2,44.226-.237,3.346-37.823,24.117-48.364,24.665l0-.8c-10.54-.515-48.189-21.175-48.436-24.52-.827-11.211,3.889-38.339,4.064-44.238.707-23.912.879-50.876-1.074-56.888" transform="translate(-14.417 -26.861)" fill="#ffbd95"/>
        <path id="Path_185" data-name="Path 185" d="M64.264,136.1c8.526,4.143,9.814,19.6,1.432,35.143s-15.8,25.217-18.084,29.2c-2.355,4.113-14.219,28.954-18.45,35.07S15.7,247.064,9.075,243.491c-5.541-2.989-11.7-5.54-7.9-17.785S37.32,123.012,64.264,136.1" transform="translate(0 -30.467)" fill="#ffbd95"/>
        <path id="Path_186" data-name="Path 186" d="M119.57,101c1.054-4.776,3.67-28.384,3.67-28.384l15.647-.024,0,.8,15.647-.023s2.688,23.6,3.756,28.373,13.956,11.958,13.956,11.958l-33.3.05,0-.795-33.3.05s12.868-7.224,13.921-12" transform="translate(-23.876 -16.405)" fill="#ffbd95"/>
        <path id="Path_187" data-name="Path 187" d="M124.987,94.335c.981-7.232,2.153-17.525,2.512-20.726l1.006-1,14.753-.022,0,.8,15.647-.023s2.687,23.6,3.755,28.373,13.957,11.958,13.957,11.958l-1.573,0c-14.867-3.939-29.65-7.867-31.64-8.435-4.157-1.187-18.42-10.924-18.42-10.924Z" transform="translate(-28.246 -16.405)" fill="#ffa47c"/>
        <path id="Path_188" data-name="Path 188" d="M173.935,334.331c19.095-.087,26.541,13.221,26.072,54.065s-6.494,85.143-9.136,91.513-29.7,6.543-32.361,2.835-9.415-88.437-9.435-101.7,4.06-46.621,24.86-46.715" transform="translate(-33.69 -75.556)" fill="#ffbd95"/>
        <path id="Path_189" data-name="Path 189" d="M175.423,551.624l5.037-.129a13.831,13.831,0,0,0,13.434-14.138l-.433-16.969a13.833,13.833,0,0,0-14.139-13.435l-5.037.129a13.832,13.832,0,0,0-13.435,14.138l.433,16.969a13.832,13.832,0,0,0,14.139,13.435" transform="translate(-36.35 -114.566)" fill="#ffbd95"/>
        <path id="Path_190" data-name="Path 190" d="M177.914,532.363c5.835-.008,20.159,1.9,19.421,39.98S180.5,662.6,180.5,662.6l-13.79.021s-6.836-70.486-6.889-84.008c-.12-30.766-.334-46.219,18.1-46.246" transform="translate(-36.112 -120.31)" fill="#ffbd95"/>
        <path id="Path_191" data-name="Path 191" d="M105.646,334.709c-18.985-2.052-27.761,10.418-31.5,51.095s-5.495,85.359-3.523,91.967,28.873,9.567,31.9,6.151,21.658-87,23.043-100.186.761-46.791-19.919-49.026" transform="translate(-15.776 -75.593)" fill="#ffbd95"/>
        <path id="Path_192" data-name="Path 192" d="M84.865,550.92l-5-.646a13.838,13.838,0,0,1-11.949-15.5L70.1,517.939a13.783,13.783,0,0,1,15.392-11.866l5.06.656a13.776,13.776,0,0,1,11.895,15.429l-2.186,16.9A13.743,13.743,0,0,1,84.865,550.92" transform="translate(-15.323 -114.343)" fill="#ffbd95"/>
        <path id="Path_193" data-name="Path 193" d="M82.5,531.51c-5.8-.609-20.248-.184-23.433,37.769s3.06,91.507,3.06,91.507l13.715,1.44s18.453-69.408,19.9-82.854c3.286-30.59,5.09-45.938-13.242-47.862" transform="translate(-13.144 -120.091)" fill="#ffbd95"/>
        <path id="Path_194" data-name="Path 194" d="M220.34,138.172c-9.008,2.954-12.37,18.1-6.163,34.628s12.254,27.12,13.977,31.375c1.779,4.393,10.181,30.609,13.548,37.239s11.78,13.257,18.826,10.61c5.894-2.214,12.343-3.91,10.228-16.556s-21.952-106.633-50.416-97.3" transform="translate(-47.686 -31.079)" fill="#ffbd95"/>
        <path id="Path_195" data-name="Path 195" d="M194.617,323.718s6.915,33.634,8,51.933-7.747,98.3-7.765,107.106.617,35.857.094,62.38-7.29,78.741-7.29,78.741l-33.948-.793s-.218-112.126-.245-129.749-4.409-110.444-4.409-110.444l-.087-57.685Z" transform="translate(-33.666 -73.158)" fill="#191919"/>
        <path id="Path_196" data-name="Path 196" d="M62.659,135.162c2.1-3.492,13.368-6.382,23.754-9.616a111.676,111.676,0,0,0,16.525-6.7l5.769,3.06a41.213,41.213,0,0,0,40.961-.062l4.941-2.839s8.2,3.585,17.368,6.408c10.395,3.2,22,5.882,23.782,9.545,1.811,3.718-16.714,75.125-18.8,81.2s3.337,48.549-1.944,61.259L129.474,278.9v.006l-.088,0h-.012l-45.55-1.348c-4.184-14.562.027-55.983-2.072-62.051s-22.6-74.513-19.094-80.346" transform="translate(-14.069 -26.859)" fill="#27547c"/>
        <path id="Path_197" data-name="Path 197" d="M81.427,322.5S71.086,355.243,68.12,373.333s-5.6,98.576-6.492,107.336-4.3,35.6-6.515,62.038-5.153,79.083-5.153,79.083L83.81,624.5s16.058-111.518,17.9-129.046,25.11-109.939,25.11-109.939l-.222-60.582Z" transform="translate(-11.291 -72.882)" fill="#191919"/>
        <path id="Path_198" data-name="Path 198" d="M186.588,711.229s11.606,13.552,10.995,17.133c-.347,2.035-5.238,9.42-14.128,9.967-6.758.416-17.784-5.747-19.5-5.923-3.979-.407-3.967-21.8-3.967-21.8Z" transform="translate(-36.156 -160.592)" fill="#191919"/>
        <path id="Path_199" data-name="Path 199" d="M52.384,709.7s-12.94,12.286-12.7,15.911c.136,2.06,4.24,9.909,13.027,11.369,6.68,1.109,18.281-3.886,20.008-3.885,4,0,6.191-21.274,6.191-21.274Z" transform="translate(-8.967 -160.387)" fill="#191919"/>
        <path id="Path_200" data-name="Path 200" d="M85.4,391.078c-1.911,11.988-7.266,92.556-7.591,97.127-.317,4.465-16.178,128.734-16.707,134.475l-11.142-.89s2.943-52.649,5.153-79.083,5.627-53.278,6.516-62.038,3.525-89.248,6.492-107.337S81.427,322.5,81.427,322.5l26.909,1.891S87.312,379.09,85.4,391.078" transform="translate(-11.291 -72.882)" fill="#303030"/>
        <path id="Path_201" data-name="Path 201" d="M154.287,369.427c6.3-11.1,23.139-7.361,24.235,5.356,1.127,13.068,1.407,22.11.266,28.134-2.871,15.148-6.984,89.2-6.434,91.142S172.522,632,172.522,632l-.6.36-18.29-.426s-.217-112.127-.245-129.751-4.408-110.443-4.408-110.443l-.009-5.039-.352-7.271Z" transform="translate(-33.586 -82.001)" fill="#303030"/>
        <path id="Path_202" data-name="Path 202" d="M231.632,137.764s11.91,2.82,22.123,24.062S272.933,227,272.933,227s-6.161,5.328-17.962,8.886-16.893,2.616-16.893,2.616L222.706,193.3s-5.731-54.015,8.927-55.534" transform="translate(-50.08 -31.134)" fill="#27547c"/>
        <path id="Path_203" data-name="Path 203" d="M56.811,134.1s-12.139,1.557-24.522,21.612S2.63,217.94,2.63,217.94s5.489,5.931,16.853,10.706S36.319,233.3,36.319,233.3L59.87,190.269s11.359-53.117-3.06-56.164" transform="translate(-0.594 -30.307)" fill="#27547c"/>
        <path id="Path_204" data-name="Path 204" d="M178.484,41.939C174.875,61.7,163.029,80.2,150.2,78.951c-12.257-1.194-31.952-22.2-30.005-42.19S135.68,1.736,154.073,3.017c15.464,1.078,28.127,18.572,24.411,38.923" transform="translate(-27.133 -0.665)" fill="#ffbd95"/>
        <path id="Path_205" data-name="Path 205" d="M178.556,26.656s-15.082-12.8-35.775-1.046c-4.454,2.529-3.033,18.353-4.252,19.421-1.308,1.146-3.03-12.708-4.039-11.249-7.283,10.537-6.617,26-8.136,25.742-4.6-.793-12.94-27.96-1.483-45.483S156.783-.519,161.327,1.679s17.313,7.9,17.229,24.976" transform="translate(-26.913 0)" fill="#8d3b26"/>
        <path id="Path_206" data-name="Path 206" d="M138.948,49.684c.327,5.751-.639,13.16-3.661,13.331s-5.738-4.35-6.064-10.1,1.859-10.551,4.881-10.722,4.517,1.742,4.845,7.491" transform="translate(-29.196 -9.533)" fill="#ffbd95"/>
        <path id="Path_207" data-name="Path 207" d="M119.423,272.383c-6.232-10.366,11.146-26.949,18.8-29.845s21.988-1.35,23.984-7.365c3.6-10.857-35.172-17.77-38.742-17.247s-30.61,3.389-34.942-.056-25.8-68.141-25.8-68.141c4.813,21.729,18.089,71.881,19.324,75.613,1.939,5.867-3.106,46.889,1.814,59.165l42.437,1.437v.005l.082,0h.01l42.44-1.3s-45.306-5.441-49.407-12.263" transform="translate(-14.175 -33.838)" fill="#002d56"/>
        <path id="Path_208" data-name="Path 208" d="M274.194,264.873c-2.345-7.341-5.976-12.726-15.387-10.285s-29.4,14.325-29.4,14.325l3.793,11.874s21.48,4.765,26.737,3.938,20.391-.637,14.253-19.853" transform="translate(-51.845 -57.4)" fill="#ffa47c"/>
        <path id="Path_209" data-name="Path 209" d="M.579,256.125c-.908-7.656,2.361-14.438,23.649-18.1s71.726-5.766,71.726-5.766l1.469,12.385s-40.509,17.135-51.979,19.637S2.956,276.166.579,256.125" transform="translate(-0.101 -52.488)" fill="#ffbd95"/>
        <path id="Path_210" data-name="Path 210" d="M110.764,245.757s11.2,5.021,14.78,5.554,16.618-1.1,19.511-1.026c4.82.132,15.4,9.76,15.93,6.56s-9.136-16.407-9.136-16.407-13.565-10.478-19.283-10.266-16.273,1.819-16.273,1.819Z" transform="translate(-25.032 -52.016)" fill="#ffbd95"/>
        <path id="Path_211" data-name="Path 211" d="M240.507,270.059s-11.97-2.717-15.585-2.535S208.848,271.88,206,272.372c-4.75.82-20.055-.735-19.945,2.508s16.948,9.3,16.948,9.3,9.865,2.513,18.788,1.933c5.71-.372,16.011-1.47,16.011-1.47Z" transform="translate(-42.046 -60.456)" fill="#ffa47c"/>
        <path id="Path_212" data-name="Path 212" d="M133.031,264.775l85.238.255,49.953,5.23H171.28Z" transform="translate(-30.064 -59.837)" fill="#5a5a5a"/>
        <path id="Path_213" data-name="Path 213" d="M182.448,250.012h99.519l11.2-74.833H193.648Z" transform="translate(-41.232 -39.589)" fill="#d0d6d9"/>
        <path id="Path_214" data-name="Path 214" d="M171.28,276l-38.25-5.485v-5.742l38.25,5.485Z" transform="translate(-30.064 -59.837)" fill="#c1c6cb"/>
        <rect id="Rectangle_36" data-name="Rectangle 36" width="99.423" height="5.742" transform="translate(141.216 210.423)" fill="#757575"/>
        <path id="Path_215" data-name="Path 215" d="M193.648,175.179l88.223,74.833H182.449Z" transform="translate(-41.232 -39.589)" fill="#c1c6cb"/>
        <path id="Path_216" data-name="Path 216" d="M223.667,282.02s-10.735-3.03-11.051-5.031-11.526-7.889-11.982-9.1,5.03-2.279,9.074-.621a18.111,18.111,0,0,0,8.132,1.346c1.513.035,7.863-2.471,12.966.074s5.532,6.873,5.378,8.663-9.2,7.643-12.517,4.67" transform="translate(-45.336 -60.208)" fill="#ffa47c"/>
        <rect id="Rectangle_37" data-name="Rectangle 37" width="14.092" height="256.366" transform="translate(381.88 299.433)" fill="#79858e"/>
        <rect id="Rectangle_38" data-name="Rectangle 38" width="14.092" height="256.366" transform="translate(628.791 300.66)" fill="#79858e"/>
        <rect id="Rectangle_39" data-name="Rectangle 39" width="255.132" height="37.363" transform="translate(384.699 299.433)" fill="#79858e"/>
        <g id="Group_39" data-name="Group 39" transform="translate(381.831 316.042)" style="mix-blend-mode: multiply;isolation: isolate">
          <g id="Group_38" data-name="Group 38">
            <g id="Group_37" data-name="Group 37" clip-path="url(#clip-path-4)">
              <path id="Path_217" data-name="Path 217" d="M754.369,417l-261.051,3.722v-12.4l261.051.134Z" transform="translate(-493.317 -408.319)" fill="#b9b9bd"/>
            </g>
          </g>
        </g>
        <rect id="Rectangle_41" data-name="Rectangle 41" width="294.422" height="23.134" transform="translate(365.392 293.913)" fill="#99a2a9"/>
        <path id="Path_218" data-name="Path 218" d="M611.764,219.742,600.69,339.771l29.011.689L642.38,202.916Z" transform="translate(-135.751 -45.857)" fill="#ff6e26"/>
        <path id="Path_219" data-name="Path 219" d="M639.487,149.338c6.516,5.135,3.713,16.63-5.711,26.458s-68.992,50.1-73.369,49.729-13.665-6.828-11.332-12.712,47.219-47.327,56.371-54.061,25.551-16.1,34.041-9.415" transform="translate(-124.003 -33.229)" fill="#ff6e26"/>
        <path id="Path_220" data-name="Path 220" d="M551.133,223.073c-7.975-.976-16.527-20.387-21.314-34.759s-14.672-58.609-14.672-58.609l12.355-3.389s32.3,72.171,33.838,76.182,3.526,22.257-10.207,20.575" transform="translate(-116.419 -28.547)" fill="#ffbd95"/>
        <path id="Path_221" data-name="Path 221" d="M690.247,338.3a88.527,88.527,0,0,1,1.613,22.579c-1.382,18.614-64.261,24.143-66.336,23.665s-22.617-22.647-24.718-29.32c-1.19-3.778,7.062-18.682,12.268-34.155,26.75,6.172,50.422,11.059,77.172,17.231" transform="translate(-135.751 -72.559)" fill="#27547c"/>
        <path id="Path_222" data-name="Path 222" d="M540.633,680.887c2.222,4.705,3.27,16.634,2.858,19.926-.5,3.97-4.757,8.274-7.094,8.656-6.411,1.051-12.187-1.005-18.92-1.223s-19.311,2.67-28.665,2.053c-4.081-.269-13.51-1.834-12.794-4.135s13.567-5.471,20.333-8.229a190.406,190.406,0,0,0,28.929-14.561s14.973-3.293,15.354-2.488" transform="translate(-107.567 -153.846)" fill="#ffa47c"/>
        <path id="Path_223" data-name="Path 223" d="M626.758,345.528C636.832,357.5,645.15,382.28,626.6,407.2c-17.6,23.651-43.148,65.579-46.31,66.412s-25.007-8.294-27.157-11.7,38.111-109.931,40.508-115.477c4.365-10.1,21.623-14.565,33.112-.908" transform="translate(-124.986 -76.151)" fill="#002d56"/>
        <path id="Path_224" data-name="Path 224" d="M578.1,498.737c10.951,14.6,5.458,53.237,2.82,65.754s-24.57,71.246-24.568,75.912-16.286,1.807-16.681-.766,8.711-97.008,8.681-103.833,1.125-37.751,1.546-40.753c2.173-15.458,21.941-4.661,28.2,3.686" transform="translate(-121.958 -110.108)" fill="#002d56"/>
        <path id="Path_225" data-name="Path 225" d="M668.6,134.428c-5.59-.289-5.146-6.763-4.887-12.168a1.543,1.543,0,0,0,.419-.635c.472-2.464,1.291-34.391,1.291-34.391L698.59,76.867s-3.56,32.34-2.236,38.331c-8.427,8.676-15.539,19.86-27.755,19.229" transform="translate(-149.963 -17.371)" fill="#ffa47c"/>
        <path id="Path_226" data-name="Path 226" d="M625.058,249.871c2.2-15.657-3.9-36.408-5.644-38.621s-8.148-11.808-7.774-19.6c.542-11.339,12.786-26.483,13.681-30.347s-.3-9.543,1.776-11.941c3.842-4.435,21.934-12.769,24.873-15.907,2.892,4.1,24.215,1.614,32.642-7.062a1.845,1.845,0,0,0,.361.884c6.91,6.346,27.87,12.889,32.261,23.565,5.323,12.943-23.511,42.71-25.072,87.681-.472,13.589-.294,38.208.555,55.784-27.421-1.313-50.31-9.609-77.172-17.231,6.743-12.522,8.784-22.017,9.513-27.2" transform="translate(-138.222 -28.563)" fill="#cee0ff"/>
        <path id="Path_227" data-name="Path 227" d="M683.64,354.039c5.451,20.747-19.246,45.311-40.219,68.224-28.269,30.884-50.045,56.7-53.289,57.109s-20.682-10.47-22.368-14.127,37.069-79.852,51.289-105.754c21.556-39.267,55.465-40.175,64.587-5.452" transform="translate(-128.298 -74.344)" fill="#27547c"/>
        <path id="Path_228" data-name="Path 228" d="M487.564,681.59c.55,4.4,4.6,11.133,4.8,14.446.243,3.993-2.636,7.717-4.861,8.524-6.108,2.214-8.412,1.867-18.7,4.381-6.544,1.6-23.535,7.318-28.437,6.492s-15.415-3.28-15.136-5.673,14.125-3.911,20.267-7.868c15.839-10.2,29-26.223,29-26.223s12.947,5.038,13.058,5.921" transform="translate(-96.099 -152.696)" fill="#ffbd95"/>
        <path id="Path_229" data-name="Path 229" d="M574.193,517.632c4.96,17.562-14.078,51.631-21.047,62.358s-48.579,57.616-50.257,61.971-15.845-4.178-15.287-6.721,43.061-87.364,45.491-93.74,14.686-34.868,16.161-37.516c7.595-13.64,22.1,3.607,24.939,13.648" transform="translate(-110.19 -112.756)" fill="#27547c"/>
        <path id="Path_230" data-name="Path 230" d="M543.08,695.694a44.819,44.819,0,0,1,.038,8.494c-.5,3.969-4.757,8.274-7.092,8.657-6.411,1.051-11.707-.1-18.441-.312s-21,1.62-25.969,1.629c-4.875.009-17.973-2.4-17.257-4.7s14.853-5.4,21.62-8.156c0,0,5.9,3.523,9.486,3.354,3.564-.169,37.285-8.869,37.616-8.97" transform="translate(-107.195 -157.221)" fill="#191919"/>
        <path id="Path_231" data-name="Path 231" d="M642.5,31.075c7.235-8.639,30.326-18.576,43.883-3.843s10.252,31.319,5.044,41.971c-4.061,8.309-8.369,13.156-17.377,18.711-1.837,1.133-19.053,6.4-22.706,5.6-2.5-.546-6.4-18.326-7.1-18.169s-2.764-.677-3.034-2.126c-.392-2.111.365-15.323-.3-16.627s-6.708-15.617,1.583-25.518" transform="translate(-144.221 -4.451)" fill="#ffbd95"/>
        <path id="Path_232" data-name="Path 232" d="M489.472,691.139c1.3,3.2,2.775,6.409,2.9,8.393.243,3.992-2.636,7.718-4.861,8.523-6.108,2.215-8.412,1.868-18.7,4.382-6.543,1.6-23.534,7.317-28.436,6.492s-15.415-3.28-15.136-5.674,14.125-3.912,20.267-7.868l5.773,2.75Z" transform="translate(-96.099 -156.192)" fill="#303030"/>
        <path id="Path_233" data-name="Path 233" d="M639.155,37.4s19.72,6.369,25.265,7.153S675.6,56.206,677.007,58.884s15.245,8.472,15.245,8.472a28.507,28.507,0,0,0,4.557-29.073c-6.669-17.1-20.942-22.384-33.936-20.716S638.384,23.332,639.155,37.4" transform="translate(-144.436 -3.904)" fill="#8d3b26"/>
        <path id="Path_234" data-name="Path 234" d="M615,210.572c7.148,3.659,12.727,4.769,20.608,6.06,29.024,4.759,34.264-11.587,40.7-17.815,7.652-7.4,13.642-36.479,13.642-36.479l26,11s-21.008,42.6-22.223,64.1c-.692,12.249-.244,64.985-.244,64.985s-24.159-1.365-42.66-7.515c-6.575-2.185,5.229-17.752,4.644-30.72s-30.774-36.312-32.7-38.842S615,210.572,615,210.572" transform="translate(-138.984 -36.687)" fill="#b8d1ff"/>
        <path id="Path_235" data-name="Path 235" d="M680.878,67.991c1.1,4.8,4.1,8.214,6.713,7.617s3.834-4.974,2.737-9.777-4.1-8.213-6.713-7.617-3.835,4.973-2.737,9.777" transform="translate(-153.782 -13.141)" fill="#ffbd95"/>
        <path id="Path_236" data-name="Path 236" d="M527.271,111.59s-3.207-11.867-5.242-13.843S509.869,78.734,508.671,81c-1.394,2.64,6.241,16.863,5.78,17.152s-8.311,4.128-10.6,6.807,9.07,17.77,9.07,17.77L524.783,124Z" transform="translate(-113.797 -18.259)" fill="#ffbd95"/>
        <path id="Path_237" data-name="Path 237" d="M709.617,126.39S695.4,133.7,693.687,152.426s14.2,129.895,14.787,150.344,1.143,31.274,1.143,31.274L733.7,323.167s-2.208-178.248-5.733-184.779-18.35-12-18.35-12" transform="translate(-156.739 -28.563)" fill="#ff8626"/>
        <path id="Path_238" data-name="Path 238" d="M647.516,141.524l-24.1,31.484,3.5-18.657s11.92-12.275,20.6-12.828" transform="translate(-140.888 -31.983)" fill="#ff8626"/>
        <path id="Path_239" data-name="Path 239" d="M765.209,268.027c1.891,3.879,30.954,78.36,30.954,78.36l-12.654,3.277s-23.349-36.142-30.651-49.517-14.34-33.465-9.281-39.922c8.711-11.12,19.74,3.922,21.632,7.8" transform="translate(-167.655 -57.899)" fill="#ffbd95"/>
        <path id="Path_240" data-name="Path 240" d="M722.324,139.924c7.5-3.555,16.548,4.065,21.162,16.876s14.214,84.073,11.932,87.826-13.726,6.487-17.958,1.783-19.871-60.616-21.834-71.808-3.069-30.045,6.7-34.676" transform="translate(-161.427 -31.424)" fill="#ff8626"/>
        <path id="Path_241" data-name="Path 241" d="M766.108,265.807h0a6.943,6.943,0,0,1-4.6,8.638l-14.554,4.431a6.922,6.922,0,1,1-4.032-13.243l14.553-4.43a6.941,6.941,0,0,1,8.637,4.6" transform="translate(-166.785 -58.962)" fill="#ff8626"/>
        <path id="Path_242" data-name="Path 242" d="M791.383,369.5c3.317,5.161,6.868,12.829,13.938,13.759,4.134.544,12.172-2.019,16.451-2.118s6.8,1.036,7.163.544c1.681-2.3-2.093-4.162-2.093-4.162-.029-.008,5.678-.742,9.257,2.094,3.187,2.524,5.146,4.585,6.87,3.752s-7.156-10.028-10.287-10.853-29.839-5.718-29.839-5.718Z" transform="translate(-178.846 -82.892)" fill="#ffbd95"/>
        <path id="Path_243" data-name="Path 243" d="M695.107,56.188s-1.279-17.879,12.855-17.736,24.984,15.426,24.821,23.452c-.45,22.118-17.919,37.85-18.63,39.529-4.064,9.6,12.084,14.046,8.465,15.954s-24.421,1.486-29.309-11.158,10.938-34.976,10.938-34.976Z" transform="translate(-156.47 -8.69)" fill="#8d3b26"/>
      </g>
    </g>
  </g>
</svg>
